<?xml version="1.0" encoding="UTF-8" standalone="no"?>
<svg xmlns:sketch="http://www.bohemiancoding.com/sketch/ns" xmlns="http://www.w3.org/2000/svg" height="158px" width="161px" version="1.1" xmlns:xlink="http://www.w3.org/1999/xlink" viewBox="0 0 161 158"><!-- Generator: Sketch 3.4 (15575) - http://www.bohemiancoding.com/sketch -->
 <title>invitation-revoked</title>
 <desc>Created with Sketch.</desc>
 <defs>
  <circle id="path-1" cy="86" cx="86" r="74"/>
  <path id="path-3" d="m0 11.875h11.875v-11.875h-11.875v11.875z"/>
  <path id="path-5" d="m0 19.792h19.792v-19.792h-19.792v19.792z"/>
  <path id="path-7" d="m0 24.235h23.75v-24.235h-23.75v24.235z"/>
  <path id="path-9" d="m0 17.812h17.812v-17.812h-17.812v17.812z"/>
  <path id="path-11" d="m0 13.854h13.854v-13.854h-13.854v13.854z"/>
  <path id="path-13" d="m0 13.854h13.854v-13.854h-13.854v13.854z"/>
  <path id="path-15" d="m0 17.812h17.812v-17.812h-17.812v17.812z"/>
  <path id="path-17" d="m0 23.75h23.75v-23.75h-23.75v23.75z"/>
  <path id="path-19" d="m0 23.75h23.75v-23.75h-23.75v23.75z"/>
 </defs>
 <g id="Marketing-Page" fill-rule="evenodd" sketch:type="MSPage" fill="none">
  <g id="404" transform="translate(-545 -171)" sketch:type="MSArtboardGroup">
   <g id="Group" transform="translate(420 148)" sketch:type="MSLayerGroup">
    <g id="invitation-revoked" transform="translate(119 21)">
     <mask id="mask-2" sketch:name="Mask" fill="white">
      <use xlink:href="#path-1"/>
     </mask>
     <use id="Mask" sketch:type="MSShapeGroup" fill="#9BADE3" xlink:href="#path-1" fill-opacity=".3"/>
     <g id="Group-Copy-24" stroke="#58402C" mask="url(#mask-2)" sketch:type="MSShapeGroup">
      <g transform="translate(29 42)">
       <rect id="Rectangle-540-Copy-2" rx="8" transform="translate(58.5 11.5) scale(1 -1) translate(-58.5 -11.5)" height="15" width="5" y="4" x="56" fill="#58402C"/>
       <ellipse id="Oval-63" rx="4.5" ry="4.5" cy="4.5" cx="58.5" fill="#F3CFB1"/>
       <rect id="Rectangle-540-Copy" rx="8" height="28" width="35" y="15" x="41" fill="#58402C"/>
       <rect id="Rectangle-540-Copy-3" rx="8" transform="translate(58 64) scale(1 -1) translate(-58 -64)" height="28" width="16" y="50" x="50" fill="#58402C"/>
       <rect id="Rectangle-540" rx="13" height="42" width="52" y="19" x="32" fill="#F3CFB1"/>
       <circle id="Oval-43" cy="36" cx="45" r="8" fill="#FFAF6C"/>
       <circle id="Oval-43-Copy" cy="36" cx="71" r="8" fill="#FFAF6C"/>
       <polygon id="Polygon-1" points="45 31 49.33 33.5 49.33 38.5 45 41 40.67 38.5 40.67 33.5" fill="#fff"/>
       <circle id="Oval-43-Copy-3" cy="36" cx="45" r="2" fill="#58402C"/>
       <polygon id="Polygon-1-Copy" points="71 31 75.33 33.5 75.33 38.5 71 41 66.67 38.5 66.67 33.5" fill="#fff"/>
       <circle id="Oval-43-Copy-2" cy="36" cx="71" r="2" fill="#58402C"/>
       <rect id="Rectangle-546" transform="translate(101.42 50.918) rotate(192) translate(-101.42 -50.918)" height="38" width="7" y="31.918" x="97.923" fill="#58402C"/>
       <rect id="Rectangle-546-Copy-2" transform="translate(14.698 97.269) rotate(4) translate(-14.698 -97.269)" height="38" width="7" y="78.269" x="11.198" fill="#58402C"/>
       <rect id="Rectangle-546-Copy" transform="translate(105.54 76.937) rotate(184) translate(-105.54 -76.937)" height="31.827" width="7" y="61.023" x="102.04" fill="#58402C"/>
       <ellipse id="Oval-64" rx="6.5" transform="translate(114.68 64) rotate(184) translate(-114.68 -64)" ry="6.5" cy="64" cx="114.68" fill="#F3CFB1"/>
       <ellipse id="Oval-64-Copy" rx="9.5" ry="9.5" cy="88.5" cx="91.5" fill="#FFAF6C"/>
       <ellipse id="Oval-64-Copy-2" rx="9.5" ry="9.5" cy="88.5" cx="24.5" fill="#FFAF6C"/>
       <path id="Oval-68-Copy" fill="#F3CFB1" d="m76.068 37.342c-1.241-2.546-1.182-5.656 0.43-8.236 2.487-3.981 7.731-5.192 11.712-2.704 3.982 2.488 5.192 7.732 2.705 11.713-1.612 2.579-4.382 3.996-7.215 3.997l5.677-9.085-7.632-4.769-5.677 9.084z" transform="translate(83.706 33.61) rotate(103) translate(-83.706 -33.61)"/>
       <path id="Rectangle-540-Copy-7" fill="#F3CFB1" d="m26.358 69l63.288 0.031 4.746 38.089c0.888 7.12-4.214 12.89-11.392 12.89h-50c-7.18 0-12.28-5.77-11.392-12.9l4.75-38.11z" transform="translate(58 94.507) scale(1 -1) translate(-58 -94.507)"/>
       <path id="Rectangle-540-Copy-6" fill="#9BADE3" d="m40.5 85h35l4.776 22.29c1.505 7.02-3.097 12.71-10.282 12.71h-23.988c-7.183 0-11.788-5.68-10.282-12.71l4.776-22.29z" transform="translate(58 102.5) scale(1 -1) translate(-58 -102.5)"/>
       <path id="Oval-110" fill="#9BADE3" d="m58 53c3.314 0 6 0.314 6-3h-12c0 3.314 2.686 3 6 3z" transform="translate(58 51.504) rotate(180) translate(-58 -51.504)"/>
      </g>
     </g>
     <g id="1f4a1" transform="translate(55 49) rotate(-33) translate(-6 -6)">
      <g id="g10" transform="translate(5.9375 5.9375) scale(1 -1) translate(-5.9375 -5.9375)">
       <g id="g12">
        <g id="g14-Clipped">
         <mask id="mask-4" sketch:name="path18" fill="white">
          <use xlink:href="#path-3"/>
         </mask>
         <g id="g14" mask="url(#mask-4)">
          <g transform="translate(2.5 .31250)">
           <g id="g20" transform="translate(0 2.4812)">
            <path id="path22" sketch:type="MSShapeGroup" fill="#FFD983" d="m6.875 5.3125c0-2.0122-1.5625-2.3247-1.5625-4.2 0-0.96812-0.9759-1.0497-1.7187-1.0497-0.6416 0.000012-2.0582 0.24345-2.0582 1.0503 0 1.8747-1.5356 2.1872-1.5356 4.1994 0 1.8847 1.6516 3.4125 3.4634 3.4125 1.8125 0 3.4116-1.5278 3.4116-3.4125"/>
           </g>
           <g id="g24" transform="translate(1.9272 .15625)">
            <path id="path26" sketch:type="MSShapeGroup" fill="#CCD6DD" d="m2.8125 0.9375c0-0.25875-0.6981-0.78125-1.3022-0.78125-0.60405 0-1.3019 0.5225-1.3019 0.78125 0.00004 0.2587 0.69785 0.1563 1.3019 0.1563 0.6041 0 1.3022 0.1024 1.3022-0.1563"/>
           </g>
           <g id="g28" transform="translate(1.7834 2.7209)">
            <path id="path30" sketch:type="MSShapeGroup" fill="#FFCC4D" d="m3.125 5.3125c-0.1222 0.1222-0.3197 0.1222-0.4419 0l-1.029-1.0291-1.0291 1.0291c-0.12219 0.1222-0.31969 0.1222-0.44188 0-0.12218-0.1222-0.12218-0.3197 0-0.4419l1.1585-1.1584v-3.3081c0-0.17285 0.14-0.31254 0.3125-0.31254 0.1725 0.000002 0.3125 0.13969 0.3125 0.3125v3.3081l1.1584 1.1584c0.1222 0.1222 0.1222 0.3197 0 0.4419"/>
           </g>
           <g id="g32" transform="translate(1.5625 .93750)">
            <path id="path34" sketch:type="MSShapeGroup" fill="#99AAB5" d="m3.75 0.625c0-0.345-0.28-0.625-0.625-0.625h-2.5c-0.345 0-0.625 0.28-0.625 0.625v1.875h3.75v-1.875z"/>
           </g>
           <g id="g36" transform="translate(1.2497 1.25)">
            <path id="path38" sketch:type="MSShapeGroup" fill="#CCD6DD" d="m0.3125 0c-0.15 0-0.2825 0.10844-0.30781 0.26125-0.02844 0.17 0.08656 0.33125 0.25656 0.35937l3.7504 0.62498c0.17 0.0306 0.3309-0.0865 0.3593-0.25685 0.0285-0.17-0.0865-0.33125-0.2568-0.35937l-3.7497-0.625c-0.01752-0.00313-0.03502-0.00438-0.0519-0.00438"/>
           </g>
           <g id="g40" transform="translate(1.2497 2.5)">
            <path id="path42" sketch:type="MSShapeGroup" fill="#CCD6DD" d="m0.3125 0c-0.15 0-0.2825 0.10844-0.30781 0.26125-0.02844 0.17 0.08656 0.33125 0.25656 0.35937l3.7504 0.62498c0.17 0.0303 0.3309-0.0865 0.3593-0.25685 0.0285-0.17-0.0865-0.33125-0.2568-0.35937l-3.7497-0.625c-0.01752-0.00313-0.03502-0.00438-0.0519-0.00438"/>
           </g>
          </g>
         </g>
        </g>
       </g>
      </g>
     </g>
     <g id="1f4a1-copy" transform="translate(138.82 27.595) rotate(29) translate(-10 -10)">
      <g id="g10" transform="translate(9.8958 9.8958) scale(1 -1) translate(-9.8958 -9.8958)">
       <g id="g12">
        <g id="g14-Clipped">
         <mask id="mask-6" sketch:name="path18" fill="white">
          <use xlink:href="#path-5"/>
         </mask>
         <g id="g14" mask="url(#mask-6)">
          <g transform="translate(4.1667 .52083)">
           <g id="g20" transform="translate(0 4.1354)">
            <path id="path22" sketch:type="MSShapeGroup" fill="#FFD983" d="m11.458 8.8542c0-3.3537-2.6038-3.8745-2.6038-7 0-1.6136-1.6266-1.7495-2.8646-1.7495-1.0693-0.00001-3.4302 0.40572-3.4302 1.7505 0 3.1245-2.5594 3.6453-2.5594 6.999 0 3.1408 2.7526 5.6878 5.7724 5.6878 3.0208 0 5.6856-2.547 5.6856-5.6878"/>
           </g>
           <g id="g24" transform="translate(3.212 .26042)">
            <path id="path26" sketch:type="MSShapeGroup" fill="#CCD6DD" d="m4.6875 1.5625c0-0.4313-1.1635-1.3021-2.1703-1.3021-1.0068 0.00002-2.1698 0.8708-2.1698 1.3021s1.163 0.2604 2.1698 0.2604 2.1703 0.1709 2.1703-0.2604"/>
           </g>
           <g id="g28" transform="translate(2.9724 4.5349)">
            <path id="path30" sketch:type="MSShapeGroup" fill="#FFCC4D" d="m5.2083 8.8542c-0.2036 0.2036-0.5328 0.2036-0.7364 0l-1.7151-1.7151-1.7151 1.7151c-0.20368 0.2036-0.53285 0.2036-0.73649 0-0.20365-0.2037-0.20365-0.5328 0-0.7365l1.9307-1.9307v-5.5136c0-0.28798 0.2334-0.5208 0.5209-0.5208s0.5208 0.23282 0.5208 0.52084v5.5136l1.9307 1.9307c0.2037 0.2037 0.2037 0.5328 0 0.7365"/>
           </g>
           <g id="g32" transform="translate(2.6042 1.5625)">
            <path id="path34" sketch:type="MSShapeGroup" fill="#99AAB5" d="m6.25 1.0417c0-0.57503-0.4667-1.0417-1.0417-1.0417h-4.1666c-0.57503 0-1.0417 0.46667-1.0417 1.0417v3.125h6.25v-3.125z"/>
           </g>
           <g id="g36" transform="translate(2.0828 2.0833)">
            <path id="path38" sketch:type="MSShapeGroup" fill="#CCD6DD" d="m0.52083 0c-0.25 0-0.47083 0.18073-0.51302 0.43542-0.047393 0.28333 0.14427 0.55208 0.42761 0.59898l6.2505 1.0416c0.2834 0.0511 0.5516-0.1442 0.599-0.4281 0.0474-0.2833-0.1443-0.5521-0.4281-0.5989l-6.2495-1.0417c-0.02918-0.0052167-0.05834-0.0073-0.08647-0.0073"/>
           </g>
           <g id="g40" transform="translate(2.0828 4.1667)">
            <path id="path42" sketch:type="MSShapeGroup" fill="#CCD6DD" d="m0.52083 0c-0.25 0-0.47083 0.18073-0.51302 0.43542-0.047393 0.28333 0.14427 0.55208 0.42761 0.59898l6.2505 1.0416c0.2834 0.0506 0.5516-0.1442 0.599-0.4281 0.0474-0.2833-0.1443-0.5521-0.4281-0.5989l-6.2495-1.0417c-0.02918-0.0052167-0.05834-0.0073-0.08647-0.0073"/>
           </g>
          </g>
         </g>
        </g>
       </g>
      </g>
     </g>
     <g id="1f4ca" transform="translate(107 15.5) rotate(13) translate(-12 -12.5)">
      <g id="g10" transform="translate(12 12.5) scale(1 -1) translate(-12 -12.245)">
       <g id="g12">
        <g id="g14-Clipped">
         <mask id="mask-8" sketch:name="path18" fill="white">
          <use xlink:href="#path-7"/>
         </mask>
         <g id="g14" mask="url(#mask-8)">
          <g transform="translate(1.25 .63776)">
           <g id="g20" sketch:type="MSLayerGroup" fill="none">
            <path id="path22" sketch:type="MSShapeGroup" fill="#CCD6DD" d="m21.25 2.551c0-1.4088-1.119-2.551-2.5-2.551h-16.25c-1.3806 0-2.5 1.1422-2.5 2.551v17.857c0 1.409 1.1194 2.551 2.5 2.551h16.25c1.381 0 2.5-1.142 2.5-2.551v-17.857z"/>
           </g>
           <path id="path24" sketch:type="MSShapeGroup" fill="#E1E8ED" d="m15.625 6.3776h3.125v-3.1888h-3.125v3.1888zm-4.375 0h3.125v-3.1888h-3.125v3.1888zm-4.375 0h3.125v-3.1888h-3.125v3.1888zm-4.375 0h3.125v-3.1888h-3.125v3.1888zm3.125 10.204h-3.125v3.188h3.125v-3.188zm4.375 0h-3.125v3.188h3.125v-3.188zm4.375 0h-3.125v3.188h3.125v-3.188zm1.25 3.188h3.125v-3.188h-3.125v3.188zm0-4.464h3.125v-3.189h-3.125v3.189zm0-4.464h3.125v-3.1889h-3.125v3.1889zm-4.375 0h3.125v-3.1889h-3.125v3.1889zm-4.375 0h3.125v-3.1889h-3.125v3.1889zm-1.25-3.1889h-3.125v3.1889h3.125v-3.1889zm0 4.4639h-3.125v3.189h3.125v-3.189zm5.625 3.189h3.125v-3.189h-3.125v3.189zm-1.25-3.189h-3.125v3.189h3.125v-3.189zm9.375 8.929h-17.5c-0.3456 0-0.625-0.286-0.625-0.638v-17.857c0-0.3527 0.2794-0.6377 0.625-0.6377h17.5c0.346 0 0.625 0.285 0.625 0.6377v17.857c0 0.352-0.279 0.638-0.625 0.638z"/>
           <g id="g26" sketch:type="MSLayerGroup" transform="translate(4.375 1.9133)" fill="none">
            <path id="path28" sketch:type="MSShapeGroup" fill="#5C913B" d="m3.75 1.2755c0-0.70407-0.56-1.2755-1.25-1.2755h-1.25c-0.69 0-1.25 0.57143-1.25 1.2755v9.5665c0 0.704 0.56 1.275 1.25 1.275h1.25c0.69 0 1.25-0.571 1.25-1.275v-9.5665z"/>
           </g>
           <g id="g30" sketch:type="MSLayerGroup" transform="translate(13.125 1.9133)" fill="none">
            <path id="path32" sketch:type="MSShapeGroup" fill="#9266CC" d="m3.75 1.2755c0-0.70407-0.56-1.2755-1.25-1.2755h-1.25c-0.69 0-1.25 0.57143-1.25 1.2755v14.03c0 0.704 0.56 1.276 1.25 1.276h1.25c0.69 0 1.25-0.572 1.25-1.276v-14.03-0.0005z"/>
           </g>
           <g id="g34" sketch:type="MSLayerGroup" transform="translate(8.75 1.9133)" fill="none">
            <path id="path36" sketch:type="MSShapeGroup" fill="#DD2E44" d="m3.75 1.2755c0-0.70407-0.56-1.2755-1.25-1.2755h-1.25c-0.69 0-1.25 0.57143-1.25 1.2755v5.1021c0 0.704 0.56 1.2755 1.25 1.2755h1.25c0.69 0 1.25-0.5715 1.25-1.2755v-5.1021z"/>
           </g>
          </g>
         </g>
        </g>
       </g>
      </g>
     </g>
     <g id="1f4ce" transform="translate(68 7)">
      <g id="g10" transform="translate(9 9.8125) scale(1 -1) translate(-9 -9)">
       <g id="g12">
        <g id="g14-Clipped">
         <mask id="mask-10" sketch:name="path18" fill="white">
          <use xlink:href="#path-9"/>
         </mask>
         <g id="g14" mask="url(#mask-10)">
          <g id="g20" transform="translate(.46875 .93750)">
           <g transform="translate(.16570 .34973)">
            <path id="path22" sketch:type="MSShapeGroup" fill="#58402C" d="m16.406 4.2188c0.102 1.1207-0.24 2.1365-0.964 2.8603l-7.6232 7.6229c-0.1833 0.183-0.48 0.183-0.6629 0-0.1832-0.183-0.1832-0.48 0-0.663l7.6231-7.6232c0.524-0.5236 0.77-1.2731 0.693-2.1117-0.074-0.8194-0.448-1.62-1.025-2.1971-0.577-0.5765-1.377-0.9501-2.196-1.0247-0.835-0.0759-1.589 0.1697-2.112 0.6929l-8.6179 8.6178c-0.4599 0.46-0.4964 1.033-0.4467 1.434 0.0703 0.56 0.3534 1.125 0.7781 1.55 0.7969 0.797 2.1637 1.15 2.9827 0.331l6.9608-6.9603c0.525-0.5255 0.012-1.3139-0.332-1.658-0.343-0.3445-1.133-0.8559-1.6568-0.3314l-5.3034 5.3037c-0.1829 0.183-0.48 0.183-0.6629 0-0.1832-0.1831-0.1828-0.4798 0-0.6631l5.3035-5.3034c0.8716-0.871 2.1596-0.4917 2.9826 0.3314 0.824 0.8236 1.203 2.1126 0.332 2.9836l-6.961 6.9595c-1.2282 1.229-3.1932 0.785-4.3083-0.33-0.56954-0.57-0.95017-1.334-1.0458-2.097-0.10734-0.859 0.14672-1.645 0.71438-2.2127l8.6175-8.618c0.6402-0.6398 1.5082-0.98152 2.4752-0.98152 0.127 0 0.255 0.0061 0.385 0.01734 1.034 0.09469 2.045 0.56672 2.774 1.2961 0.73 0.7294 1.202 1.7405 1.296 2.7746"/>
           </g>
          </g>
         </g>
        </g>
       </g>
      </g>
     </g>
     <g id="1f4dd" transform="translate(23 49) rotate(-42) translate(-7 -7)">
      <g id="g10" transform="translate(6.9271 6.9271) scale(1 -1) translate(-6.9271 -6.9271)">
       <g id="g12">
        <g id="g14-Clipped">
         <mask id="mask-12" sketch:name="path18" fill="white">
          <use xlink:href="#path-11"/>
         </mask>
         <g id="g14" mask="url(#mask-12)">
          <g transform="translate(.72917 .36458)">
           <g id="g20">
            <path id="path22" sketch:type="MSShapeGroup" fill="#CCD6DD" d="m10.938 1.4583c0-0.80533-0.653-1.4583-1.4588-1.4583h-8.0209c-0.80533 0-1.4583 0.65297-1.4583 1.4583v10.209c0 0.805 0.65297 1.458 1.4583 1.458h8.0209c0.8058 0 1.4588-0.653 1.4588-1.458v-10.209 0.0003z"/>
           </g>
           <g id="g24" transform="translate(1.4583 4.0104)">
            <path id="path26" sketch:type="MSShapeGroup" fill="#99AAB5" d="m8.0208 0.36458c0-0.20161-0.1629-0.36458-0.3646-0.36458h-7.2916c-0.20127 0-0.3646 0.16297-0.3646 0.36458 0 0.20162 0.16333 0.36459 0.36458 0.36459h7.2916c0.2017 0 0.3646-0.16297 0.3646-0.36459"/>
           </g>
           <g id="g28" transform="translate(1.4583 2.5521)">
            <path id="path30" sketch:type="MSShapeGroup" fill="#99AAB5" d="m2.1875 0.36458c0-0.20161-0.1633-0.36458-0.3646-0.36458h-1.4583c-0.20127 0-0.3646 0.16297-0.3646 0.36458 0 0.20162 0.16333 0.36459 0.36458 0.36459h1.4583c0.2013 0 0.3646-0.16297 0.3646-0.36459"/>
           </g>
           <g id="g32" transform="translate(1.4583 9.8438)">
            <path id="path34" sketch:type="MSShapeGroup" fill="#99AAB5" d="m8.0208 0.36458c0-0.20125-0.1629-0.36458-0.3646-0.36458h-7.2916c-0.20127 0-0.3646 0.16333-0.3646 0.36458s0.16333 0.36459 0.36458 0.36459h7.2916c0.2017 0 0.3646-0.16334 0.3646-0.36459"/>
           </g>
           <g id="g36" transform="translate(1.4583 8.3854)">
            <path id="path38" sketch:type="MSShapeGroup" fill="#99AAB5" d="m8.0208 0.36458c0-0.20161-0.1629-0.36458-0.3646-0.36458h-7.2916c-0.20127 0-0.3646 0.16297-0.3646 0.36458 0 0.20162 0.16333 0.36459 0.36458 0.36459h7.2916c0.2017 0 0.3646-0.16297 0.3646-0.36459"/>
           </g>
           <g id="g40" transform="translate(1.4583 6.9271)">
            <path id="path42" sketch:type="MSShapeGroup" fill="#99AAB5" d="m8.0208 0.36458c0-0.20161-0.1629-0.36458-0.3646-0.36458h-7.2916c-0.20127 0-0.3646 0.16297-0.3646 0.36458 0 0.20162 0.16333 0.36459 0.36458 0.36459h7.2916c0.2017 0 0.3646-0.16297 0.3646-0.36459"/>
           </g>
           <g id="g44" transform="translate(1.4583 5.4688)">
            <path id="path46" sketch:type="MSShapeGroup" fill="#99AAB5" d="m8.0208 0.36458c0-0.20161-0.1629-0.36458-0.3646-0.36458h-7.2916c-0.20127 0-0.3646 0.16297-0.3646 0.36458 0 0.20162 0.16333 0.36459 0.36458 0.36459h7.2916c0.2017 0 0.3646-0.16297 0.3646-0.36459"/>
           </g>
           <g id="g48" transform="translate(2.5521 2.4529)">
            <path id="path50" sketch:type="MSShapeGroup" fill="#66757F" d="m8.3854 8.3854c-0.3015 0.1951-0.6697 0.2111-0.9191 0.008l-0.2887-0.2351-0.5411-0.4415-0.0361-0.0292-0.8662-0.7066-4.3309-3.5313c-0.1593-0.1302-0.2891-0.4441-0.42768-0.7562-0.13817-0.3095-0.35328-1.0394-0.52609-1.6005-0.05432-0.0911-0.38828-0.673-0.20088-0.89467 0.18921-0.22422 0.84805-0.00328 0.93625 0.02808 0.5928 0.06307 1.3603 0.13599 1.6946 0.21145 0.3372 0.07693 0.6759 0.14365 0.8352 0.27417 0.003 0.00182 0.0037 0.0062 0.0066 0.00839l4.3229 3.5241 0.2887 0.2355 0.0525 0.0427v3.8627z"/>
           </g>
           <g id="g52" transform="translate(2.6048 3.0893)">
            <path id="path54" sketch:type="MSShapeGroup" fill="#D99E82" d="m3.6458 1.8229s-0.4644 0.6858-0.7718 0.9308c-0.245 0.3073-0.9297 0.7715-0.9297 0.7715-0.1633 0.1626-0.4342 0.175-0.5935 0.0156-0.1593-0.1597-0.2891-0.498-0.42804-0.8352-0.17172-0.4178-0.46521-1.5145-0.64458-2.0971-0.03026-0.09954 0.18849 0.16405 0.18375 0.07655-0.00365-0.06817 0.00948-0.14364 0.02661-0.21182-0.03099-0.03391-0.05286-0.05761-0.05286-0.05761 0.02041-0.00692 0.04666-0.01531 0.0762-0.02479 0.00911-0.02989 0.01822-0.05614 0.02479-0.07656 0 0 0.02406 0.02224 0.05797 0.05323 0.06817-0.01714 0.14364-0.03062 0.21182-0.02698 0.0875 0.00474-0.1761-0.21401-0.07693-0.18338 0.58257 0.17974 1.68 0.4725 2.0975 0.64421 0.3369 0.13891 0.6759 0.26875 0.8352 0.42805 0.1594 0.1593 0.1473 0.4302-0.0164 0.5935"/>
           </g>
           <g id="g56" transform="translate(8.4993 8.9866)">
            <path id="path58" sketch:type="MSShapeGroup" fill="#EA596E" d="m0.36458 2.5521c-0.31937-0.319-0.31937-0.836 0-1.155l1.1546-1.155c0.3194-0.31866 0.8364-0.31866 1.155-0.00002l1.1554 1.155c0.3186 0.319 0.3186 0.836 0 1.155l-1.1554 1.1546c-0.3186 0.319-0.8356 0.319-1.155 0l-1.1546-1.1546h-0.00002z"/>
           </g>
           <g id="g60" transform="translate(3.9554 4.078)">
            <path id="path62" sketch:type="MSShapeGroup" fill="#FFCC4D" d="m0 2.5521s0.28984-0.2899 1.1557-1.1557c0.8655-0.86557 1.1536-1.1543 1.1536-1.1543l4.3316 4.3309-2.3104 2.31-4.3305-4.3309z"/>
           </g>
           <g id="g64" transform="translate(2.6607 3.0107)">
            <path id="path66" sketch:type="MSShapeGroup" fill="#292F33" d="m1.0938 0.36458s-0.75109-0.41307-0.9538-0.21c-0.20307 0.20308 0.21182 0.95192 0.21182 0.95192s0.71168-0.0131 0.74198-0.74192"/>
           </g>
           <g id="g68" transform="translate(8.2715 8.3945)">
            <path id="path70" sketch:type="MSShapeGroup" fill="#CCD6DD" d="m1.4583 4.0104l2.31-2.31-1.4434-1.4437-2.3103 2.31 1.4437 1.4437z"/>
           </g>
           <g id="g72" transform="translate(9.1523 9.2753)">
            <path id="path74" sketch:type="MSShapeGroup" fill="#99AAB5" d="m0 2.5521l2.31-2.3096 0.2891 0.28833-2.31 2.31-0.2891-0.2887z"/>
           </g>
           <g id="g76" transform="translate(8.5752 8.6978)">
            <path id="path78" sketch:type="MSShapeGroup" fill="#99AAB5" d="m0 2.5521l2.31-2.31 0.2884 0.28873-2.3096 2.31-0.2888-0.2887z"/>
           </g>
          </g>
         </g>
        </g>
       </g>
      </g>
     </g>
     <g id="231b" transform="translate(114.17 44.456) rotate(35) translate(-7 -7)">
      <g id="g10" transform="translate(6.9271 6.9271) scale(1 -1) translate(-6.9271 -6.9271)">
       <g id="g12">
        <g id="g14-Clipped">
         <mask id="mask-14" sketch:name="path18" fill="white">
          <use xlink:href="#path-13"/>
         </mask>
         <g id="g14" mask="url(#mask-14)">
          <g transform="translate(2.5521 .36458)">
           <g id="g20" transform="translate(.72917 .72917)">
            <path id="path22" sketch:type="MSShapeGroup" fill="#FFE8B6" d="m4.7396 5.8333c0 0.7296 1.1834 1.2283 1.8229 2.1875 0.7292 1.0938 0.7292 3.6462 0.7292 3.6462h-3.6459-3.6458s0-2.5524 0.72917-3.6462c0.63913-0.9592 1.8229-1.4579 1.8229-2.1875 0-0.7295-1.1838-1.2282-1.8229-2.1875-0.7292-1.0937-0.7292-3.6458-0.7292-3.6458h3.6458 3.6459s0 2.5521-0.7292 3.6458c-0.6395 0.9593-1.8229 1.458-1.8229 2.1875"/>
           </g>
           <g id="g24" transform="translate(1.458 .72917)">
            <path id="path26" sketch:type="MSShapeGroup" fill="#FFAC33" d="m4.0104 3.6458c-0.3642 0-0.7499 0.3646-0.7499 0.7292 0.0207 0.6245 0.0211 1.0376 0.0211 1.4583 0 1.174 1.1062 1.6633 1.7865 2.5521h-4.3021c0.6799-0.8888 1.7864-1.3781 1.7864-2.5521 0-0.4207 0-0.8341 0.0212-1.4583 0-0.3646-0.3861-0.7292-0.7507-0.7292-0.7291 0-1.3103-0.6504-1.4583-1.0937-0.3646-1.0938-0.36424-2.5521-0.36424-2.5521h2.5517 0.3649 2.9167s0 1.4583-0.3646 2.5521c-0.1476 0.4433-0.7295 1.0937-1.4587 1.0937"/>
           </g>
           <g id="g28">
            <path id="path30" sketch:type="MSShapeGroup" fill="#3B88C3" d="m8.75 0.72917c0-0.4025-0.3267-0.72917-0.7292-0.72917h-7.2916c-0.40253 0-0.7292 0.32667-0.7292 0.72917 0 0.40253 0.32667 0.72913 0.72917 0.72913h7.2916c0.4025 0 0.7292-0.3266 0.7292-0.72913"/>
           </g>
           <g id="g32" transform="translate(0 11.667)">
            <path id="path34" sketch:type="MSShapeGroup" fill="#3B88C3" d="m8.75 0.72917c0-0.4025-0.3267-0.72917-0.7292-0.72917h-7.2916c-0.40253 0-0.7292 0.32667-0.7292 0.72917 0 0.40253 0.32667 0.72913 0.72917 0.72913h7.2916c0.4025 0 0.7292-0.3266 0.7292-0.72913"/>
           </g>
          </g>
         </g>
        </g>
       </g>
      </g>
     </g>
     <g id="1f4ac" transform="translate(44 28) rotate(-25) translate(-9 -9)">
      <g id="g10" transform="translate(8.9062 8.9062) scale(1 -1) translate(-8.9062 -8.9062)">
       <g id="g12">
        <g id="g14-Clipped">
         <mask id="mask-16" sketch:name="path18" fill="white">
          <use xlink:href="#path-15"/>
         </mask>
         <g id="g14" mask="url(#mask-16)">
          <g transform="translate(.46875 .93750)">
           <g id="g20">
            <path id="path22" sketch:type="MSShapeGroup" fill="#BDDDF4" d="m8.4375 15.938c-4.6598 0-8.4375-2.939-8.4375-6.563 0-2.0475 1.2066-3.8756 3.0956-5.0789-0.2456-1.0823-0.8179-2.6878-2.1581-4.2961 2.6991 0.45 4.4245 1.763 5.4919 3.0075 0.645-0.1228 1.3148-0.195 2.0081-0.195 4.6595 0 8.4375 2.9381 8.4375 6.5625 0 3.624-3.778 6.563-8.4375 6.563"/>
           </g>
           <g id="g24" transform="translate(7.5 8.4375)">
            <path id="path26" sketch:type="MSShapeGroup" fill="#2A6797" d="m1.875 0.9375c0-0.5175-0.42-0.9375-0.9375-0.9375s-0.9375 0.42-0.9375 0.9375 0.42 0.9375 0.9375 0.9375 0.9375-0.42 0.9375-0.9375"/>
           </g>
           <g id="g28" transform="translate(11.25 8.4375)">
            <path id="path30" sketch:type="MSShapeGroup" fill="#2A6797" d="m1.875 0.9375c0-0.5175-0.42-0.9375-0.9375-0.9375s-0.9375 0.42-0.9375 0.9375 0.42 0.9375 0.9375 0.9375 0.9375-0.42 0.9375-0.9375"/>
           </g>
           <g id="g32" transform="translate(3.75 8.4375)">
            <path id="path34" sketch:type="MSShapeGroup" fill="#2A6797" d="m1.875 0.9375c0-0.5175-0.42-0.9375-0.9375-0.9375s-0.9375 0.42-0.9375 0.9375 0.42 0.9375 0.9375 0.9375 0.9375-0.42 0.9375-0.9375"/>
           </g>
          </g>
         </g>
        </g>
       </g>
      </g>
     </g>
     <g id="1f4e2" transform="translate(153.94 55.821) rotate(18) translate(-12 -12)">
      <g id="g10" transform="translate(11.875 11.875) scale(1 -1) translate(-11.875 -11.875)">
       <g id="g12">
        <g id="g14-Clipped">
         <mask id="mask-18" sketch:name="path18" fill="white">
          <use xlink:href="#path-17"/>
         </mask>
         <g id="g14" mask="url(#mask-18)">
          <g transform="translate(0 1.875)">
           <g id="g20" transform="translate(3.0676 .15625)">
            <path id="path22" sketch:type="MSShapeGroup" fill="#BE1931" d="m5.625 1.875c-0.1725-1.3806-1.4319-1.875-2.8125-1.875s-2.36 1.1194-2.1875 2.5l0.625 5.625c0.1725 1.3806 1.4319 2.5 2.8125 2.5s4.0425 0 2.1875-2.5-0.625-6.25-0.625-6.25"/>
           </g>
           <g id="g24" transform="translate(8.0158 3.9062)">
            <path id="path26" sketch:type="MSShapeGroup" fill="#CCD6DD" d="m15 8.125c0-4.3138-0.965-7.8125-2.156-7.8125s-12.782 3.4987-12.782 7.8125c0.0005 4.314 11.591 7.813 12.782 7.813s2.156-3.499 2.156-7.813"/>
           </g>
           <g id="g28" transform="translate(18.641 3.9062)">
            <path id="path30" sketch:type="MSShapeGroup" fill="#66757F" d="m4.375 8.125c0-4.3138-0.965-7.8125-2.1562-7.8125-1.1907 0-2.1563 3.4987-2.1563 7.8125 0 4.314 0.9656 7.813 2.1563 7.813 1.1912 0 2.1562-3.499 2.1562-7.813"/>
           </g>
           <g id="g32" transform="translate(0.578 7.6562)">
            <path id="path34" sketch:type="MSShapeGroup" fill="#DD2E44" d="m11.25 0l-8.75 0.625c-3.125 0-3.125 7.5 0 7.5l8.75 0.625c-1.875-1.875-1.875-6.875 0-8.75"/>
           </g>
           <g id="g36" transform="translate(19.266 8.9062)">
            <path id="path38" sketch:type="MSShapeGroup" fill="#99AAB5" d="m1.875 3.125c0-1.5006-0.42-2.7175-0.9375-2.7175s-0.9375 1.2169-0.9375 2.7175 0.42 2.7175 0.9375 2.7175 0.9375-1.2169 0.9375-2.7175"/>
           </g>
          </g>
         </g>
        </g>
       </g>
      </g>
     </g>
     <g id="1f4e3" transform="translate(16.573 92.634) rotate(-29) translate(-12 -12)">
      <g id="g10" transform="translate(11.875 11.875) scale(1 -1) translate(-11.875 -11.875)">
       <g id="g12">
        <g id="g14-Clipped">
         <mask id="mask-20" sketch:name="path18" fill="white">
          <use xlink:href="#path-19"/>
         </mask>
         <g id="g14" mask="url(#mask-20)">
          <g transform="translate(0 3.75)">
           <g id="g20" transform="translate(5.625)">
            <path id="path22" sketch:type="MSShapeGroup" fill="#3B88C3" d="m3.75 1.25c-1.3806 0-2.5 1.1194-2.5 2.5s1.1194 2.5 2.5 2.5 2.5-1.1194 2.5-2.5-1.1194-2.5-2.5-2.5m0 6.25c-2.0706 0-3.75-1.6794-3.75-3.75s1.6794-3.75 3.75-3.75 3.75 1.6794 3.75 3.75-1.6794 3.75-3.75 3.75"/>
           </g>
           <g id="g24" transform="translate(.48950 .61038)">
            <path id="path26" sketch:type="MSShapeGroup" fill="#55ACEE" d="m1.25 10v-0.0131c-0.62562-0.1363-1.1144-1.1844-1.1144-2.4725 0.00002-1.2875 0.48878-2.3356 1.1144-2.4725v-0.0125l17.938-4.9825v14.927l-17.938-4.974z"/>
           </g>
           <g id="g28" transform="translate(16.875 0.625)">
            <path id="path30" sketch:type="MSShapeGroup" fill="#269" d="m6.25 7.5c0-4.1419-1.3988-7.5-3.125-7.5s-3.125 3.3581-3.125 7.5c0 4.142 1.3988 7.5 3.125 7.5s3.125-3.358 3.125-7.5"/>
           </g>
          </g>
         </g>
        </g>
       </g>
      </g>
     </g>
    </g>
   </g>
  </g>
 </g>
</svg>
