<?xml version="1.0" encoding="UTF-8" standalone="no"?>
<svg xmlns:sketch="http://www.bohemiancoding.com/sketch/ns" xmlns="http://www.w3.org/2000/svg" height="17px" width="16px" version="1.1" xmlns:xlink="http://www.w3.org/1999/xlink" viewBox="0 0 16 17"><!-- Generator: Sketch 3.4 (15575) - http://www.bohemiancoding.com/sketch -->
 <title>google116</title>
 <desc>Created with Sketch.</desc>
 <g id="Marketing-Page" fill-rule="evenodd" sketch:type="MSPage" fill="none">
  <g id="landing" transform="translate(-331 -408)" sketch:type="MSArtboardGroup">
   <g id="Hero" transform="translate(160 149)" sketch:type="MSLayerGroup">
    <g id="Search-Field-Copy-2-+-Ask-+-Rectangle-1251-Copy-Copy" sketch:type="MSShapeGroup" transform="translate(151 249.5)">
     <g id="google116" transform="translate(20 10)">
      <g id="new-google-favicon">
       <g id="Group">
        <path id="Shape" fill="#fff" d="m5.5038 0.43753c-1.9803 0.66487-3.6677 2.1191-4.6076 3.9593-0.32789 0.6348-0.56396 1.3083-0.70822 2.0075-0.35847 1.733-0.10929 3.5818 0.70382 5.1607 0.529 1.029 1.2896 1.947 2.2077 2.663 0.8699 0.678 1.8797 1.184 2.9551 1.463 1.3552 0.356 2.7979 0.348 4.1614 0.043 1.233-0.279 2.4-0.858 3.332-1.699 0.983-0.888 1.687-2.054 2.059-3.311 0.406-1.3685 0.459-2.8312 0.205-4.2382h-7.6503v3.1142h4.4333c-0.171 0.995-0.774 1.905-1.627 2.466-0.537 0.357-1.1538 0.584-1.792 0.695-0.6383 0.108-1.3028 0.121-1.941-0.004-0.6514-0.129-1.2678-0.395-1.8099-0.768-0.8655-0.596-1.5256-1.467-1.8623-2.4491-0.3453-0.9994-0.3497-2.1104 0-3.1056 0.2449-0.7035 0.647-1.3512 1.1804-1.8831 0.6557-0.6606 1.5082-1.1324 2.4306-1.3255 0.7869-0.163 1.6175-0.1329 2.3869 0.0944 0.6553 0.193 1.2593 0.5491 1.7533 1.0123 0.498-0.489 0.996-0.978 1.495-1.467 0.262-0.2616 0.537-0.5147 0.791-0.785-0.756-0.6863-1.648-1.2396-2.619-1.5914-1.7482-0.63484-3.7154-0.64771-5.4772-0.05147z"/>
        <path id="Shape" fill="#EA4335" d="m5.5038 0.43753c1.7574-0.59624 3.729-0.58337 5.4772 0.04719 0.971 0.35174 1.858 0.90078 2.619 1.5914-0.254 0.2703-0.529 0.5234-0.791 0.785-0.499 0.489-0.997 0.978-1.495 1.4671-0.494-0.4633-1.098-0.8151-1.7533-1.0124-0.7694-0.2273-1.6-0.2616-2.3869-0.0944-0.9181 0.1931-1.7705 0.6649-2.4306 1.3255-0.5334 0.5276-0.9355 1.1796-1.1804 1.8831-0.8874-0.6777-1.7748-1.3512-2.6666-2.0289 0.9399-1.8445 2.6273-3.2987 4.6076-3.9636v0.00003z"/>
        <path id="Shape" fill="#FBBC05" d="m0.19235 6.4c0.14426-0.6949 0.38033-1.3727 0.7082-2.0075 0.88745 0.6777 1.7748 1.3512 2.6666 2.0289-0.3497 0.9995-0.3497 2.1105 0 3.1057-0.8874 0.6779-1.7749 1.3559-2.6623 2.0289-0.82184-1.5742-1.071-3.423-0.71255-5.156z"/>
        <path id="Shape" fill="#4285F4" d="m8.1617 6.4815h7.6503c0.254 1.4027 0.197 2.8654-0.205 4.2385-0.372 1.256-1.076 2.423-2.059 3.311-0.862-0.656-1.723-1.313-2.584-1.969 0.852-0.562 1.456-1.471 1.626-2.4663h-4.4326c0.0043-1.0381 0.0043-2.0761 0.0043-3.1142z"/>
        <path id="Shape" fill="#34A853" d="m0.89617 11.56c0.88743-0.673 1.7748-1.351 2.6623-2.0286 0.341 0.9826 0.9967 1.8526 1.8623 2.4496 0.542 0.373 1.1628 0.639 1.8098 0.768 0.6383 0.128 1.2984 0.111 1.941 0.004 0.6382-0.112 1.2544-0.339 1.7924-0.695 0.861 0.656 1.722 1.313 2.584 1.969-0.932 0.845-2.099 1.42-3.332 1.698-1.3635 0.305-2.8062 0.314-4.1614-0.042-1.0754-0.279-2.0852-0.781-2.9551-1.463-0.9137-0.712-1.6744-1.63-2.2033-2.66h-0.00003z"/>
       </g>
      </g>
     </g>
    </g>
   </g>
  </g>
 </g>
</svg>
