<?xml version="1.0" encoding="UTF-8" standalone="no"?>
<svg xmlns:sketch="http://www.bohemiancoding.com/sketch/ns" xmlns="http://www.w3.org/2000/svg" height="34px" width="35px" version="1.1" xmlns:xlink="http://www.w3.org/1999/xlink" viewBox="0 0 35 34"><!-- Generator: Sketch 3.4 (15575) - http://www.bohemiancoding.com/sketch -->
 <title>1f389</title>
 <desc>Created with Sketch.</desc>
 <defs>
  <path id="path-1" d="m0 35.625h35.625v-35.625h-35.625v35.625z"/>
 </defs>
 <g id="Marketing-Page" fill-rule="evenodd" sketch:type="MSPage" fill="none">
  <g id="landing" transform="translate(-1050 -3863)" sketch:type="MSArtboardGroup">
   <g id="Sign-up" transform="translate(0 3809)" sketch:type="MSLayerGroup">
    <g id="1f389" transform="translate(1050 52)">
     <g id="g10" transform="translate(18 18.625) scale(1 -1) translate(-18 -18)">
      <g id="g12">
       <g id="g14-Clipped">
        <mask id="mask-2" sketch:name="path18" fill="white">
         <use xlink:href="#path-1"/>
        </mask>
        <g id="g14" mask="url(#mask-2)" sketch:type="MSShapeGroup">
         <g id="g20" fill="#DD2E44" transform="translate(.58688 .47972)">
          <path id="path22" d="m11.25 27.188c-0.105-0.106-0.185-0.232-0.251-0.371l-0.008 0.008-10.515-23.686 0.01056-0.0106c-0.195-0.3778 0.13125-1.1465 0.79964-1.8159 0.6676-0.6675 1.4363-0.99375 1.8141-0.79875l0.0094-0.00937 23.688 10.514-0.008 0.009c0.139 0.065 0.264 0.145 0.37 0.251 1.465 1.464-0.91 6.213-5.303 10.606-4.393 4.394-9.143 6.768-10.607 5.304"/>
         </g>
         <g id="g24" fill="#EA596E" transform="translate(.93750 .93750)">
          <path id="path26" d="m12.188 22.5l-11.798-19.224-0.26438-0.5957 0.01032-0.0094c-0.195-0.3787 0.13125-1.1465 0.79968-1.8159 0.21748-0.2175 0.44248-0.3825 0.66468-0.52219l14.338 17.479-3.75 4.688z"/>
         </g>
         <g id="g28" fill="#A0041E" transform="translate(11.261 11.188)">
          <path id="path30" d="m11.25 11.25c4.378-4.38 6.809-9.0488 5.427-10.43-1.381-1.3806-6.049 1.0494-10.43 5.4275-4.3795 4.3805-6.8095 9.0495-5.4286 10.432 1.3819 1.38 6.0507-1.051 10.432-5.43"/>
         </g>
         <g id="g32" fill="#AA8DD8" transform="translate(14.615 20.991)">
          <path id="path34" d="m3.75 0.9375c-0.1866-0.15094-0.4303-0.22969-0.6881-0.20156-0.8138 0.08812-1.4981 0.37126-1.9772 0.81846-0.5072 0.4734-0.75751 1.1081-0.68908 1.7456 0.12 1.1175 1.2413 2.1431 3.1528 1.9359 0.7435-0.0797 1.0754 0.1594 1.0857 0.2738 0.0131 0.1134-0.2597 0.4181-1.0022 0.4987-0.8147 0.0882-1.4981 0.3713-1.9781 0.8185-0.5072 0.4734-0.75849 1.109-0.68911 1.7456 0.12191 1.1175 1.2422 2.1435 3.1519 1.9355 0.5418-0.058 0.8268 0.055 0.9478 0.127 0.0975 0.059 0.1359 0.115 0.1397 0.147 0.0103 0.114-0.2588 0.418-1.0041 0.499-0.5138 0.056-0.8869 0.517-0.8306 1.033 0.0553 0.515 0.5165 0.887 1.0322 0.831 1.9096-0.206 2.7872-1.446 2.6662-2.564-0.1209-1.1179-1.2412-2.1426-3.1528-1.9363-0.5419 0.0591-0.8259-0.0535-0.9469-0.1256-0.0965-0.0591-0.1359-0.1163-0.1397-0.1472-0.0122-0.1144 0.2588-0.4191 1.0041-0.4997 1.9097-0.2053 2.7872-1.4456 2.6663-2.5641-0.121-1.1175-1.2422-2.1431-3.1519-1.9359-0.5419 0.0581-0.8269-0.0534-0.9488-0.1256-0.0965-0.0591-0.134-0.1163-0.1378-0.1482-0.0122-0.1134 0.2588-0.4181 1.0031-0.4987 0.5138-0.0553 0.8878-0.5175 0.8307-1.0322-0.0272-0.2578-0.1575-0.4791-0.3441-0.63"/>
         </g>
         <g id="g36" fill="#77B255" transform="translate(27.807 1.0712)">
          <path id="path38" d="m1.875 12.188c1.8497 0.522 3.1256-0.303 3.4294-1.386 0.3037-1.082-0.3544-2.4517-2.2022-2.9711-0.7219-0.2025-0.9384-0.5475-0.9094-0.6581 0.0319-0.1106 0.3984-0.2925 1.1184-0.0881 1.8488 0.5194 3.1247-0.3056 3.4285-1.3875 0.3065-1.0828-0.3535-2.4506-2.2031-2.9719-0.721-0.2025-0.9385-0.5484-0.9066-0.6581 0.0309-0.1097 0.3966-0.2906 1.1175-0.0891 0.4978 0.1407 1.0163-0.15 1.1569-0.6478 0.1387-0.49874-0.151-1.0162-0.6506-1.1569-1.8469-0.52028-3.1247 0.30285-3.4304 1.3866-0.3037 1.0819 0.3554 2.4497 2.206 2.9709 0.7209 0.2035 0.9384 0.5475 0.9065 0.6582-0.0309 0.1097-0.3956 0.2925-1.1165 0.09-1.8497-0.5213-3.1256 0.3018-3.4303 1.3856-0.30472 1.0828 0.35434 2.4506 2.205 2.9719 0.719 0.2015 0.9365 0.5484 0.9056 0.6574-0.0319 0.111-0.3956 0.293-1.1175 0.09-0.4988-0.141-1.0153 0.15-1.156 0.648-0.1406 0.498 0.15 1.016 0.6488 1.156"/>
         </g>
         <g id="g40" fill="#AA8DD8" transform="translate(20.626 15.787)">
          <path id="path42" d="m1.875 0c-0.2756 0-0.5475 0.12094-0.7331 0.35156-0.32346 0.405-0.25784 0.99464 0.1462 1.3181 0.2044 0.1641 5.0794 3.9928 11.969 3.0075 0.513-0.0731 0.868-0.5475 0.795-1.0603-0.073-0.5119-0.544-0.8719-1.061-0.795-6.0872 0.8643-10.488-2.5819-10.531-2.6166-0.1734-0.13874-0.3797-0.2053-0.585-0.2053"/>
         </g>
         <g id="g44" fill="#77B255" transform="translate(2.5822 19.688)">
          <path id="path46" d="m3.75 0c-0.0891 0-0.18 0.013125-0.27 0.039375-0.4959 0.14906-0.7772 0.67218-0.6281 1.1681 1.0622 3.5372 2.025 9.1815 0.8419 10.652-0.1332 0.167-0.3319 0.331-0.7894 0.297-0.8803-0.067-0.796-1.923-0.795-1.942 0.0394-0.5166-0.3488-0.9666-0.8644-1.005-0.52406-0.0319-0.9675 0.3488-1.005 0.865-0.0975 1.293 0.30562 3.783 2.5228 3.951 0.99 0.075 1.8122-0.269 2.3934-0.991 2.2229-2.767-0.0337-10.788-0.509-12.368-0.1219-0.40544-0.4941-0.667-0.8972-0.667"/>
         </g>
         <g id="g48" fill="#5C913B" transform="translate(23.438 23.906)">
          <path id="path50" d="m2.8125 1.875c0-0.7762-0.63-1.4062-1.4063-1.4062-0.7762-0.00005-1.4062 0.63-1.4062 1.4062s0.63 1.4062 1.4062 1.4062c0.7763 0 1.4063-0.63 1.4063-1.4062"/>
         </g>
         <g id="g52" fill="#9266CC" transform="translate(.93750 15.938)">
          <path id="path54" d="m3.75 1.875c0-1.035-0.84-1.875-1.875-1.875s-1.875 0.84-1.875 1.875 0.84 1.875 1.875 1.875 1.875-0.84 1.875-1.875"/>
         </g>
         <g id="g56" fill="#5C913B" transform="translate(30 14.531)">
          <path id="path58" d="m2.8125 1.875c0-0.7762-0.63-1.4062-1.4063-1.4062-0.7762-0.00005-1.4062 0.63-1.4062 1.4062s0.63 1.4062 1.4062 1.4062c0.7763 0 1.4063-0.63 1.4063-1.4062"/>
         </g>
         <g id="g60" fill="#5C913B" transform="translate(21.562 3.2812)">
          <path id="path62" d="m2.8125 1.875c0-0.7762-0.63-1.4062-1.4063-1.4062-0.7762-0.00005-1.4062 0.63-1.4062 1.4062s0.63 1.4062 1.4062 1.4062c0.7763 0 1.4063-0.63 1.4063-1.4062"/>
         </g>
         <g id="g64" fill="#FFCC4D" transform="translate(25.312 29.062)">
          <path id="path66" d="m3.75 1.875c0-1.035-0.84-1.875-1.875-1.875s-1.875 0.84-1.875 1.875 0.84 1.875 1.875 1.875 1.875-0.84 1.875-1.875"/>
         </g>
         <g id="g68" fill="#FFCC4D" transform="translate(30 24.844)">
          <path id="path70" d="m2.8125 1.875c0-0.7762-0.63-1.4062-1.4063-1.4062-0.7762-0.00005-1.4062 0.63-1.4062 1.4062s0.63 1.4062 1.4062 1.4062c0.7763 0 1.4063-0.63 1.4063-1.4062"/>
         </g>
         <g id="g72" fill="#FFCC4D" transform="translate(27.188 21.094)">
          <path id="path74" d="m2.8125 1.875c0-0.7762-0.63-1.4062-1.4063-1.4062-0.7762-0.00005-1.4062 0.63-1.4062 1.4062s0.63 1.4062 1.4062 1.4062c0.7763 0 1.4063-0.63 1.4063-1.4062"/>
         </g>
         <g id="g76" fill="#FFCC4D" transform="translate(6.5625 10.781)">
          <path id="path78" d="m2.8125 1.875c0-0.7762-0.63-1.4062-1.4063-1.4062-0.7762-0.00005-1.4062 0.63-1.4062 1.4062s0.63 1.4062 1.4062 1.4062c0.7763 0 1.4063-0.63 1.4063-1.4062"/>
         </g>
        </g>
       </g>
      </g>
     </g>
    </g>
   </g>
  </g>
 </g>
</svg>
