<?xml version="1.0" encoding="UTF-8" standalone="no"?>
<svg xmlns:sketch="http://www.bohemiancoding.com/sketch/ns" xmlns="http://www.w3.org/2000/svg" height="342px" width="400px" version="1.1" xmlns:xlink="http://www.w3.org/1999/xlink" viewBox="0 0 400 342"><!-- Generator: Sketch 3.4 (15575) - http://www.bohemiancoding.com/sketch -->
 <title>Group</title>
 <desc>Created with Sketch.</desc>
 <defs>
  <path id="path-1" d="m0 47.5h47.5v-47.5h-47.5v47.5z"/>
  <path id="path-3" d="m0 39.264h39.583v-39.264h-39.583v39.264z"/>
  <path id="path-5" d="m0 29.688h29.688v-29.688h-29.688v29.688z"/>
  <path id="path-7" d="m0 25.729h25.729v-25.729h-25.729v25.729z"/>
  <path id="path-9" d="m0 17.812h17.812v-17.812h-17.812v17.812z"/>
  <path id="path-11" d="m0 23.75h23.75v-23.75h-23.75v23.75z"/>
  <path id="path-13" d="m0 23.75h23.75v-23.75h-23.75v23.75z"/>
  <path id="path-15" d="m0 19.792h19.792v-19.792h-19.792v19.792z"/>
  <path id="path-17" d="m0 25.729h25.729v-25.729h-25.729v25.729z"/>
  <path id="path-19" d="m0 19.792h19.792v-19.792h-19.792v19.792z"/>
  <path id="path-21" d="m0 27.708h27.708v-27.708h-27.708v27.708z"/>
  <path id="path-23" d="m0 25.729h25.729v-25.729h-25.729v25.729z"/>
 </defs>
 <g id="Marketing-Page" fill-rule="evenodd" sketch:type="MSPage" fill="none">
  <g id="landing" transform="translate(-160 -494)" sketch:type="MSArtboardGroup">
   <g id="Hero" transform="translate(160 149)" sketch:type="MSLayerGroup">
    <g id="Hero-Image-5" transform="translate(0 340)">
     <g id="Group" transform="translate(0 5)">
      <g id="Hero-Image-4-Copy-3" transform="translate(19)">
       <g id="Jack-Copy-+-Mike,-Copy-3" transform="translate(57 1)">
        <g id="Jack-Copy" stroke="#58402C" sketch:type="MSShapeGroup">
         <path id="Oval-483" stroke-width=".5" fill="#FFE7D2" d="m32.5 35c0.37 0 0.703-0.149 1-0.5 0.59-0.696 1.5-2.031 1.5-3.5 0-0.54 0.097-1.53 0-2-0.3-1.453-1.165-2-2-2-1.105 0-2 1.791-2 4s0.395 4 1.5 4z"/>
         <path id="Oval-483-Copy" stroke-width=".5" fill="#FFE7D2" d="m3.5 35c1.1046 0 2-1.791 2-4s-0.8954-4-2-4-3 1.791-3 4 1.8954 4 3 4z"/>
         <path id="Oval-482" stroke-width=".5" fill="#FFE7D2" d="m6.5 42.5c1.2908 1.611 3.1257 2.559 5 3.5 2.089 1.049 4.261 2 6.5 2 2.293 0 5.556-1.396 7.5-2.5 2.384-1.354 3.263-3.106 4.5-5.5 1.399-2.705 3-6.186 3-10 0-2.905-0.153-5.725 0-9 0.112-2.402 0.458-4.801 0-7-0.758-3.636-2.581-7.0665-7.5-8.5-1.931-0.5627-4.648-0.5-7.5-0.5-1.984 0-3.985 0.2582-5.5 0.5-8.4436 1.3479-9.8062 6.098-10 12-0.0488 1.486-0.6184 3.475-0.5 5 0.1985 2.557 1 5.236 1 7.5 0 4.843 0.9074 9.265 3.5 12.5z"/>
         <path id="Rectangle-798-Copy-3" stroke-width=".5" fill="#9C785A" d="m1.5361 23.148c-0.1078-0.435-1-2.281-1-2.5 0-0.226-0.08123-0.683 0-1 0.14992-0.585 0.5063-1.08 0.5-1.5-0.0211-1.415 0.1301-2.61 0-3-0.5-1.5 0-2.67 0-4 0-2.3081 0.5039-4.0002 1.0039-4.5002s2.003-3.1534 4.5-5c3.169-2.3436 8.241-1.5 11.246-1.5 0.917 0.00001 5.25 0.00001 6.25 0.00001 0.427 0 4.696 0.88809 6 1.5 1.75 0.8211 2 4.5 3.5 6s1.5 4.0002 1 6.0002c-0.218 0.871 0 4.5-0.5 6.5-0.073 0.293-1 5.5-1 5.5s-0.506-1.295-0.5-3.5c0.002-0.807-0.014-3.004 0-3.5 0.116-4.011 0-6 0-6s-2.033 2.367-4 2.5c-3 0.203-3.223-1.64-5-1.5-1.144 0.09-1.834-1.203-3-1-4.332 0.754-5 3.5-11 3.5-5.9999 0-3.763-2.553-4.9999-1-0.231 0.29-1.3657-0.934-1.5-0.5-0.8005 2.586 0 8.364 0 11 0 0.012 1.513 5.137 2 5.5 0.6482 0.483 1.1472 2.137 2.0039 2.5 0.234 0.099 3.014 0.753 4 1 2 0.5 2.618-0.204 3.996 0s2.316 0.492 2.75 0.5c1.347 0.023 2.62-0.247 4.75-0.5 2.13-0.254 3.305-0.255 4.504-0.5 0.844-0.173 3.5-1 4.5-3s1.465-6.186 1.496-6c0.062 0.37 1 4.5 0.5 6.5s-0.383 3.42-0.5 5c-0.064 0.87-0.34 1.5-0.34 2.586 0 1.085-0.483 2.285-0.66 2.914-0.27 0.962-0.5 2-0.982 2.606-0.195 0.245-0.988 1.848-2.018 2.894-1.518 1.542-3.556 2.674-5 3-1.161 0.262-2.887 0.986-5.5 1-2.079 0.011-5.023-0.602-6.5-1-1.755-0.473-3.0426-0.769-3.9999-1.5-1.8536-1.416-2.5417-3.51-3.5-5-1.4531-2.261-0.63-3.418-1.5-7.5-0.2775-1.303 0.0483-4.191 0-6.5-0.033-1.577-0.4637-3.002-0.5-3-0.2084 0.013-0.8616-3.442-1-4z"/>
         <path id="Rectangle-806-Copy" stroke-width=".5" fill="#fff" d="m13.009 37.25h9c1 0 1.17 1.48 0 2.714-1.17 1.235-2.25 2.036-4.5 2.036s-4-1.357-4.5-2.036c-0.5-0.678-1-2.714 0-2.714z" transform="translate(17.628 39.625) rotate(180) translate(-17.628 -39.625)"/>
         <path id="Rectangle-792" stroke-width=".5" fill="#FFE7D2" d="m12.25 23.25h9s1.5 0 1.5 4-1.5 4-1.5 4h-9" transform="translate(17.5 27.25) rotate(90) translate(-17.5 -27.25)"/>
         <path id="Oval-485" stroke-width=".5" fill="#58402C" d="m9.5 27c0.5 0 0.5-0.448 0.5-1 0-1-0.7222-1-1-1-0.5523 0-1 0.5-1 1s-0.5 1 1.5 1z"/>
         <path id="Oval-485-Copy" stroke-width=".5" fill="#58402C" d="m26.5 27c0.552 0 0.5-0.448 0.5-1s-0.448-1-1-1-1 0.448-1 1c0 1.5 0.948 1 1.5 1z"/>
         <path id="Line" stroke-width="1.5" stroke-linecap="round" d="m24 20s1.517 0.732 2.5 1c0.851 0.232 2.5 1 2.5 1"/>
         <path id="Line-Copy-67" stroke-width="1.5" stroke-linecap="round" d="m6.5 21.5s0.6282-0.043 2-0.5 2.5-1 2.5-1"/>
        </g>
        <text id="Mike" font-size="12" font-family="Harmonia Sans Pro Cyr" sketch:type="MSTextLayer" line-spacing="18" sketch:alignment="middle">
         <tspan y="70.8760049" x="5.826" fill="#58402C">Mike</tspan>
         <tspan y="91.2760097" x="8.04" font-size="10" line-spacing="15" fill="#BDB5AF">CTO</tspan>
        </text>
       </g>
       <g id="Jack-Copy-2-+-Jake," transform="translate(341 223)">
        <g id="Jack-Copy-2" sketch:type="MSShapeGroup" transform="translate(1)">
         <path id="Oval-483" stroke="#58402C" stroke-width=".5" fill="#FFE7D2" d="m32.5 35c0.37 0 0.703-0.149 1-0.5 0.59-0.696 1-1 1.5-3.5s-1.165-4-2-4c-1.105 0-2 1.791-2 4s0.395 4 1.5 4z"/>
         <path id="Oval-483-Copy" stroke="#58402C" stroke-width=".5" fill="#FFE7D2" d="m3.5 35c1.1046 0 2-1.791 2-4s-0.8954-4-2-4c-0.7249 0-2.0012 0.845-2.5 2-0.2613 0.605 0 1.241 0 2 0 2.209 1.3954 4 2.5 4z"/>
         <path id="Oval-482" stroke="#58402C" stroke-width=".5" fill="#FFE7D2" d="m5.5 35c0.4827 2.842-0.6591 5.43 1 7.5 1.2908 1.611 3.1257 2.559 5 3.5 2.089 1.049 4.261 2 6.5 2 2.293 0 5.556-1.396 7.5-2.5 2.384-1.354 3.263-3.106 4.5-5.5 1.043-2.019-0.02-4.302 0.5-7 0.177-0.918 1.5-0.532 1.5-1.5 0-1.576 0.747-3.484 1-5.5 0.213-1.7-0.07-3.502 0-5 0.112-2.402 0.458-4.801 0-7-0.758-3.636-2.581-7.0665-7.5-8.5-1.931-0.5627-4.648-0.5-7.5-0.5-1.984 0-3.985 0.2582-5.5 0.5-8.4436 1.3479-9.8062 6.098-10 12-0.0488 1.486-0.6184 3.475-0.5 5 0.1985 2.557 1 5.236 1 7.5 0 1.744 2.2284 3.401 2.5 5z"/>
         <path id="Rectangle-798" stroke="#58402C" stroke-width=".5" fill="#FFAF6C" d="m2.4961 14.5c-0.5-1.5 0-2.17 0-3.5 0-2.308 0.5039-7 1.0039-7.5s0.503 0.3466 3-1.5c3.169-2.3436 8.241-1.5 11.246-1.5h6.25c0.427 0 4.696 0.8881 6 1.5 1.75 0.8211 1.16 4 2.66 5.5s0.34 18.5 0.34 18.5-0.505-1.295-0.5-3.5c0.002-0.807-0.014-3.004 0-3.5 0.027-0.936 0.154-1.784 0.16-2.5 0.021-2.353-0.16-3.5-0.16-3.5s0.471-1.633-1.496-1.5c-3 0.203-0.223-2.1399-2-2-1.144 0.0901-2.334-1.2031-3.5-1-4.332 0.7542-1.754 0.5-7.754 0.5s-10.509-0.0527-11.746 1.5c-0.231 0.29-2.8696 4.066-3.0039 4.5-0.4843 1.565-1.152 4.501-0.9961 7 0.1018 1.631 0.9961 2.959 0.9961 4 0 0.013 1.513 5.137 2 5.5 0.6482 0.483 2.1434 1.137 3 1.5 0.234 0.099-1.0259 0.468 2.9999 1.5 3.512 0.9 2.622 0.296 4 0.5s2.316 0.493 2.75 0.5c1.347 0.023 2.62-0.247 4.75-0.5s2.801-1.254 4-1.5c0.845-0.173 2.5-1.5 3.5-3.5s2.969-4.685 3-4.5c0.062 0.37 0 4.5-0.5 6.5s-0.379 2.42-0.496 4c-0.065 0.87-0.5 0.914-0.5 2s-1.022 4.894-1.504 5.5c-0.195 0.245 0.034 0.56-0.996 1.606-1.518 1.542-3.056 2.568-4.5 2.894-1.161 0.262-3.387 1.986-6 2-2.079 0.011-5.023-1.102-6.5-1.5-1.755-0.473-3.0466-1.269-4.0039-2-1.8536-1.416-0.5378 0.096-1.4961-1.394-1.4531-2.261-1.1338-2.523-2.0039-6.606-0.2775-1.302-1.4517-5.691-1.5-8-0.0329-1.577-0.4636-3.002-0.5-3-0.2083 0.013 0.1301-12.61 0-13z"/>
         <path id="Rectangle-806-Copy-2" stroke="#58402C" stroke-width=".5" fill="#fff" d="m21.5 38.5c1 0 1.67 0.265 0.5 1.5s-6.75-1.5-9-1.5h8.5z"/>
         <path id="Rectangle-792" d="m12.498 25.502h6c0.612 0 0.5-1.5 2-1.5h0.5s1.123 0.598 1.5 1c0.579 0.614 0.5 1.256 0.5 2.415 0 1.915-1 3.085-2.5 3.085s-1.295-1.17-2-1.17h-6" transform="translate(17.75 27.252) rotate(90) translate(-17.75 -27.252)" stroke="#58402C" stroke-width=".5" fill="#FFE7D2"/>
         <path id="Oval-485" stroke="#58402C" stroke-width=".5" fill="#58402C" d="m9.5 27c0.5 0 0.5-0.448 0.5-1 0-1-0.7222-1-1-1-0.5523 0-1 0.5-1 1s-0.5 1 1.5 1z"/>
         <path id="Oval-485-Copy" stroke="#58402C" stroke-width=".5" fill="#58402C" d="m26.5 27c0.552 0 0.5-0.448 0.5-1s-0.448-1-1-1-1 0.448-1 1c0 1.5 0.948 1 1.5 1z"/>
         <path id="Line" d="m24 19s1.517 0.732 2.5 1c0.851 0.232 2.5 1 2.5 1" transform="translate(26.5 20) rotate(-18) translate(-26.5 -20)" stroke="#FFAF6C" stroke-linecap="round" stroke-width="1.5"/>
         <path id="Line-Copy-67" d="m6.5 20.5s0.6282-0.043 2-0.5 2.5-1 2.5-1" transform="translate(8.75 19.75) rotate(18) translate(-8.75 -19.75)" stroke="#FFAF6C" stroke-linecap="round" stroke-width="1.5"/>
         <circle id="Oval-504" cy="28.5" cx="6.5" fill="#FFAF6C"/>
         <circle id="Oval-504-Copy" cy="29.5" cx="11.5" fill="#FFAF6C"/>
         <circle id="Oval-504-Copy-3" cy="29.5" cx="24.5" fill="#FFAF6C"/>
         <circle id="Oval-504-Copy-4" cy="28.5" cx="27.5" fill="#FFAF6C"/>
         <circle id="Oval-504-Copy-5" cy="31.5" cx="26.5" fill="#FFAF6C"/>
         <circle id="Oval-504-Copy-2" cy="30.5" cx="8.5" fill="#FFAF6C"/>
        </g>
        <text id="Jake" font-size="12" font-family="Harmonia Sans Pro Cyr" sketch:type="MSTextLayer" line-spacing="18" sketch:alignment="middle">
         <tspan y="70.3760049" x="8.306" fill="#58402C">Jake</tspan>
         <tspan y="90.7760097" x="0.285" font-size="10" line-spacing="15" fill="#BDB5AF">Designer</tspan>
        </text>
       </g>
       <g id="Jack-Copy-3-+-Emmet," transform="translate(0 74)">
        <g id="Jack-Copy-3" stroke="#58402C" sketch:type="MSShapeGroup" transform="translate(2)">
         <path id="Oval-483" stroke-width=".5" fill="#B49982" d="m32.5 31c0.37 0 0.703-0.149 1-0.5 0.59-0.696 1.5-2.031 1.5-3.5 0-0.54 0.597-2.53 0.5-3-0.3-1.453-2.665-1.5-3.5-1.5-1.105 0-1 2.291-1 4.5s0.395 4 1.5 4z"/>
         <path id="Oval-483-Copy" stroke-width=".5" fill="#B49982" d="m3.5 31c1.1046 0 2-1.791 2-4s-0.8954-5-2-5c-0.529 0-2.4033 0.329-3 1-0.64926 0.73 0 2.849 0 4 0 2.209 1.8954 4 3 4z"/>
         <path id="Oval-482" stroke-width=".5" fill="#B49982" d="m3 31c0.4827 2.842 1.8409 5.43 3.5 7.5 1.2908 1.611 3.1257 2.559 5 3.5 2.089 1.049 4.261 2 6.5 2 2.293 0 5.556-1.396 7.5-2.5 2.384-1.354 3.263-3.106 4.5-5.5 1.043-2.019 1.48-3.302 2-6 0.177-0.918 0.5-2.032 0.5-3 0-1.576 0.247-2.984 0.5-5 0.213-1.7-0.07-3.502 0-5 0.112-2.402 0.458-4.801 0-7-0.758-3.636-2.581-7.0665-7.5-8.5-1.931-0.56272-4.648-0.5-7.5-0.5-1.984 0-3.985 0.2582-5.5 0.5-8.4436 1.3479-9.8062 6.0976-10 12-0.0488 1.486-0.6184 3.475-0.5 5 0.1985 2.557 1 5.236 1 7.5 0 1.744-0.2716 3.401 0 5z"/>
         <path id="Line-Copy-71" opacity=".40374" stroke-width=".5" stroke-linecap="round" d="m8 28.5v11.3"/>
         <path id="Line-Copy-72" opacity=".40374" stroke-width=".5" stroke-linecap="round" d="m7 28.5v10.5"/>
         <path id="Line-Copy-87" opacity=".40374" stroke-width=".5" stroke-linecap="round" d="m6 27.999v9.801"/>
         <path id="Line-Copy-88" opacity=".40374" stroke-width=".5" stroke-linecap="round" d="m5 28v8.3"/>
         <path id="Line-Copy-105" opacity=".40374" stroke-width=".5" stroke-linecap="round" d="m4 27v7.3"/>
         <path id="Line-Copy-128" opacity=".40374" stroke-width=".5" stroke-linecap="round" d="m3 26v4.8"/>
         <path id="Line-Copy-86" opacity=".40374" stroke-width=".5" stroke-linecap="round" d="m9 29v11.5"/>
         <path id="Line-Copy-89" opacity=".40374" stroke-width=".5" stroke-linecap="round" d="m10 29v12"/>
         <path id="Line-Copy-106" opacity=".40374" stroke-width=".5" stroke-linecap="round" d="m11 29v12.6"/>
         <path id="Line-Copy-107" opacity=".40374" stroke-width=".5" stroke-linecap="round" d="m12 29v13"/>
         <path id="Line-Copy-108" opacity=".40374" stroke-width=".5" stroke-linecap="round" d="m13 29v13.5"/>
         <path id="Line-Copy-109" opacity=".40374" stroke-width=".5" stroke-linecap="round" d="m14 29v14"/>
         <path id="Line-Copy-110" opacity=".40374" stroke-width=".5" stroke-linecap="round" d="m15 29v14.4"/>
         <path id="Line-Copy-111" opacity=".40374" stroke-width=".5" stroke-linecap="round" d="m16 29v14.5"/>
         <path id="Line-Copy-112" opacity=".40374" stroke-width=".5" stroke-linecap="round" d="m17 29v14.8"/>
         <path id="Line-Copy-113" opacity=".40374" stroke-width=".5" stroke-linecap="round" d="m18 29v15"/>
         <path id="Line-Copy-114" opacity=".40374" stroke-width=".5" stroke-linecap="round" d="m19 29v14.8"/>
         <path id="Line-Copy-115" opacity=".40374" stroke-width=".5" stroke-linecap="round" d="m20 29v14.7"/>
         <path id="Line-Copy-116" opacity=".40374" stroke-width=".5" stroke-linecap="round" d="m21 29v14.2"/>
         <path id="Line-Copy-117" opacity=".40374" stroke-width=".5" stroke-linecap="round" d="m22 29v14"/>
         <path id="Line-Copy-118" opacity=".40374" stroke-width=".5" stroke-linecap="round" d="m23 29v13.6"/>
         <path id="Line-Copy-119" opacity=".40374" stroke-width=".5" stroke-linecap="round" d="m24 29v13"/>
         <path id="Line-Copy-120" opacity=".40374" stroke-width=".5" stroke-linecap="round" d="m25 29v12.5"/>
         <path id="Line-Copy-121" opacity=".40374" stroke-width=".5" stroke-linecap="round" d="m26 28.5v12.5"/>
         <path id="Line-Copy-122" opacity=".40374" stroke-width=".5" stroke-linecap="round" d="m27 28v12.3"/>
         <path id="Line-Copy-123" opacity=".40374" stroke-width=".5" stroke-linecap="round" d="m28 28v11.4"/>
         <path id="Line-Copy-124" opacity=".40374" stroke-width=".5" stroke-linecap="round" d="m29 28v9.7"/>
         <path id="Line-Copy-125" opacity=".40374" stroke-width=".5" stroke-linecap="round" d="m30 28v8"/>
         <path id="Line-Copy-126" opacity=".40374" stroke-width=".5" stroke-linecap="round" d="m31 27v6.8"/>
         <path id="Line-Copy-127" opacity=".40374" stroke-width=".5" stroke-linecap="round" d="m32 26v3.8"/>
         <path id="Rectangle-806-Copy" stroke-width=".5" fill="#fff" d="m13.009 32.433h9c1 0 1.17 0.877 0 1.61-1.17 0.732-2.25 1.207-4.5 1.207s-4-0.805-4.5-1.207c-0.5-0.403-1-1.61 0-1.61z" transform="translate(17.628 33.841) scale(1 -1) translate(-17.628 -33.841)"/>
         <path id="Rectangle-792" stroke-width=".5" fill="#B49982" d="m12.25 20.75s4.445 0.343 6.5 0c0.945-0.157 1.5-1.5 2.5-1.5s1.5 0 1.5 4-0.5 4-1.5 4-1.997-1.416-2.5-1.5c-2.497-0.416-6.5 0-6.5 0" transform="translate(17.5 23.25) rotate(90) translate(-17.5 -23.25)"/>
         <path id="Oval-485" stroke-width=".5" fill="#58402C" d="m9.5 23c0.5 0 0.5-0.448 0.5-1 0-1-0.7222-1-1-1-0.5523 0-1 0.5-1 1s-0.5 1 1.5 1z"/>
         <path id="Oval-485-Copy" stroke-width=".5" fill="#58402C" d="m26.5 23c0.552 0 0.5-0.448 0.5-1s-0.448-1-1-1-1 0.448-1 1c0 1.5 0.948 1 1.5 1z"/>
         <path id="Line" stroke-width="1.5" stroke-linecap="round" d="m24 15s1.517 0.732 2.5 1c0.851 0.232 2.5 1 2.5 1" transform="translate(26.5 16) rotate(-18) translate(-26.5 -16)"/>
         <path id="Line-Copy-67" stroke-width="1.5" stroke-linecap="round" d="m6.5 16.5s0.6282-0.043 2-0.5 2.5-1 2.5-1" transform="translate(8.75 15.75) rotate(18) translate(-8.75 -15.75)"/>
        </g>
        <text id="Emmet" font-size="12" font-family="Harmonia Sans Pro Cyr" sketch:type="MSTextLayer" line-spacing="18" sketch:alignment="middle">
         <tspan y="66" x="1.37" fill="#58402C">Emmet</tspan>
         <tspan y="86.4000049" x="0.555" font-size="10" line-spacing="15" fill="#BDB5AF">Engineer</tspan>
        </text>
       </g>
       <g id="Bill-+-Emmet," transform="translate(55 241)">
        <g id="Bill" sketch:type="MSShapeGroup">
         <path id="Oval-483" stroke="#58402C" stroke-width=".5" fill="#FFE7D2" d="m31 34c1.022 0.5 1.536-1.571 2-2.5 0.178-0.356 1.062-4.197 1-4.5-0.3-1.453-1.144-2-1.978-2-1.105 0-2.022 3.791-2.022 6s-0.022 2.5 1 3z"/>
         <path id="Oval-483-Copy" stroke="#58402C" stroke-width=".5" fill="#FFE7D2" d="m4 34c1.1046 0 2-1.791 2-4s-0.8954-5-2-5-3-0.209-3 2 1.8954 7 3 7z"/>
         <path id="Oval-482" stroke="#58402C" stroke-width=".5" fill="#FFE7D2" d="m6 36.5c1.0871 2.556 1.4809 5.104 3 7 1.291 1.611 3 5.366 9 5.5s9.263-6.606 10.5-9c1.399-2.705 2-4 3-8.5 0.617-2.778 1.347-6.225 1.5-9.5 0.112-2.402 0.458-4.801 0-7-0.758-3.636-2.581-7.0665-7.5-8.5-1.931-0.5627-4.648-0.5-7.5-0.5-1.984 0-3.985 0.2582-5.5 0.5-8.4436 1.3479-9.8062 6.098-10 12-0.0488 1.486-0.6184 3.475-0.5 5 0.1985 2.557 1.5 5.236 1.5 7.5 0 2.005 1.7318 3.693 2.5 5.5z"/>
         <path id="Rectangle-798" stroke="#58402C" stroke-width=".5" fill="#F2E85C" d="m1 19.5c-0.02113-1.415 0.1301-2.61 0-3-0.5-1.5 0-2.67 0-4 0-1.447 3.5684-6.311 4.5-7 0.0785-0.0581 0.7049-1.7594 2.5-2.5 2.931-1.2092 8.168-1.6492 9-1.5 1.227 0.2201 3.287 0.5098 4.5 0 4.001-1.6811 9.535 0.8511 10.5 1 0.486 0.0749 1.864 0.5703 1.5 1-0.293 0.3455-0.894 4.6059 0 5.5 1.073 1.073 0.564 8.643 0.5 13.5-0.026 1.931-0.5 3.5-0.5 3.5l-1-0.5s-0.004-0.312 0-2c0.002-0.807-0.014-3.004 0-3.5 0.116-4.011 0-6 0-6s-2.334-0.74-3.5-0.537c-4.332 0.754-13-1.963-19-1.963s-4.2631 3.447-5.5 5c-0.231 0.29-1.3657-0.934-1.5-0.5-0.8005 2.586-0.5 6.864-0.5 9.5 0 0.071-0.2405 0.019-0.5 0-0.2397-0.018-0.5 0-0.5 0s-0.4937-5.579-0.5-6z"/>
         <path id="Rectangle-792" d="m12.25 27.25l9-2s1.5 0 1.5 3-1.5 3-1.5 3l-9-2" transform="translate(17.5 28.25) rotate(90) translate(-17.5 -28.25)" stroke="#58402C" stroke-width=".5" fill="#FFE7D2"/>
         <path id="Line" stroke="#58402C" stroke-width=".5" stroke-linecap="round" d="m14.5 24s1-1 3-1 3 1 3 1"/>
         <path id="Line-Copy-81" stroke="#58402C" stroke-width=".5" stroke-linecap="round" d="m2.5 25h4.5"/>
         <path id="Line-Copy-82" stroke="#58402C" stroke-width=".5" stroke-linecap="round" d="m27 25h5.5"/>
         <circle id="Oval-492" r="4" cy="25.499" stroke="#58402C" cx="11" stroke-width=".5" fill="#FFE7D2"/>
         <circle id="Oval-492-Copy" r="4" cy="25.499" stroke="#58402C" cx="24" stroke-width=".5" fill="#FFE7D2"/>
         <path id="Oval-485" stroke="#58402C" stroke-width=".5" fill="#58402C" d="m11.5 27c0.5 0 0.5-0.448 0.5-1 0-1-0.722-1-1-1-0.552 0-1 0.5-1 1s-0.5 1 1.5 1z"/>
         <path id="Oval-485-Copy" stroke="#58402C" stroke-width=".5" fill="#58402C" d="m24.5 27c0.552 0 0.5-0.448 0.5-1s-0.448-1-1-1-1 0.448-1 1c0 1.5 0.948 1 1.5 1z"/>
         <path id="Line" stroke="#B49982" stroke-width="1.5" stroke-linecap="round" d="m21.5 20.5s1.482-0.5 2.5-0.5c0.649 0 2.5 0.5 2.5 0.5"/>
         <path id="Line-Copy-67" stroke="#B49982" stroke-width="1.5" stroke-linecap="round" d="m8.5 20.5s0.982-0.5 2-0.5h1c0.649 0 1.5 0.5 1.5 0.5"/>
         <path id="Rectangle-806" d="m13 38.5h9c1 0 1.17 0.623 0 1.143s-2.25 0.857-4.5 0.857-4-0.571-4.5-0.857-1-1.143 0-1.143z" transform="translate(17.619 39.5) scale(1 -1) translate(-17.619 -39.5)" stroke="#58402C" stroke-width=".5" fill="#fff"/>
         <path id="Line-Copy-69" d="m16.5 44.25h3" transform="translate(18 44.25) rotate(180) translate(-18 -44.25)" stroke="#58402C" stroke-linecap="round" stroke-width=".5"/>
        </g>
        <text id="Sam" font-size="12" font-family="Harmonia Sans Pro Cyr" sketch:type="MSTextLayer" line-spacing="18" sketch:alignment="middle">
         <tspan y="71" x="7.428" fill="#58402C">Sam</tspan>
         <tspan y="91.4000049" x="7.795" font-size="10" line-spacing="15" fill="#BDB5AF">Sales</tspan>
        </text>
       </g>
       <path id="Line-Copy-79" d="m240.5 41.5s18.38 6.351 31 16.5 20 24.5 20 24.5" sketch:type="MSShapeGroup" stroke="#BDB5AF" stroke-linecap="round" stroke-dasharray="3"/>
       <path id="Line-Copy-80" d="m110.28 30.598s14.44 16.995 33.69 24.647 37.38 4.259 37.38 4.259" sketch:type="MSShapeGroup" transform="translate(145.81 45.426) rotate(150) translate(-145.81 -45.426)" stroke="#BDB5AF" stroke-linecap="round" stroke-dasharray="3"/>
       <path id="Line-Copy-90" d="m8.1624 51.194c19.254 7.652 42.713-9.98 42.713-9.98" sketch:type="MSShapeGroup" transform="translate(29.519 47.167) rotate(150) translate(-29.519 -47.167)" stroke="#BDB5AF" stroke-linecap="round" stroke-dasharray="3"/>
       <path id="Line-Copy-85" d="m182.24 136.65s14.44 17 33.69 24.65c19.26 7.65 37.38 4.26 37.38 4.26" sketch:type="MSShapeGroup" transform="translate(217.78 151.48) rotate(-90) translate(-217.78 -151.48)" stroke="#BDB5AF" stroke-linecap="round" stroke-dasharray="3"/>
       <path id="Line-Copy-95" d="m93.545 300.59s9.155-10.35 13.525-1.83c4.36 8.52 15.95 6.57 15.95 6.57" sketch:type="MSShapeGroup" transform="translate(108.28 300.46) rotate(-7) translate(-108.28 -300.46)" stroke="#BDB5AF" stroke-linecap="round" stroke-dasharray="3"/>
       <g id="Anna-Copy-+-Jessica," transform="translate(195)">
        <g id="Anna-Copy" stroke="#58402C" sketch:type="MSShapeGroup">
         <path id="Rectangle-798-Copy-2" stroke-width=".5" fill="#F2E85C" d="m21.5 37s-17.152-7.652-17.5-8c-2-2-2.4393-4.318-2.5-4.5-0.5-1.5 0.7728-6.67 0.7728-8 0-1.447 0.7956-1.811 1.7272-2.5 0.0529-0.039-0.2508-2.144 5-6 1.347-0.9895-1.5-8 11.5-8 8.997 1.0025e-8 7.735 7.5381 9.5 8 5.86 1.5335 4.328 4.556 4.773 5 0.507 0.507 1.831 5.354 1.727 8.5-0.115 3.508-1.693 5.439-1.727 8-0.009 0.668-13.273 7.5-13.273 7.5z"/>
         <path id="Oval-524" stroke-width=".5" fill="#FFE7D2" d="m33.5 39.5c1.105 0 4.5-3.186 4.5-6.5s-3-4.5-4-4.5 0 2.186 0 5.5-1.605 5.5-0.5 5.5z"/>
         <path id="Oval-524-Copy" stroke-width=".5" fill="#FFE7D2" d="m0.98802 39.5c1.1046 0 4.5-3.186 4.5-6.5s-3-4.5-4-4.5c-0.99998 0 0 2.186 0 5.5s-1.6046 5.5-0.49998 5.5z" transform="translate(3.044 34) scale(-1 1) translate(-3.044 -34)"/>
         <path id="Oval-520-Copy" stroke-width=".5" fill="#FFE7D2" d="m4 29.5c-0.2871 1.142-0.0837 3.287 0 4.5 0.1637 2.372 0.6788 4.912 1 6 1.2088 4.093 3.4125 7.862 6 10.5 2.636 2.688 4.495 4.5 8 4.5 3.925 0 7.716-3.701 10.5-7 1.612-1.91 2.341-3.506 3.5-6 1.346-2.895 2-5.79 2-9.5 0-1.83 0.161-6.122-1.5-7.5-1.781-1.477-1.5-10-5.5-10h-4.5c-1.738 0-9.479 5.671-12 6.5-4.039 1.328-3.4959 4.709-5.5 6-0.8455 0.545-1.6871 0.756-2 2z"/>
         <path id="Line" stroke-width=".5" stroke-linecap="round" d="m19.5 30s-0.156 2.143 0 3c0.178 0.976 1 2.5 1 2.5"/>
         <path id="Oval-521" stroke-width=".5" fill="#FF5149" d="m19 46c2.437 0 5-1.5 5-1.5s-2.239-1-5-1-4.5 1-4.5 1 2.063 1.5 4.5 1.5z"/>
         <path id="Line-Copy-70" stroke-width=".5" stroke-linecap="round" d="m13.5 44.5h11.5"/>
         <path id="Line-Copy-74" stroke-width=".5" stroke-linecap="round" d="m18 37.5s0.625 0.5 1.25 0.5 1.25-0.5 1.25-0.5"/>
         <path id="Line-Copy-77" stroke-width=".5" stroke-linecap="round" d="m20.715 37.215s0.07 0.5 0.535 0.5 0.535-0.5 0.535-0.5" transform="translate(21.25 37.465) rotate(-90) translate(-21.25 -37.465)"/>
         <path id="Line-Copy-78" stroke-width=".5" stroke-linecap="round" d="m16.715 37.215s0.07 0.5 0.535 0.5 0.535-0.5 0.535-0.5" transform="translate(17.25 37.465) rotate(90) translate(-17.25 -37.465)"/>
         <path id="Rectangle-840" fill="#58402C" d="m23.227 26.906c-0.126-0.5 0.196-0.918 0.712-0.93 0 0 4.864-0.147 6.061 0.024s-0.347 0.255-2.5 0.917c-2.153 0.663-3.084 0.86-3.084 0.86-0.506 0.123-1.017-0.182-1.143-0.683l-0.046-0.188z" transform="translate(26.809 26.861) rotate(-17) translate(-26.809 -26.861)"/>
         <path id="Rectangle-840-Copy" fill="#58402C" d="m7.0086 26.906c-0.1251-0.5 0.1961-0.918 0.7121-0.93 0 0 4.8643-0.147 6.0613 0.024s-0.347 0.255-2.5 0.917c-2.1527 0.663-3.0838 0.86-3.0838 0.86-0.506 0.123-1.0174-0.182-1.1428-0.683l-0.0468-0.188z" transform="translate(10.591 26.861) scale(-1 1) rotate(-12) translate(-10.591 -26.861)"/>
         <circle id="Oval-522" r="1" cy="31" cx="10" stroke-width=".5" fill="#9BADE3"/>
         <circle id="Oval-522-Copy" r="1" cy="31" cx="27" stroke-width=".5" fill="#9BADE3"/>
         <path id="Line-Copy-73" stroke-width=".5" stroke-linecap="round" d="m18 50h1.5"/>
        </g>
        <text id="Jessica" font-size="12" font-family="Harmonia Sans Pro Cyr" sketch:type="MSTextLayer" line-spacing="18" sketch:alignment="middle">
         <tspan y="74.8760049" x="2.346" fill="#58402C">Jessica</tspan>
         <tspan y="95.2760097" x="10.57" font-size="10" line-spacing="15" fill="#BDB5AF">CEO</tspan>
        </text>
       </g>
       <g id="Anna-+-Sarah," transform="translate(144 124)">
        <g id="Anna" stroke="#58402C" stroke-width=".5" sketch:type="MSShapeGroup">
         <path id="Rectangle-798-Copy-2" fill="#58402C" d="m16.5 48c-0.931-0.192-3.043-0.847-4-1-1.058-0.169-2.475 1.18-3.5 1-2.3821-0.418-4.8398 0.949-6.5 0-2.4587-1.405-2.1388-6.774-1-16 0.1507-1.221 0.4045-5.079 0.5-6.083 0.2062-2.168-0.5571-2.327-0.5-2.917 0.2481-2.565 2.0607-7.818 2-8-0.5-1.5 2.7728-3.17 2.7728-4.5 0-1.4469 0.7956-1.811 1.7272-2.5 0.0785-0.0581 0.1884-5.0965 9-7 8.812-1.9035 10.235 0.0381 12 0.5 5.86 1.5335 9.328 5.0555 9.773 5.5 1.073 1.0732 4.291 6.643 4.227 11.5-0.009 0.668 1.817 11.763 1 15.5-0.222 1.015-0.082 2.954 0.088 5.055 0.295 3.658 0.682 7.81-0.588 8.445-2 1-2.919 1.286-4.727 0.5-1.416-0.615-3.603-0.089-5.273-0.5-1.079-0.266-2.563 0.575-3.5 0.5-1.634-0.131-3 0.5-3 0.5s-4.76 0.682-10.5-0.5z"/>
         <path id="Oval-524" fill="#9C785A" d="m37.5 33.5c1.105 0 4.5-3.186 4.5-6.5s-3-4.5-4-4.5 0 2.186 0 5.5-1.605 5.5-0.5 5.5z"/>
         <path id="Oval-520-Copy" fill="#9C785A" d="m8 34.5c1.2088 4.093 3.412 6.862 6 9.5 2.636 2.688 5.495 5 9 5 3.925 0 6.716-2.201 9.5-5.5 1.612-1.91 3.341-3.506 4.5-6 1.346-2.895 2-7.79 2-11.5 0-1.83 0.091-3.495-0.5-4.5-1.364-2.322-5.339-0.622-7-2-2.505-2.078-2.385-7.5-7-7.5-4.522 0-7.245 7.403-10.5 9.5-2.348 1.513-4.2386 4.937-5.5 6.5-0.47 0.582-1.1645 4.25-0.5 6.5z"/>
         <path id="Line" stroke-linecap="round" d="m24.5 23.5v6"/>
         <path id="Oval-521" fill="#FFCDCA" d="m23 40.5c4 0 4.5-1.5 4.5-1.5s-1.739-2.5-4.5-2.5-4.5 2-4.5 2 0.5 2 4.5 2z"/>
         <path id="Line-Copy-70" stroke-linecap="round" d="m16.5 37.998s2.73 1.381 6 1.494 6.5-0.997 6.5-0.997" transform="translate(22.75 38.749) rotate(180) translate(-22.75 -38.749)"/>
         <path id="Line-Copy-74" stroke-linecap="round" d="m20.5 33.5s1 0.5 2 0.5 2-0.5 2-0.5"/>
         <path id="Line-Copy-75" stroke-linecap="round" d="m27.476 19.413c1.984 0.104 3.035-0.842 3.035-0.842" transform="translate(28.993 18.996) rotate(177) translate(-28.993 -18.996)"/>
         <path id="Line-Copy-76" stroke-linecap="round" d="m17.017 18.485s0.473 0.648 0.972 0.648" transform="translate(17.503 18.809) rotate(177) translate(-17.503 -18.809)"/>
         <circle id="Oval-522" cy="25" cx="14" r="1" fill="#9BADE3"/>
         <circle id="Oval-522-Copy" cy="25" cx="31" r="1" fill="#9BADE3"/>
         <path id="Line-Copy-73" stroke-linecap="round" d="m22 42h1.5"/>
        </g>
        <text id="Sarah" font-size="12" font-family="Harmonia Sans Pro Cyr" sketch:type="MSTextLayer" line-spacing="18" sketch:alignment="middle">
         <tspan y="67.8760049" x="5.786" fill="#58402C">Sarah</tspan>
         <tspan y="88.2760097" x="15.23" font-size="10" line-spacing="15" fill="#BDB5AF">HR</tspan>
        </text>
       </g>
       <g id="Jack-+-Miguel," transform="translate(294 78)">
        <g id="Jack" stroke="#58402C" sketch:type="MSShapeGroup" transform="translate(1)">
         <path id="Oval-483" stroke-width=".5" fill="#F3CFB1" d="m32.5 35c0.37 0 0.703-0.149 1-0.5 0.59-0.696 1.5-2.031 1.5-3.5 0-0.54 0.097-1.53 0-2-0.3-1.453-1.165-2-2-2-1.105 0-2 1.791-2 4s0.395 4 1.5 4z"/>
         <path id="Oval-483-Copy" stroke-width=".5" fill="#F3CFB1" d="m3.5 35c1.1046 0 2-1.791 2-4s-0.8954-4-2-4-3 1.791-3 4 1.8954 4 3 4z"/>
         <path id="Oval-482" stroke-width=".5" fill="#F3CFB1" d="m6.5 42.5c1.2908 1.611 3.1257 2.559 5 3.5 2.089 1.049 4.261 2 6.5 2 2.293 0 5.556-1.396 7.5-2.5 2.384-1.354 3.263-3.106 4.5-5.5 1.399-2.705 3-6.186 3-10 0-2.905-0.153-5.725 0-9 0.112-2.402 0.458-4.801 0-7-0.758-3.636-2.581-7.0665-7.5-8.5-1.931-0.5627-4.648-0.5-7.5-0.5-1.984 0-3.985 0.2582-5.5 0.5-8.4436 1.3479-9.8062 6.098-10 12-0.0488 1.486-0.6184 3.475-0.5 5 0.1985 2.557 1 5.236 1 7.5 0 4.843 0.9074 9.265 3.5 12.5z"/>
         <path id="Rectangle-798" stroke-width=".5" fill="#58402C" d="m1 26v-2.5c0-0.281 0.1384-0.442 0-1-0.1078-0.435-0.5-1.281-0.5-1.5 0-0.226-0.08123-0.683 0-1 0.14991-0.585 0.5063-1.079 0.5-1.5-0.02113-1.415 0.1301-2.61 0-3-0.5-1.5 0-2.67 0-4 0-2.308 1-1 1.5-1.5s-0.497-5.6534 2-7.5c3.169-2.3436 10.245-2 13.25-2 0.916 0 1.25 1 2.25 1s1 0.5 3.5 1 2.155 1.2183 3 1.5 1.323-0.614 2-0.5c2.744 0.4616 3.5 3 5 4.5s1.5 4 1 6c-0.218 0.871 1 4.5 0.5 6.5-0.191 0.763-0.427 3.537-0.5 5-0.039 0.774 0.59 2.774 0.5 3-0.185 0.466-1.163-1-1.5-1h-0.5s-0.506-2.795-0.5-5c0.002-0.807-0.014-3.004 0-3.5 0.116-4.011 0-6 0-6s-2.033 2.367-4 2.5c-3 0.203-3.223-1.64-5-1.5-1.144 0.09-1.834-1.203-3-1-4.332 0.754-5 3.5-11 3.5s-3.7631-2.553-5-1c-0.231 0.29-1.3657-0.934-1.5-0.5-0.8005 2.586 0 8.364 0 11 0 0.136 0.0161 0.882 0 1-0.0561 0.411-0.2436 0.484-0.5 0.5-0.2084 0.013-1.5 1.5-1.5 1.5v-3z"/>
         <path id="Rectangle-792" stroke-width=".5" fill="#F3CFB1" d="m11.75 24.75h9s2.5 0 2.5 3-2.5 3-2.5 3h-9" transform="translate(17.5 27.75) rotate(90) translate(-17.5 -27.75)"/>
         <path id="Oval-485-Copy-3" stroke-width=".5" fill="#58402C" d="m9.5 25c0.5 0 0.5-0.252 0.5-0.5s-0.1831-0.5-0.5-0.5c-0.5 0-0.5 0.5-0.5 0.5s0 0.5 0.5 0.5z"/>
         <path id="Oval-485-Copy-2" stroke-width=".5" fill="#58402C" d="m25.551 25c0.553 0 0.492-0.25 0.492-0.5s0.061-0.5-0.492-0.5c-0.552 0-0.377 0.378-0.5 0.5-0.122 0.122-0.052 0.5 0.5 0.5z"/>
         <path id="Line" stroke-width="1.5" stroke-linecap="round" d="m22.5 20.5s1.482-0.5 2.5-0.5c0.649 0 2.5 0.5 2.5 0.5"/>
         <path id="Line-Copy-67" stroke-width="1.5" stroke-linecap="round" d="m7.5 20.5s0.982-0.5 2-0.5h1c0.649 0 1.5 0.5 1.5 0.5"/>
         <path id="Line-Copy-68" stroke-width=".5" stroke-linecap="round" d="m14.5 38.5h6.5" transform="translate(17.75 38.5) rotate(180) translate(-17.75 -38.5)"/>
         <path id="Line-Copy-69" stroke-width=".5" stroke-linecap="round" d="m16.5 40.25h3" transform="translate(18 40.25) rotate(180) translate(-18 -40.25)"/>
        </g>
        <text id="Miguel" font-size="12" font-family="Harmonia Sans Pro Cyr" sketch:type="MSTextLayer" line-spacing="18" sketch:alignment="middle">
         <tspan y="70.8760049" x="0.842" fill="#58402C">Miguel</tspan>
         <tspan y="91.2760097" x="1.27" font-size="10" line-spacing="15" fill="#BDB5AF">Product</tspan>
        </text>
       </g>
       <g id="Emmet,-+-Jack-Copy-4" transform="translate(125 245)">
        <text id="Fred" font-size="12" font-family="Harmonia Sans Pro Cyr" sketch:type="MSTextLayer" line-spacing="18" sketch:alignment="middle">
         <tspan y="67" x="8.854" fill="#58402C">Fred</tspan>
         <tspan y="87.4000049" x="0.725" font-size="10" line-spacing="15" fill="#BDB5AF">Marketer</tspan>
        </text>
        <g id="Jack-Copy-4" stroke="#58402C" sketch:type="MSShapeGroup" transform="translate(3)">
         <path id="Oval-483" stroke-width=".5" fill="#F3CFB1" d="m30.67 31c0.412 0 0.782-0.149 1.113-0.5 0.656-0.696 1.669-2.031 1.669-3.5 0-0.54 0.108-1.53 0-2-0.333-1.453-1.297-2-2.226-2-1.229 0-2.226 1.791-2.226 4s0.44 4 1.67 4z"/>
         <path id="Oval-483-Copy" stroke-width=".5" fill="#F3CFB1" d="m3.5 31c1.1046 0 2-1.791 2-4s-1.8954-4-3-4-2 1.791-2 4 1.8954 4 3 4z"/>
         <path id="Oval-482" stroke-width=".5" fill="#F3CFB1" d="m2.5 31.5c0.4503 3.049 1.2405 5.804 3 8 1.2908 1.611 3 6.5 11.5 6.5s10.763-6.606 12-9c0.939-1.816 1.424-3.119 2-5.5 0.282-1.166 1-3.246 1-4.5 0-2.905-0.153-5.725 0-9 0.112-2.402 0.458-4.801 0-7-0.479-2.2995-1.302-4.318-3-6-0.987-0.9776-2.192-1.9731-4-2.5-1.931-0.5627-4.238-1.7844-9.5-1.5s-7.9068 2.0522-9 2.5c-1.5408 0.6312-2.2788 2.0163-3 3-1.6192 2.2084-1.89 4.649-2 8-0.0488 1.486-0.1184 3.475 0 5 0.1985 2.557 0.5 5.236 0.5 7.5 0 1.556 0.2868 3.056 0.5 4.5z"/>
         <path id="Oval-485-Copy-5" stroke-width=".5" fill="#58402C" d="m9.0861 23c0.9869 0 1.9729-0.498 1.9729-0.498s-0.557-0.525-1-0.5c-0.6068 0.034-1.183 0-1.4999 0-1.0897 0-1.446 0.5-1.446 0.5s-0.027 0.498 1.973 0.498z"/>
         <path id="Oval-485-Copy-4" stroke-width=".5" fill="#58402C" d="m24.505 23c0.552 0 2-0.25 2-0.5s-1.448-0.5-2-0.5-1.883 0.378-2.005 0.5 1.453 0.5 2.005 0.5z"/>
         <path id="Line" stroke-linecap="round" d="m22 17.5s1-0.5 2.5-0.5c1 0 2 0.5 2 0.5"/>
         <path id="Line-Copy-67" stroke-linecap="round" d="m6.5 17.5s0.982-0.5 2-0.5h1c0.649 0 1.5 0.5 1.5 0.5"/>
         <path id="Line-Copy-68" stroke-width=".5" stroke-linecap="round" d="m11.5 35.898s3 1 6.5 1.5 5-1 5-1" transform="translate(17.25 36.699) rotate(180) translate(-17.25 -36.699)"/>
         <path id="Line-Copy-101" stroke-width=".5" stroke-linecap="round" d="m14 30s0.5-1 2.5-1 2.5 1 2.5 1" transform="translate(16.5 29.5) rotate(180) translate(-16.5 -29.5)"/>
         <path id="Line-Copy-102" stroke-width=".5" stroke-linecap="round" d="m18 29s0.5-1 1.5-1 1.5 1 1.5 1" transform="translate(19.5 28.5) rotate(90) translate(-19.5 -28.5)"/>
         <path id="Line-Copy-104" stroke-width=".5" stroke-linecap="round" d="m15.164 41.164s0.5-1 1.5-1c0.719 0 1.5 0.5 1.5 1s-0.115 1.116-0.5 1.5c-0.5 0.5-1.187-0.226-1.5-0.5-0.357-0.312 0.5-1 0.5-1" transform="translate(16.664 41.5) rotate(90) translate(-16.664 -41.5)"/>
         <path id="Line-Copy-103" stroke-width=".5" stroke-linecap="round" d="m12 29s0.5-1 1.5-1 1.5 1 1.5 1" transform="translate(13.5 28.5) rotate(-90) translate(-13.5 -28.5)"/>
        </g>
       </g>
      </g>
      <g id="1f4ac-copy" transform="translate(335 239.5) scale(-1 1) translate(-24 -24.5)">
       <g id="g10" transform="translate(24 24.5) scale(1 -1) translate(-24 -24)">
        <g id="g12">
         <g id="g14-Clipped">
          <mask id="mask-2" sketch:name="path18" fill="white">
           <use xlink:href="#path-1"/>
          </mask>
          <g id="g14" mask="url(#mask-2)">
           <g id="g20" transform="translate(1.25 2.5)">
            <path id="path22" sketch:type="MSShapeGroup" fill="#BDDDF4" d="m22.5 42.5c-12.426 0-22.5-7.835-22.5-17.5 0-5.46 3.2175-10.335 8.255-13.544-0.655-2.886-2.1812-7.1672-5.755-11.456 7.1975 1.2 11.799 4.7012 14.645 8.02 1.72-0.3275 3.506-0.52 5.355-0.52 12.426 0 22.5 7.835 22.5 17.5s-10.074 17.5-22.5 17.5"/>
           </g>
          </g>
         </g>
        </g>
       </g>
       <text id="I-quit!" font-size="12" font-family="Harmonia Sans Pro Cyr" transform="translate(23.5 24) scale(-1 1) translate(-23.5 -24)" sketch:type="MSTextLayer" fill="#58402C">
        <tspan y="25.5" x="9">I quit!</tspan>
       </text>
      </g>
      <g id="1f4ac-copy-2" transform="translate(35 246) scale(-1 1) translate(-35 -26)">
       <g id="g10" sketch:type="MSShapeGroup" fill="#BDDDF4" transform="translate(35 26) scale(1 -1) translate(-35 -25.5)">
        <g id="g12">
         <g id="g14-Clipped">
          <g id="g14" transform="translate(0.25 0.5)">
           <g id="g20">
            <path id="path22" d="m9.2288 11.342c-0.6691-2.8841-2.2018-7.1094-5.7288-11.342 6.509 1.0853 10.895 4.0529 13.78 7.0655 5.068-1.9499 10.948-3.0655 17.22-3.0655 19.054 0 34.5 10.297 34.5 23s-15.446 23-34.5 23-34.5-10.297-34.5-23c0-6.049 3.5023-11.552 9.2288-15.658z"/>
           </g>
          </g>
         </g>
        </g>
       </g>
       <text id="Nobody-" font-size="12" font-family="Harmonia Sans Pro Cyr" sketch:alignment="middle" transform="translate(35.5 26) scale(-1 1) translate(-35.5 -26)" sketch:type="MSTextLayer" fill="#58402C">
        <tspan y="20.5" x="14.596">Nobody</tspan>
        <tspan y="34.9000049" x="10.864">hears me</tspan>
       </text>
      </g>
      <g id="1f4a9" transform="translate(239 251)">
       <g id="g10" transform="translate(20 20.748) scale(1 -1) translate(-20 -19.839)">
        <g id="g12">
         <g id="g14-Clipped">
          <mask id="mask-4" sketch:name="path18" fill="white">
           <use xlink:href="#path-3"/>
          </mask>
          <g id="g14" mask="url(#mask-4)" sketch:type="MSShapeGroup">
           <g id="g20" fill="#BF6952" transform="translate(.56354 .82847)">
            <path id="path22" d="m35.417 13.432c0.379 1.631 0.253 3.375-0.477 5.111-0.707 1.679-1.924 3.007-3.408 3.899 0.333 1.232 0.245 2.557-0.337 3.875-0.876 1.984-2.771 3.308-4.909 3.681 0.26 0.591 0.343 1.331 0.038 2.239-1.042 3.1-5.208 1.033-8.333 5.165-2.541-1.513-3.093-3.76-2.997-5.669-2.523-0.426-3.959-0.968-3.959-0.968v-0.002c-1.4173-0.569-2.4194-1.946-2.4194-3.557 0-0.908 0.3313-1.732 0.8636-2.389l-0.7209-0.268 0.0011-0.003c-2.4271-0.899-4.1406-3.075-4.1406-5.62 0-1.08 0.3124-2.094 0.8541-2.973-2.9417-1.311-4.9948-4.156-4.9948-7.4823 0.00002-4.565 3.8448-8.2661 8.5875-8.2661 3.4054-0.00001 6.8324 0.72637 9.9284 1.7204 2.336-1.0746 5.932-1.7204 11.346-1.7204 4.218-0.00001 7.638 3.3922 7.638 7.5769 0 2.2485-0.993 4.2625-2.561 5.6505"/>
           </g>
           <g id="g24" fill="#F5F8FA" transform="translate(11.458 17.049)">
            <path id="path26" d="m7.2917 5.1663c0-2.5676-1.6323-4.6497-3.6459-4.6497-2.0135 0.00003-3.6458 2.0821-3.6458 4.6497 0 2.5677 1.6323 4.6497 3.6458 4.6497 2.0136 0 3.6459-2.082 3.6459-4.6497"/>
           </g>
           <g id="g28" fill="#F5F8FA" transform="translate(21.875 17.049)">
            <path id="path30" d="m7.2917 5.1663c0-2.5676-1.6313-4.6497-3.6459-4.6497-2.0146 0.00003-3.6458 2.0821-3.6458 4.6497 0 2.5677 1.6312 4.6497 3.6458 4.6497s3.6459-2.082 3.6459-4.6497"/>
           </g>
           <g id="g32" fill="#292F33" transform="translate(13.542 19.115)">
            <path id="path34" d="m4.1667 3.0998c0-1.4269-0.9334-2.5832-2.0834-2.5832-1.15 0.00003-2.0833 1.1563-2.0833 2.5832s0.93333 2.5832 2.0833 2.5832 2.0834-1.1563 2.0834-2.5832"/>
           </g>
           <g id="g36" fill="#292F33" transform="translate(22.917 19.115)">
            <path id="path38" d="m4.1667 3.0998c0-1.4269-0.9334-2.5832-2.0834-2.5832-1.15 0.00003-2.0833 1.1563-2.0833 2.5832s0.93333 2.5832 2.0833 2.5832 2.0834-1.1563 2.0834-2.5832"/>
           </g>
           <g id="g40" fill="#292F33" transform="translate(9.8409 6.3086)">
            <path id="path42" d="m1.0417 6.1996c-0.25628 0.5084 0.0031 0.9248 0.576 0.9248h18.75c0.573 0 0.832-0.4164 0.575-0.9248 0 0-2.659-5.2748-9.95-5.2748-7.292-0.00003-9.9513 5.2748-9.9513 5.2748"/>
           </g>
           <g id="g44" fill="#F2ABBA" transform="translate(13.542 7.2329)">
            <path id="path46" d="m7.2917 4.1331c-2.8865 0-5.3719-0.9527-6.5542-2.3311 1.5542-0.98675 3.6927-1.802 6.5542-1.802 2.8613 0 5.0013 0.81525 6.5543 1.802-1.182 1.3784-3.668 2.3311-6.5543 2.3311"/>
           </g>
          </g>
         </g>
        </g>
       </g>
      </g>
      <g id="1f4c9" transform="translate(370 165)">
       <g id="g10" transform="translate(14.844 14.844) scale(1 -1) translate(-14.844 -14.844)">
        <g id="g12">
         <g id="g14-Clipped">
          <mask id="mask-6" sketch:name="path18" fill="white">
           <use xlink:href="#path-5"/>
          </mask>
          <g id="g14" mask="url(#mask-6)">
           <g transform="translate(1.5625 .78125)">
            <g id="g20" sketch:type="MSLayerGroup" fill="none">
             <path id="path22" sketch:type="MSShapeGroup" fill="#CCD6DD" d="m26.562 3.125c0-1.7258-1.399-3.125-3.124-3.125h-20.313c-1.7258 0-3.125 1.3992-3.125 3.125v21.875c0 1.726 1.3992 3.125 3.125 3.125h20.313c1.725 0 3.124-1.399 3.124-3.125v-21.875z"/>
            </g>
            <path id="path24" sketch:type="MSShapeGroup" fill="#E1E8ED" d="m19.531 7.8125h3.907v-3.9063h-3.907v3.9063zm-5.469 0h3.907v-3.9063h-3.907v3.9063zm-5.4682 0h3.9062v-3.9063h-3.9062v3.9063zm-5.4688 0h3.9062v-3.9063h-3.9062v3.9063zm3.9062 12.5h-3.9062v3.907h3.9062v-3.907zm5.4688 0h-3.9062v3.907h3.9062v-3.907zm5.469 0h-3.907v3.907h3.907v-3.907zm1.562 3.907h3.907v-3.907h-3.907v3.907zm0-5.469h3.907v-3.906h-3.907v3.906zm0-5.469h3.907v-3.906h-3.907v3.906zm-5.469 0h3.907v-3.906h-3.907v3.906zm-5.4682 0h3.9062v-3.906h-3.9062v3.906zm-1.5626-3.906h-3.9062v3.906h3.9062v-3.906zm0 5.469h-3.9062v3.906h3.9062v-3.906zm7.0308 3.906h3.907v-3.906h-3.907v3.906zm-1.562-3.906h-3.9062v3.906h3.9062v-3.906zm11.719 10.937h-21.875c-0.4323 0-0.7815-0.35-0.7815-0.781v-21.875c0-0.432 0.3492-0.7812 0.7813-0.7812h21.875c0.432 0 0.781 0.3492 0.781 0.7812v21.875c0 0.431-0.349 0.781-0.781 0.781z"/>
            <g id="g26" sketch:type="MSLayerGroup" transform="translate(.78281 2.3438)" fill="none">
             <path id="path28" sketch:type="MSShapeGroup" fill="#DD2E44" d="m22.656 0c-0.563 0-1.106 0.30469-1.385 0.8375l-7.609 14.524-4.7464-4.748c-0.3484-0.349-0.8406-0.516-1.3312-0.441-0.4891 0.072-0.9149 0.37-1.1492 0.805l-5.4688 10.156c-0.40937 0.76-0.12499 1.707 0.6352 2.117 0.7609 0.408 1.7078 0.124 2.1164-0.635l4.4726-8.307 4.7654 4.764c0.352 0.352 0.851 0.515 1.341 0.44 0.491-0.075 0.918-0.379 1.148-0.819l8.594-16.406c0.4-0.7653 0.105-1.7091-0.659-2.1091-0.232-0.12187-0.48-0.1789-0.724-0.1789"/>
            </g>
           </g>
          </g>
         </g>
        </g>
       </g>
      </g>
      <g id="1f44e" transform="translate(152 25)">
       <g id="g10" transform="translate(12.865 12.865) scale(1 -1) translate(-12.865 -12.865)">
        <g id="g12">
         <g id="g14-Clipped">
          <mask id="mask-8" sketch:name="path18" fill="white">
           <use xlink:href="#path-7"/>
          </mask>
          <g id="g14" mask="url(#mask-8)">
           <g transform="translate(2.7083)">
            <g id="g20" transform="translate(0 .085313)">
             <path id="path22" sketch:type="MSShapeGroup" fill="#D99E82" d="m20.99 12.188s-1.938 10.339-1.992 10.714c-0.173 1.205-1.392 2.084-2.873 2.064 0 0-7.9716 0.001-12.034 0.001-4.0626 0-4.091-1.562-4.091-5.315l0.054167-9.178c-0.015573-0.363-0.025729-0.7294-0.025729-1.0625 0-1.3542 2.0313-4.7403 2.0313-7.1101 0-1.6927 0.6913-1.6927 2.384-1.6927 1.3088 0 1.6995 2.0312 1.6995 3.724 0 0.7048-0.4401 2.4828-0.8173 3.8783l10.981 0.5227c4.57 0.1415 4.993 1.9473 4.683 3.4543"/>
            </g>
            <g id="g24" transform="translate(7.3937 8.6437)">
             <path id="path26" sketch:type="MSShapeGroup" fill="#C1694F" d="m12.865 6.0938c-0.35 0.1997-7.1159-0.3501-9.7565-0.5769-0.0169 0.0088-0.0284 0.023-0.0461 0.0298-0.0385 0.0155-0.9418 0.3818-0.9777 1.2587-0.0291 0.7258 0.3399 1.1747 0.5336 1.3595l9.1597 0.5891c0.372 0.0244 0.655 0.346 0.632 0.7191-0.025 0.373-0.336 0.6639-0.719 0.6319l-7.9075-0.508c-0.5518 0.3392-1.1781 0.846-1.1876 1.408-0.0081 0.537 0.5322 1.063 0.8593 1.312l7.4038 0.301c0.374 0.016 0.664 0.331 0.649 0.704-0.015 0.374-0.311 0.661-0.704 0.649l-7.1288-0.29c-0.0278 0.008-0.0514 0.025-0.0812 0.029-0.2512 0.037-0.3982 0.147-0.4767 0.358-0.1232 0.33-0.0244 0.761 0.1449 0.957 0.0596 0.069 0.0833 0.064 0.0921 0.062 0.3656-0.079 0.7258 0.153 0.8043 0.519 0.0786 0.366-0.1543 0.726-0.52 0.804-0.5172 0.112-1.0298-0.071-1.4008-0.499-0.5153-0.596-0.6751-1.549-0.3894-2.316 0.0826-0.222 0.2106-0.408 0.3569-0.577-0.4564-0.447-0.9744-1.145-0.9635-2.027 0.0074-0.581 0.2451-1.1252 0.6994-1.6317-0.2092-0.151-1.275-0.9994-1.2093-2.6095 0.02779-0.6838 0.2979-1.1997 0.6223-1.5809-0.66967-0.3521-1.3549-1.0712-1.2411-2.3455 0.07581-0.8416 0.37575-1.4645 0.891-1.8511 0.4306-0.32298 0.8944-0.3873 1.1971-0.3873 0.1226 0 0.2187 0.01016 0.2756 0.01896l8.9722 0.72244c0.374 0.0305 0.651 0.3575 0.621 0.7299-0.029 0.3717-0.346 0.6439-0.729 0.6209l-9.0626-0.734c-0.0041 0-0.2688-0.0392-0.4699 0.1185-0.2377 0.1862-0.3196 0.583-0.346 0.8823-0.0806 0.8937 0.6256 1.1043 0.8064 1.1422 1.1747 0.1517 9.5901 0.7326 10.215 0.7461 0.244-0.0088 0.492 0.107 0.625 0.3359 0.189 0.3229 0.079 0.7373-0.244 0.9256"/>
            </g>
           </g>
          </g>
         </g>
        </g>
       </g>
      </g>
      <g id="1f62d" transform="translate(7 324)">
       <g id="g10" transform="translate(8.9062 8.9062) scale(1 -1) translate(-8.9062 -8.9062)">
        <g id="g12">
         <g id="g14-Clipped">
          <mask id="mask-10" sketch:name="path18" fill="white">
           <use xlink:href="#path-9"/>
          </mask>
          <g id="g14" mask="url(#mask-10)">
           <g transform="translate(.46875 .46875)">
            <g id="g20" transform="translate(.46875 .46875)">
             <path id="path22" sketch:type="MSShapeGroup" fill="#FFCC4D" d="m15.938 7.9688c0-4.4011-3.568-7.9688-7.9692-7.9688-4.4011 0-7.9688 3.5677-7.9688 7.9688 0 4.4012 3.5677 7.9692 7.9688 7.9692 4.4012 0 7.9692-3.568 7.9692-7.9692"/>
            </g>
            <g id="g24" transform="translate(6.5625 2.8125)">
             <path id="path26" sketch:type="MSShapeGroup" fill="#664500" d="m3.75 1.4062c0-1.2951-0.8395-1.4062-1.875-1.4062-1.0359 0-1.875 0.11109-1.875 1.4062 0 1.2943 0.83906 2.8126 1.875 2.8126 1.0355 0 1.875-1.5183 1.875-2.8126"/>
            </g>
            <g id="g28" transform="translate(9.8438 9.8435)">
             <path id="path30" sketch:type="MSShapeGroup" fill="#664500" d="m4.2188 0c-0.0582 0-0.1172 0.010781-0.174 0.03375-2.451 0.98015-3.4556 2.4562-3.4973 2.519-0.14391 0.2152-0.08578 0.5063 0.12984 0.6502 0.21516 0.1434 0.50536 0.0858 0.64926-0.1285 0.0089-0.0131 0.9046-1.3059 3.0661-2.1703 0.2404-0.09608 0.3576-0.36889 0.2615-0.60936-0.0731-0.18328-0.2498-0.29484-0.4354-0.29484"/>
            </g>
            <g id="g32" transform="translate(1.8752 9.8435)">
             <path id="path34" sketch:type="MSShapeGroup" fill="#664500" d="m0.9375 0c-0.18609 0-0.36188 0.11156-0.43547 0.29484-0.09609 0.24047 0.02063 0.51328 0.26109 0.60938 2.1619 0.86438 3.0577 2.1572 3.0666 2.1703 0.1444 0.2138 0.4355 0.2705 0.6501 0.1266 0.2138-0.1444 0.2719-0.4336 0.129-0.6483-0.0418-0.0628-1.0468-1.5389-3.4974-2.519-0.0572-0.023019-0.11578-0.0338-0.1739-0.0338"/>
            </g>
            <g id="g36" transform="translate(3.75 .46875)">
             <path id="path38" sketch:type="MSShapeGroup" fill="#5DADEC" d="m0 0l1.875 0.021562v8.8842h-1.875v-8.9058zm7.5 8.9062h1.875v-8.9062l-1.875 0.021562v8.8846z"/>
            </g>
            <g id="g40" transform="translate(2.812 7.9688)">
             <path id="path42" sketch:type="MSShapeGroup" fill="#664500" d="m4.2188 0.46875c-0.0704 0-0.1421 0.01594-0.2091 0.04922-1.6463 0.82363-3.3145 0.00891-3.331 0-0.23198-0.11625-0.51276-0.02156-0.62901 0.21-0.11578 0.23156-0.021565 0.51323 0.21 0.62903 0.08531 0.0418 2.1084 1.0294 4.1691 0 0.2315-0.1158 0.3257-0.39747 0.21-0.62903-0.0826-0.16453-0.248-0.25922-0.42-0.25922"/>
            </g>
            <g id="g44" transform="translate(9.3745 7.9688)">
             <path id="path46" sketch:type="MSShapeGroup" fill="#664500" d="m4.2188 0.46875c-0.0704 0-0.1421 0.01594-0.2091 0.04922-1.6467 0.82313-3.3145 0.00891-3.331 0-0.23151-0.11578-0.51276-0.02203-0.62901 0.21-0.11578 0.23156-0.021565 0.51323 0.21 0.62903 0.08484 0.0418 2.1098 1.0294 4.1691 0 0.2315-0.1158 0.3257-0.39747 0.2095-0.62903-0.0821-0.16453-0.2475-0.25922-0.4195-0.25922"/>
            </g>
            <g id="g48">
             <path id="path50" sketch:type="MSShapeGroup" fill="#5DADEC" d="m16.875 0.9375c0-0.5175-3.778-0.9375-8.4375-0.9375-4.6598 0-8.4375 0.42-8.4375 0.9375s3.7777 0.9375 8.4375 0.9375c4.6595 0 8.4375-0.42 8.4375-0.9375"/>
            </g>
            <g id="g52" transform="translate(7.0312 3.2812)">
             <path id="path54" sketch:type="MSShapeGroup" fill="#E75A70" d="m2.8125 0.9375c0-0.77672-0.6295-0.9375-1.4063-0.9375-0.77667 0-1.4062 0.16078-1.4062 0.9375 0 0.7767 0.62953 0.9375 1.4062 0.9375 0.7768 0 1.4063-0.1608 1.4063-0.9375"/>
            </g>
           </g>
          </g>
         </g>
        </g>
       </g>
      </g>
      <g id="1f480" transform="translate(322 279)">
       <g id="g10" transform="translate(11.875 11.875) scale(1 -1) translate(-11.875 -11.875)">
        <g id="g12">
         <g id="g14-Clipped">
          <mask id="mask-12" sketch:name="path18" fill="white">
           <use xlink:href="#path-11"/>
          </mask>
          <g id="g14" mask="url(#mask-12)">
           <g transform="translate(1.875 0.625)">
            <g id="g20">
             <path id="path22" sketch:type="MSShapeGroup" fill="#BCBEC0" d="m20 12.5c0 6.25-4.477 10-10 10-5.5225 0-10-3.75-10-10 0-3.4838 0.00125-6.4925 3.75-7.9v-2.725c0-1.0356 0.8394-1.875 1.875-1.875s1.875 0.83938 1.875 1.875v1.9719c0.2025-0.0169 0.4119-0.0313 0.625-0.0438v-1.9281c0-1.0356 0.8394-1.875 1.875-1.875 1.036 0 1.875 0.83938 1.875 1.875v1.9281c0.214 0.0125 0.423 0.0269 0.625 0.0438v-1.9719c0-1.0356 0.84-1.875 1.875-1.875 1.036 0 1.875 0.83938 1.875 1.875v2.725c3.749 1.4075 3.75 4.4162 3.75 7.9"/>
            </g>
            <g id="g24" transform="translate(2.5 10.625)">
             <path id="path26" sketch:type="MSShapeGroup" fill="#414042" d="m6.25 3.125c0-1.7256 0-3.125-3.125-3.125s-3.125 1.3994-3.125 3.125 1.3994 3.125 3.125 3.125 3.125-1.3994 3.125-3.125"/>
            </g>
            <g id="g28" transform="translate(11.25 10.625)">
             <path id="path30" sketch:type="MSShapeGroup" fill="#414042" d="m6.25 3.125c0-1.7256 0-3.125-3.125-3.125s-3.125 1.3994-3.125 3.125 1.3988 3.125 3.125 3.125 3.125-1.3994 3.125-3.125"/>
            </g>
            <g id="g32" transform="translate(8.0646 6.2116)">
             <path id="path34" sketch:type="MSShapeGroup" fill="#6D6E71" d="m3.125 1.875c-0.1575 0.3825-0.6269 0.6638-1.1894 0.6638s-1.0325-0.2813-1.19-0.6638c-0.39435-0.1106-0.68498-0.4694-0.68498-0.89875 0.000005-0.51813 0.41938-0.9375 0.9375-0.9375 0.40878 0 0.75308 0.26313 0.88128 0.62875 0.0187-0.00062 0.0368-0.00375 0.0562-0.00375 0.0188 0 0.0369 0.00313 0.0563 0.00375 0.1281-0.36562 0.4719-0.62875 0.8812-0.62875 0.5175 0 0.9375 0.41937 0.9375 0.9375 0 0.42935-0.2912 0.78755-0.6856 0.89875"/>
            </g>
           </g>
          </g>
         </g>
        </g>
       </g>
      </g>
      <g id="1f621" transform="translate(35 33)">
       <g id="g10" transform="translate(11.875 11.875) scale(1 -1) translate(-11.875 -11.875)">
        <g id="g12">
         <g id="g14-Clipped">
          <mask id="mask-14" sketch:name="path18" fill="white">
           <use xlink:href="#path-13"/>
          </mask>
          <g id="g14" mask="url(#mask-14)">
           <g transform="translate(1.25 1.25)">
            <g id="g20">
             <path id="path22" sketch:type="MSShapeGroup" fill="#DA2F47" d="m21.25 10.625c0-5.8681-4.757-10.625-10.625-10.625-5.8675 0-10.625 4.7569-10.625 10.625 0 5.867 4.7575 10.625 10.625 10.625 5.868 0 10.625-4.758 10.625-10.625"/>
            </g>
            <g id="g24" transform="translate(5.9284 2.5757)">
             <path id="path26" sketch:type="MSShapeGroup" fill="#292F33" d="m9.375 0.625c-0.0281 0.11188-0.73 2.7369-4.6781 2.7369-3.9488 0-4.6506-2.625-4.6782-2.7369-0.034325-0.13562 0.026925-0.27625 0.14818-0.34625 0.12187-0.06813 0.27437-0.04937 0.37437 0.04813 0.01187 0.01187 1.2212 1.16 4.1556 1.16 2.9338 0 4.1438-1.1482 4.1551-1.16 0.06-0.05878 0.14-0.09002 0.22-0.09002 0.0525 0 0.1056 0.01312 0.1537 0.04 0.1225 0.07 0.1838 0.21187 0.1494 0.34812"/>
            </g>
            <g id="g28" transform="translate(2.9419 7.3169)">
             <path id="path30" sketch:type="MSShapeGroup" fill="#292F33" d="m6.25 3.75c-2.0344 2.0344-5.3038 2.0581-5.4419 2.0581-0.34498 0-0.62435-0.2793-0.62435-0.6243-0.00063-0.3444 0.27875-0.625 0.62375-0.6257 0.01812 0 1.2031-0.0137 2.4894-0.4606-0.3707-0.4-0.6138-1.0213-0.6138-1.7269 0-1.2087 0.6994-2.1875 1.5625-2.1875 0.8632 0.00002 1.5625 0.9788 1.5625 2.1875 0 0.1088-0.0119 0.2125-0.0231 0.3169 0.0081 0 0.0156-0.0044 0.0231-0.0044 0.16 0 0.32 0.0613 0.4419 0.1831 0.2444 0.2444 0.2444 0.6394 0 0.8838"/>
            </g>
            <g id="g32" transform="translate(11.25 7.5)">
             <path id="path34" sketch:type="MSShapeGroup" fill="#292F33" d="m6.25 5.625c-0.1381 0-3.4069-0.0238-5.4419-2.0581-0.24435-0.2444-0.24435-0.6394 0.00002-0.8838 0.12188-0.1219 0.28188-0.1831 0.44188-0.1831 0.0081 0 0.015 0.0044 0.0225 0.0044-0.01-0.1044-0.0225-0.2082-0.0225-0.3169 0-1.2088 0.6994-2.1875 1.5625-2.1875s1.5625 0.97875 1.5625 2.1875c0 0.7056-0.2431 1.3269-0.6138 1.7269 1.2863 0.4468 2.4713 0.4606 2.49 0.4606 0.3444 0.0006 0.6238 0.2812 0.6232 0.6256-0.0006 0.345-0.2794 0.6244-0.6244 0.6244"/>
            </g>
           </g>
          </g>
         </g>
        </g>
       </g>
      </g>
      <g id="1f622" transform="translate(118 289)">
       <g id="g10" transform="translate(9.8958 9.8958) scale(1 -1) translate(-9.8958 -9.8958)">
        <g id="g12">
         <g id="g14-Clipped">
          <mask id="mask-16" sketch:name="path18" fill="white">
           <use xlink:href="#path-15"/>
          </mask>
          <g id="g14" mask="url(#mask-16)">
           <g transform="translate(1.0417)">
            <g id="g20" transform="translate(0 1.0417)">
             <path id="path22" sketch:type="MSShapeGroup" fill="#FFCC4D" d="m17.708 8.8542c0-4.8901-3.964-8.8542-8.8538-8.8542-4.8896 0-8.8542 3.9641-8.8542 8.8542 0 4.8898 3.9646 8.8538 8.8542 8.8538 4.8898 0 8.8538-3.964 8.8538-8.8538"/>
            </g>
            <g id="g24" transform="translate(4.1667 8.5938)">
             <path id="path26" sketch:type="MSShapeGroup" fill="#664500" d="m2.6042 2.0833c0-1.0073-0.5828-1.8229-1.3021-1.8229-0.71929 0.00002-1.3021 0.8156-1.3021 1.8229 0 1.0068 0.58281 1.8229 1.3021 1.8229 0.7193 0 1.3021-0.8161 1.3021-1.8229"/>
            </g>
            <g id="g28" transform="translate(10.938 8.5938)">
             <path id="path30" sketch:type="MSShapeGroup" fill="#664500" d="m2.6042 2.0833c0-1.0073-0.5828-1.8229-1.3021-1.8229-0.71929 0.00002-1.3021 0.8156-1.3021 1.8229 0 1.0068 0.58281 1.8229 1.3021 1.8229 0.7193 0 1.3021-0.8161 1.3021-1.8229"/>
            </g>
            <g id="g32" transform="translate(2.0828 12.5)">
             <path id="path34" sketch:type="MSShapeGroup" fill="#664500" d="m0.52083 0c-0.10833 0-0.21823 0.033854-0.31198 0.10417-0.2302 0.17239-0.27656 0.49895-0.10416 0.72916 1.6989 2.2657 3.9667 2.2917 4.0625 2.2917 0.2875 0 0.5208-0.2333 0.5208-0.5208 0-0.287-0.2318-0.5198-0.5187-0.5209-0.0808-0.001-1.8589-0.0448-3.2313-1.875-0.10258-0.13642-0.25883-0.2083-0.41717-0.2083"/>
            </g>
            <g id="g36" transform="translate(10.938 12.5)">
             <path id="path38" sketch:type="MSShapeGroup" fill="#664500" d="m4.1667 0c-0.1589 0-0.3151 0.071875-0.4172 0.20833-1.375 1.8339-3.1568 1.8745-3.2323 1.875-0.28647 0.0032-0.51772 0.2375-0.51616 0.5235 0.0015642 0.287 0.23281 0.5182 0.51927 0.5182 0.09584 0 2.363-0.026 4.0625-2.2917 0.1729-0.23018 0.1261-0.55674-0.1042-0.72913-0.0937-0.070316-0.2031-0.10417-0.3119-0.10417"/>
            </g>
            <g id="g40" transform="translate(5.982 4.2297)">
             <path id="path42" sketch:type="MSShapeGroup" fill="#664500" d="m5.7292 0.52083c-0.0063 0.02292-0.5969 2.2808-2.8568 2.2808-2.2609 0-2.8516-2.2578-2.8568-2.2808-0.027579-0.1109 0.022421-0.22445 0.12034-0.2833 0.09791-0.05833 0.22552-0.04479 0.31041 0.03125 0.00521 0.00365 0.52813 0.44948 2.426 0.44948 1.8693 0 2.4047-0.43229 2.425-0.44948 0.0495-0.04687 0.1141-0.07135 0.1792-0.07135 0.0437 0 0.088 0.01093 0.1281 0.03333 0.1021 0.05833 0.1531 0.17656 0.1245 0.2901"/>
            </g>
            <g id="g44" transform="translate(2.6042)">
             <path id="path46" sketch:type="MSShapeGroup" fill="#5DADEC" d="m5.2083 2.6042c0-1.4386-1.1656-2.6042-2.6041-2.6042-1.4386 0-2.6042 1.1656-2.6042 2.6042 0 1.4385 2.0833 5.2083 2.6042 5.2083 0.5208 0 2.6041-3.7698 2.6041-5.2083"/>
            </g>
           </g>
          </g>
         </g>
        </g>
       </g>
      </g>
      <g id="1f620" transform="translate(282 51)">
       <g id="g10" transform="translate(12.865 12.865) scale(1 -1) translate(-12.865 -12.865)">
        <g id="g12">
         <g id="g14-Clipped">
          <mask id="mask-18" sketch:name="path18" fill="white">
           <use xlink:href="#path-17"/>
          </mask>
          <g id="g14" mask="url(#mask-18)">
           <g transform="translate(1.3542 1.3542)">
            <g id="g20">
             <path id="path22" sketch:type="MSShapeGroup" fill="#FDCB58" d="m23.021 11.51c0-6.3567-5.153-11.51-11.511-11.51-6.356 0-11.51 5.1533-11.51 11.51 0 6.357 5.154 11.511 11.51 11.511 6.358 0 11.511-5.154 11.511-11.511"/>
            </g>
            <g id="g24" transform="translate(6.4224 2.7903)">
             <path id="path26" sketch:type="MSShapeGroup" fill="#664500" d="m10.156 0.67708c-0.03 0.1212-0.7906 2.9649-5.0677 2.9649-4.2778 0-5.0382-2.8437-5.068-2.9649-0.037227-0.14694 0.029127-0.29929 0.16048-0.37512 0.13203-0.0738 0.29724-0.05349 0.40557 0.05213 0.01287 0.01287 1.323 1.2567 4.502 1.2567 3.1781 0 4.4889-1.2438 4.5011-1.2567 0.065-0.06363 0.1517-0.09749 0.2384-0.09749 0.0568 0 0.1144 0.01422 0.1665 0.04334 0.1326 0.07583 0.1986 0.22953 0.1616 0.37713"/>
            </g>
            <g id="g28" transform="translate(3.187 7.9266)">
             <path id="path30" sketch:type="MSShapeGroup" fill="#664500" d="m6.7708 4.0625c-2.2039 2.2039-5.7457 2.2296-5.8953 2.2296-0.37378 0-0.67644-0.3026-0.67644-0.6764-0.00067-0.373 0.30198-0.6771 0.67573-0.6777 0.01964 0 1.3034-0.0149 2.6968-0.499-0.4015-0.4334-0.6649-1.1064-0.6649-1.8708 0-1.3095 0.7577-2.3698 1.6927-2.3698 0.9351-0.00001 1.6927 1.0603 1.6927 2.3698 0 0.1178-0.0128 0.2302-0.025 0.3433 0.0088 0 0.0169-0.0048 0.025-0.0048 0.1734 0 0.3467 0.0664 0.4787 0.1984 0.2648 0.2647 0.2648 0.6927 0 0.9574"/>
            </g>
            <g id="g32" transform="translate(12.188 8.125)">
             <path id="path34" sketch:type="MSShapeGroup" fill="#664500" d="m6.7708 6.0938c-0.1496 0-3.6907-0.0258-5.8953-2.2297-0.26477-0.2647-0.26477-0.6926-0.00003-0.9574 0.13203-0.132 0.30533-0.1984 0.47873-0.1984 0.0088 0 0.0162 0.0048 0.0243 0.0048-0.0108-0.1131-0.0243-0.2255-0.0243-0.3433 0-1.3095 0.7576-2.3698 1.6927-2.3698 0.935 0 1.6927 1.0603 1.6927 2.3698 0 0.7644-0.2634 1.4374-0.6649 1.8708 1.3934 0.4841 2.6772 0.499 2.6975 0.499 0.3731 0.0007 0.6757 0.3047 0.675 0.6777-0.0006 0.3738-0.3026 0.6765-0.6764 0.6765"/>
            </g>
           </g>
          </g>
         </g>
        </g>
       </g>
      </g>
      <g id="1f624" transform="translate(239 145)">
       <g id="g10" transform="translate(9.8958 9.8958) scale(1 -1) translate(-9.8958 -9.8958)">
        <g id="g12">
         <g id="g14-Clipped">
          <mask id="mask-20" sketch:name="path18" fill="white">
           <use xlink:href="#path-19"/>
          </mask>
          <g id="g14" mask="url(#mask-20)">
           <g transform="translate(1.0417)">
            <g id="g20" transform="translate(0 1.0417)">
             <path id="path22" sketch:type="MSShapeGroup" fill="#FFCC4D" d="m17.708 8.8542c0-4.8901-3.964-8.8542-8.8538-8.8542-4.8901 0-8.8542 3.9641-8.8542 8.8542 0 4.8898 3.9641 8.8538 8.8542 8.8538 4.8898 0 8.8538-3.964 8.8538-8.8538"/>
            </g>
            <g id="g24" transform="translate(8.8547 12.5)">
             <path id="path26" sketch:type="MSShapeGroup" fill="#664500" d="m1.0417 0c-0.0287 0-0.0568 0.0020833-0.08597 0.0072917-0.28385 0.047396-0.47552 0.31563-0.42813 0.59948 0.20469 1.2312 1.3385 3.5599 4.1594 3.5599 0.288 0 0.5208-0.2334 0.5208-0.5209s-0.2328-0.5208-0.5208-0.5208c-2.6537 0-3.1141-2.5802-3.1323-2.6901-0.0422-0.25417-0.263-0.4349-0.513-0.4349"/>
            </g>
            <g id="g28" transform="translate(3.6453 12.5)">
             <path id="path30" sketch:type="MSShapeGroup" fill="#664500" d="m4.1667 0c-0.2495 0-0.4698 0.17969-0.5131 0.43385-0.0192 0.1099-0.4974 2.6912-3.1322 2.6912-0.28755 0-0.52088 0.2333-0.52088 0.5208 8.3e-7 0.2875 0.23333 0.5209 0.52083 0.5209 2.8208 0 3.9542-2.3287 4.1594-3.5599 0.0473-0.28388-0.1443-0.55211-0.4277-0.59951-0.0291-0.0052067-0.0583-0.00729-0.0864-0.00729"/>
            </g>
            <g id="g32" transform="translate(2.8176 9.952)">
             <path id="path34" sketch:type="MSShapeGroup" fill="#664500" d="m2.6042 0c-1.2162 0-2.0157 0.51927-2.0646 0.55208-0.2396 0.15938-0.30418 0.48282-0.14481 0.72242 0.15938 0.2396 0.48281 0.3047 0.72241 0.1443 0.0516-0.0334 1.3552-0.85213 3.1239 0.0328 0.2579 0.1286 0.5704 0.0239 0.699-0.2334 0.1287-0.25726 0.0245-0.56976-0.2328-0.69841-0.7781-0.38906-1.4932-0.51979-2.1031-0.51979"/>
            </g>
            <g id="g36" transform="translate(9.6827 9.952)">
             <path id="path38" sketch:type="MSShapeGroup" fill="#664500" d="m2.6042 0c-0.6104 0-1.3256 0.13073-2.1032 0.51979-0.25725 0.12865-0.36142 0.44115-0.23277 0.69841 0.12917 0.2578 0.44115 0.362 0.69844 0.2334 1.7713-0.88545 3.0729-0.0657 3.1271-0.0308 0.2395 0.1552 0.563 0.0886 0.7197-0.1505 0.1573-0.2391 0.0933-0.55936-0.1447-0.71822-0.0495-0.03281-0.849-0.55208-2.0646-0.55208"/>
            </g>
            <g id="g40" transform="translate(3.6464 5.2083)">
             <path id="path42" sketch:type="MSShapeGroup" fill="#664500" d="m9.375 0c-0.1589 0-0.3151 0.071875-0.4172 0.20833-0.013 0.01771-1.4489 1.875-3.75 1.875-2.301 0-3.7364-1.8573-3.751-1.876-0.1735-0.22813-0.50055-0.27397-0.7292-0.10157-0.22916 0.17292-0.27552 0.49792-0.10312 0.7276 0.07031 0.09323 1.751 2.2917 4.5833 2.2917 2.8318 0 4.513-2.1984 4.5833-2.2917 0.173-0.23018 0.1261-0.55674-0.1041-0.72913-0.0938-0.070316-0.2031-0.10417-0.312-0.10417"/>
            </g>
            <g id="g44" transform="translate(3.8495 3.6041)">
             <path id="path46" sketch:type="MSShapeGroup" fill="#F5F8FA" d="m3.6458 5.2083c-0.2359 0.1016-0.5099 0.0141-0.6453-0.2031l-2.6042-4.1667c-0.10047-0.16038-0.10568-0.36298-0.01401-0.52808 0.09219-0.16615 0.26615-0.26875 0.45573-0.26875l1.5625-0.000003c0.2391 0 0.4474 0.16302 0.5052 0.39479l1.0417 4.1666c0.062 0.2479-0.0656 0.5052-0.3016 0.6052"/>
            </g>
            <g id="g48" transform="translate(9.8165 3.4012)">
             <path id="path50" sketch:type="MSShapeGroup" fill="#F5F8FA" d="m3.6458 1.0417l-2.6041 4.1666c-0.13649 0.2177-0.40993 0.3042-0.64482 0.2032-0.23594-0.1006-0.36407-0.3573-0.30157-0.6053l1.0417-4.1666c0.0578-0.23231 0.2656-0.39481 0.5047-0.39481h1.5625c0.1896 0 0.3635 0.10261 0.4557 0.26823 0.0917 0.16563 0.0865 0.36771-0.0141 0.52868"/>
            </g>
            <g id="g52" transform="translate(10.408 .42828)">
             <path id="path54" sketch:type="MSShapeGroup" fill="#E1E8ED" d="m5.7292 3.125c0.0015 0.0312 0.0093 0.0609 0.0093 0.0927 0 0.8625-0.7 1.5625-1.5625 1.5625-0.5354 0-1.0062-0.2698-1.288-0.6797-0.2453 0.1011-0.5135 0.1589-0.7953 0.1589-1.1505 0-2.0833-0.9328-2.0833-2.0834-0.000025-1.1505 0.93279-2.0833 2.0833-2.0833 0.7109 0.000008 1.3375 0.3573 1.7135 0.90157 0.2495-0.53125 0.7849-0.90156 1.4115-0.90156 0.863-0.000002 1.5625 0.69948 1.5625 1.5625 0 0.6828-0.4406 1.2573-1.051 1.4698"/>
            </g>
            <g id="g56" transform="translate(.52083 .52083)">
             <path id="path58" sketch:type="MSShapeGroup" fill="#E1E8ED" d="m4.6875 4.1667c-0.2823 0-0.55-0.0573-0.7953-0.1589-0.2818 0.4099-0.7531 0.6797-1.288 0.6797-0.8625 0-1.5625-0.7-1.5625-1.5625 0-0.0318 0.0073-0.0615 0.0093-0.0927-0.61038-0.2125-1.051-0.7865-1.051-1.4698 0-0.86302 0.69948-1.5625 1.5625-1.5625 0.626 0 1.162 0.37031 1.4109 0.90156 0.3766-0.54375 1.0026-0.90156 1.7141-0.90156 1.1505 0 2.0833 0.93281 2.0833 2.0833 0 1.1506-0.9328 2.0834-2.0833 2.0834"/>
            </g>
           </g>
          </g>
         </g>
        </g>
       </g>
      </g>
      <g id="1f634" transform="translate(199 314)">
       <g id="g10" transform="translate(13.854 13.854) scale(1 -1) translate(-13.854 -13.854)">
        <g id="g12">
         <g id="g14-Clipped">
          <mask id="mask-22" sketch:name="path18" fill="white">
           <use xlink:href="#path-21"/>
          </mask>
          <g id="g14" mask="url(#mask-22)">
           <g transform="translate(1.4583 1.4583)">
            <g id="g20">
             <path id="path22" sketch:type="MSShapeGroup" fill="#FFCC4D" d="m24.792 12.396c0-6.8463-5.55-12.396-12.396-12.396-6.8456 0-12.396 5.5497-12.396 12.396 0 6.845 5.5504 12.396 12.396 12.396 6.846 0 12.396-5.551 12.396-12.396"/>
            </g>
            <g id="g24" transform="translate(10.208 4.375)">
             <path id="path26" sketch:type="MSShapeGroup" fill="#664500" d="m4.375 2.1875c0-1.2082-0.9793-2.1875-2.1875-2.1875s-2.1875 0.97927-2.1875 2.1875c0 1.2075 0.97927 2.1875 2.1875 2.1875s2.1875-0.98 2.1875-2.1875"/>
            </g>
            <g id="g28" transform="translate(5.332 10.491)">
             <path id="path30" sketch:type="MSShapeGroup" fill="#664500" d="m6.5625 2.9167c-0.1283 0.1042-0.3114 0.1072-0.4448 0.0102-0.0095-0.0073-0.9195-0.6577-2.6994-0.6577s-2.6906 0.6504-2.6986 0.6562c-0.13272 0.0992-0.31647 0.097-0.44553-0.0065-0.12979-0.1036-0.17355-0.2815-0.10646-0.4332 0.04448-0.0984 1.0938-2.404 3.2506-2.404 2.1569-0.000033 3.2062 2.3056 3.2499 2.404 0.0664 0.151 0.0226 0.3274-0.1057 0.431"/>
            </g>
            <g id="g32" transform="translate(12.624 10.491)">
             <path id="path34" sketch:type="MSShapeGroup" fill="#664500" d="m6.5625 2.9167c-0.1283 0.1042-0.3106 0.1079-0.4448 0.0102-0.0087-0.0073-0.9195-0.6577-2.6994-0.6577s-2.6913 0.6504-2.6986 0.6562c-0.13272 0.0992-0.31574 0.097-0.44553-0.0065-0.12979-0.1036-0.17355-0.2815-0.10646-0.4332 0.04375-0.0984 1.0938-2.404 3.2506-2.404 2.1569-0.000033 3.2062 2.3056 3.2499 2.404 0.0664 0.151 0.0234 0.3274-0.1057 0.431"/>
            </g>
            <g id="g36" transform="translate(8.7489 18.134)">
             <path id="path38" sketch:type="MSShapeGroup" fill="#2A6797" d="m2.1875 3.6458h-1.4605c-0.31502 0-0.56877 0.2013-0.56877 0.5513 0 0.3493 0.25375 0.5505 0.56875 0.5505h2.8598c0.1137 0 0.4105-0.0518 0.4105-0.393 0-0.1663-0.0343-0.245-0.1305-0.3763l-1.9856-2.781h1.6618c0.315 0 0.568-0.20126 0.568-0.55126 0-0.34927-0.253-0.55052-0.568-0.55052l-2.9298 0.000001c-0.27997 0-0.51622 0.14-0.51622 0.42875-0.000001 0.14 0.07 0.27052 0.11375 0.34125l1.9768 2.7803z"/>
            </g>
            <g id="g40" transform="translate(13.491 19.459)">
             <path id="path42" sketch:type="MSShapeGroup" fill="#2A6797" d="m2.9167 4.375h-1.7063c-0.36748 0-0.66352 0.2348-0.66352 0.6431 0 0.4091 0.29604 0.6439 0.66352 0.6439h3.3396c0.1342 0 0.4812-0.0613 0.4812-0.4594 0-0.194-0.0408-0.2858-0.1538-0.4397l-2.318-3.2477h1.941c0.3675 0 0.6636-0.2348 0.6636-0.64385 0-0.40833-0.2961-0.64312-0.6636-0.64312h-3.422c-0.32736 0-0.60298 0.16333-0.60298 0.50094 0 0.16333 0.08166 0.31643 0.1327 0.39743l2.3086 3.2484z"/>
            </g>
            <g id="g44" transform="translate(18.595 15.539)">
             <path id="path46" sketch:type="MSShapeGroup" fill="#2A6797" d="m3.6458 5.8333h-2.1933c-0.4725 0-0.85312 0.3019-0.85312 0.8269s0.38062 0.8276 0.85312 0.8276h4.2941c0.1706 0 0.6168-0.0787 0.6168-0.5913 0-0.2487-0.0532-0.3675-0.1968-0.5644l-2.9809-4.1752h2.4952c0.4718 0 0.8532-0.3019 0.8532-0.8269s-0.3814-0.82688-0.8532-0.82688h-4.399c-0.42002 0-0.7744 0.21-0.7744 0.64308 0 0.21 0.105 0.4069 0.17062 0.5119l2.9677 4.1752z"/>
            </g>
           </g>
          </g>
         </g>
        </g>
       </g>
      </g>
      <g id="1f4ad" transform="translate(336 35)">
       <g id="g10" sketch:type="MSShapeGroup" fill="#BDDDF4" transform="translate(32 22) scale(1 -1) translate(-32 -21.5)">
        <g id="g12">
         <g id="g14-Clipped">
          <g id="g14" transform="translate(0.25 0.75)">
           <g id="g20" transform="translate(0 6.5)">
            <path id="path22" d="m54 29.75c-1.459 0-2.831-0.362-4.04-0.992-0.466 0.632-6.306 3.785-10.21 3.492-5.505-0.414-9.5-4.5-9.5-4.5s-5 6-10.798 6.844c-6.19 0.901-11.842-4.225-13.652-10.045-3.3225-0.771-5.8-3.743-5.8-7.299 0-3.724 2.7175-6.806 6.2762-7.3912 0.27-4.9363 4.3458-8.8588 9.3488-8.8588 2.72 0 5.163 1.1662 6.875 3.0162 1.712-1.85 3.25-3.0161 6.875-3.0162 11.94-0.00024 10.375 4.25 10.375 4.25s5-4.25 11-2 7 5.7308 7 7.125c0 0.887-0.131 1.743-0.361 2.556 3.149 1.324 5.361 4.438 5.361 8.069 0 4.832-3.918 8.75-8.75 8.75z"/>
           </g>
           <g id="g24" transform="translate(1.25)">
            <path id="path26" d="m7.5 3.75c0-2.0712-1.6788-3.75-3.75-3.75s-3.75 1.6788-3.75 3.75 1.6788 3.75 3.75 3.75 3.75-1.6788 3.75-3.75"/>
           </g>
          </g>
         </g>
        </g>
       </g>
       <text id="Boring..." font-size="12" font-family="Harmonia Sans Pro Cyr" sketch:type="MSTextLayer" fill="#58402C">
        <tspan y="22.5999972" x="11.5">Boring...</tspan>
       </text>
      </g>
      <g id="1f62b" transform="translate(92 160)">
       <g id="g10" transform="translate(12.865 12.865) scale(1 -1) translate(-12.865 -12.865)">
        <g id="g12">
         <g id="g14-Clipped">
          <mask id="mask-24" sketch:name="path18" fill="white">
           <use xlink:href="#path-23"/>
          </mask>
          <g id="g14" mask="url(#mask-24)">
           <g transform="translate(1.3542 1.3542)">
            <g id="g20">
             <path id="path22" sketch:type="MSShapeGroup" fill="#FFCC4D" d="m23.021 11.51c0-6.3567-5.153-11.51-11.511-11.51-6.3567 0-11.51 5.1533-11.51 11.51 0 6.358 5.1533 11.511 11.51 11.511 6.358 0 11.511-5.153 11.511-11.511"/>
            </g>
            <g id="g24" transform="translate(4.0625 3.0469)">
             <path id="path26" sketch:type="MSShapeGroup" fill="#664500" d="m7.4479 6.0938c-6.3192 0-7.0992-5.6564-7.1066-5.7133-0.01495-0.11508 0.0311-0.22951 0.12115-0.30399 0.06094-0.050104 0.13745-0.07651 0.21463-0.07651 0.03589 0 0.07177 0.0060938 0.10698 0.016927 0.03995 0.013542 4.0408 1.3373 6.6638 1.3373 3.7881 0 6.5981-1.3088 6.6261-1.3217 0.109-0.052135 0.243-0.040625 0.343 0.031823 0.1 0.072447 0.153 0.19365 0.138 0.3162-0.008 0.05688-0.788 5.7133-7.1071 5.7133"/>
            </g>
            <g id="g28" transform="translate(12.865 16.927)">
             <path id="path30" sketch:type="MSShapeGroup" fill="#664500" d="m6.0938 0c-3.7606 0-5.2826 2.9568-5.3456 3.0828-0.16726 0.3344-0.03117 0.7414 0.3033 0.9086 0.3338 0.1659 0.7394 0.0318 0.9073-0.3006 0.0501-0.0982 1.2323-2.3366 4.135-2.3366 0.3744 0 0.677-0.3034 0.677-0.67712 0-0.37375-0.3026-0.67708-0.677-0.67708"/>
            </g>
            <g id="g32" transform="translate(3.3854 16.927)">
             <path id="path34" sketch:type="MSShapeGroup" fill="#664500" d="m0.67708 0c-0.37375 0-0.67708 0.30333-0.67708 0.67708 0 0.37372 0.30333 0.67712 0.67708 0.67712 3.4416 0 4.0598 2.1125 4.0848 2.2025 0.0982 0.3575 0.4686 0.5742 0.8254 0.4801 0.3588-0.0941 0.5762-0.4557 0.4861-0.8159-0.0331-0.1314-0.8572-3.2209-5.3963-3.2209"/>
            </g>
            <g id="g36" transform="translate(7.4479 6.7708)">
             <path id="path38" sketch:type="MSShapeGroup" fill="#CCD6DD" d="m4.0625 1.3542c2.7083 0 4.0625-1.3542 4.0625-1.3542h-8.125s1.3542 1.3542 4.0625 1.3542"/>
            </g>
            <g id="g40" transform="translate(2.0319 10.833)">
             <path id="path42" sketch:type="MSShapeGroup" fill="#664500" d="m1.3542 0c-0.2059 0-0.40899 0.093438-0.54238 0.27083-0.22411 0.29927-0.16385 0.72381 0.13542 0.94797 0.09686 0.0724 1.9981 1.4773 4.6421 1.9852-1.6758 0.8402-3.5357 0.8585-3.5594 0.8585-0.3738 0.0007-0.6764 0.3047-0.6757 0.6778 0 0.3737 0.3026 0.6764 0.6764 0.6764 0.1496 0 3.6914-0.0258 5.8953-2.2297 0.1937-0.1936 0.2519-0.4848 0.147-0.738-0.105-0.2525-0.3521-0.4178-0.6257-0.4178-3.1233 0-5.6624-1.8768-5.6875-1.8958-0.1218-0.09139-0.2647-0.1354-0.4055-0.1354"/>
            </g>
            <g id="g44" transform="translate(12.864 10.834)">
             <path id="path46" sketch:type="MSShapeGroup" fill="#664500" d="m6.7708 0c-0.1408 0-0.283 0.043333-0.4049 0.13406-0.0257 0.01964-2.5803 1.8965-5.6881 1.8965-0.27358 0-0.52139 0.1652-0.62566 0.4177-0.10495 0.2533-0.046723 0.5444 0.14692 0.7381 2.2045 2.2039 5.7457 2.2296 5.8953 2.2296 0.3738 0 0.6758-0.3027 0.6764-0.6764 0.0007-0.3731-0.3019-0.6771-0.675-0.6778-0.0244 0-1.8843-0.0183-3.5601-0.8585 2.644-0.5078 4.5452-1.9128 4.6421-1.9852 0.2986-0.22414 0.3595-0.64732 0.1361-0.94727-0.1334-0.17672-0.3366-0.27083-0.5431-0.27083"/>
            </g>
           </g>
          </g>
         </g>
        </g>
       </g>
      </g>
     </g>
    </g>
   </g>
  </g>
 </g>
</svg>
