<?xml version="1.0" encoding="UTF-8" standalone="no"?>
<svg xmlns:sketch="http://www.bohemiancoding.com/sketch/ns" xmlns="http://www.w3.org/2000/svg" height="329px" width="414px" version="1.1" xmlns:xlink="http://www.w3.org/1999/xlink" viewBox="0 0 414 329"><!-- Generator: Sketch 3.4 (15575) - http://www.bohemiancoding.com/sketch -->
 <title>Group</title>
 <desc>Created with Sketch.</desc>
 <defs>
  <path id="path-1" d="m0 21.771h21.771v-21.771h-21.771v21.771z"/>
  <path id="path-3" d="m0 29.688h29.688v-29.688h-29.688v29.688z"/>
  <path id="path-5" d="m0 39.583h39.583v-39.583h-39.583v39.583z"/>
  <path id="path-7" d="m0 21.771h21.771v-21.771l-21.771 1.3145e-13v21.771z"/>
  <path id="path-9" d="m0 25.729h25.729v-25.729h-25.729v25.729z"/>
  <path id="path-11" d="m0 19.792h19.792v-19.792h-19.792v19.792z"/>
  <path id="path-13" d="m0 27.708h27.708v-27.708h-27.708v27.708z"/>
  <path id="path-15" d="m0 23.75h23.75v-23.75h-23.75v23.75z"/>
  <path id="path-17" d="m0 23.75h23.75v-23.75h-23.75v23.75z"/>
  <path id="path-19" d="m0 23.75h23.75v-23.75h-23.75v23.75z"/>
  <path id="path-21" d="m0 47.5h47.5v-47.5h-47.5v47.5z"/>
 </defs>
 <g id="Marketing-Page" fill-rule="evenodd" sketch:type="MSPage" fill="none">
  <g id="landing" transform="translate(-692 -494)" sketch:type="MSArtboardGroup">
   <g id="Hero" transform="translate(160 149)" sketch:type="MSLayerGroup">
    <g id="Hero-Image-5" transform="translate(0 340)">
     <g id="Group" transform="translate(531)">
      <g id="Hero-Image-4-Copy-2" transform="translate(32)">
       <g id="Jack-Copy-+-Mike,-Copy-3" transform="translate(93 5)">
        <g id="Jack-Copy" stroke="#58402C" sketch:type="MSShapeGroup">
         <path id="Oval-483" stroke-width=".5" fill="#FFE7D2" d="m32.5 35c0.37 0 0.703-0.149 1-0.5 0.59-0.696 1.5-2.031 1.5-3.5 0-0.54 0.097-1.53 0-2-0.3-1.453-1.165-2-2-2-1.105 0-2 1.791-2 4s0.395 4 1.5 4z"/>
         <path id="Oval-483-Copy" stroke-width=".5" fill="#FFE7D2" d="m3.5 35c1.1046 0 2-1.791 2-4s-0.8954-4-2-4-3 1.791-3 4 1.8954 4 3 4z"/>
         <path id="Oval-482" stroke-width=".5" fill="#FFE7D2" d="m6.5 42.5c1.2908 1.611 3.1257 2.559 5 3.5 2.089 1.049 4.261 2 6.5 2 2.293 0 5.556-1.396 7.5-2.5 2.384-1.354 3.263-3.106 4.5-5.5 1.399-2.705 3-6.186 3-10 0-2.905-0.153-5.725 0-9 0.112-2.402 0.458-4.801 0-7-0.758-3.636-2.581-7.0665-7.5-8.5-1.931-0.5627-4.648-0.5-7.5-0.5-1.984 0-3.985 0.2582-5.5 0.5-8.4436 1.3479-9.8062 6.098-10 12-0.0488 1.486-0.6184 3.475-0.5 5 0.1985 2.557 1 5.236 1 7.5 0 4.843 0.9074 9.265 3.5 12.5z"/>
         <path id="Rectangle-798" stroke-width=".5" fill="#9C785A" d="m1.4961 23.5c-0.1078-0.435-0.99997-2.281-0.99997-2.5 0-0.226-0.08124-0.683 0-1 0.14991-0.585 0.50627-1.079 0.5-1.5-0.02114-1.415 0.13007-2.61 0-3-0.5-1.5 0-2.67 0-4 0-2.308 0.50387-4 1.0039-4.5 0.5-0.5 2.003-3.1534 4.5-5 3.169-2.3436 8.241-1.5 11.246-1.5h6.25c0.427 0 4.696 0.8881 6 1.5 1.75 0.8211 2 4.5 3.5 6s1.5 4 1 6c-0.218 0.871 0 4.5-0.5 6.5-0.073 0.294-1 5.5-1 5.5s-0.505-1.295-0.5-3.5c0.002-0.807-0.014-3.004 0-3.5 0.116-4.011 0-6 0-6s-2.033 2.367-4 2.5c-3 0.203-3.223-1.64-5-1.5-1.144 0.09-1.834-1.203-3-1-4.332 0.754-5 3.5-11 3.5-5.9999 0-3.763-2.553-4.9999-1-0.2309 0.29-1.3657-0.934-1.5-0.5-0.8005 2.586 0 8.364 0 11 0 0.013 1.513 5.137 2 5.5 0.6482 0.483 1.1472 2.137 2.0039 2.5 0.234 0.099 3.014 0.753 4 1 2 0.5 2.618-0.204 3.996 0s2.316 0.493 2.75 0.5c1.347 0.023 2.62-0.247 4.75-0.5s3.305-0.254 4.504-0.5c0.845-0.173 3.5-1 4.5-3s1.465-6.185 1.496-6c0.062 0.37 1 4.5 0.5 6.5s-0.383 3.42-0.5 5c-0.064 0.87-0.34 1.5-0.34 2.586s-0.483 2.285-0.66 2.914c-0.27 0.962-0.5 2-0.982 2.606-0.194 0.245-0.988 1.848-2.018 2.894-1.518 1.542-3.556 2.674-5 3-1.161 0.262-2.887 0.986-5.5 1-2.079 0.011-5.023-0.602-6.5-1-1.755-0.473-3.0426-0.769-3.9999-1.5-1.8536-1.416-2.5417-3.509-3.5-5-1.4531-2.26-0.6299-3.417-1.5-7.5-0.2775-1.302 0.0483-4.191 0-6.5-0.0329-1.577-0.4636-3.002-0.5-3-0.2083 0.013-0.8616-3.442-1-4z"/>
         <path id="Rectangle-806-Copy" stroke-width=".5" fill="#fff" d="m13.009 37.25h9c1 0 1.17 1.48 0 2.714-1.17 1.235-2.25 2.036-4.5 2.036s-4-1.357-4.5-2.036c-0.5-0.678-1-2.714 0-2.714z"/>
         <path id="Rectangle-792" stroke-width=".5" fill="#FFE7D2" d="m12.25 23.25h9s1.5 0 1.5 4-1.5 4-1.5 4h-9" transform="translate(17.5 27.25) rotate(90) translate(-17.5 -27.25)"/>
         <path id="Oval-485" stroke-width=".5" fill="#58402C" d="m9.5 27c0.5 0 0.5-0.448 0.5-1 0-1-0.7222-1-1-1-0.5523 0-1 0.5-1 1s-0.5 1 1.5 1z"/>
         <path id="Oval-485-Copy" stroke-width=".5" fill="#58402C" d="m26.5 27c0.552 0 0.5-0.448 0.5-1s-0.448-1-1-1-1 0.448-1 1c0 1.5 0.948 1 1.5 1z"/>
         <path id="Line" stroke-width="1.5" stroke-linecap="round" d="m24 20s1.517 0.732 2.5 1c0.851 0.232 2.5 1 2.5 1"/>
         <path id="Line-Copy-67" stroke-width="1.5" stroke-linecap="round" d="m6.5 21.5s0.6282-0.043 2-0.5 2.5-1 2.5-1"/>
        </g>
        <text id="Mike" font-size="12" font-family="Harmonia Sans Pro Cyr" sketch:type="MSTextLayer" line-spacing="18" sketch:alignment="middle">
         <tspan y="70.8760049" x="5.826" fill="#58402C">Mike</tspan>
         <tspan y="91.2760097" x="8.04" font-size="10" line-spacing="15" fill="#BDB5AF">CTO</tspan>
        </text>
       </g>
       <g id="Jack-Copy-2-+-Jake," transform="translate(275 197)">
        <g id="Jack-Copy-2" sketch:type="MSShapeGroup" transform="translate(1)">
         <path id="Oval-483" stroke="#58402C" stroke-width=".5" fill="#FFE7D2" d="m32.5 35c0.37 0 0.703-0.149 1-0.5 0.59-0.696 1-1 1.5-3.5s-1.165-4-2-4c-1.105 0-2 1.791-2 4s0.395 4 1.5 4z"/>
         <path id="Oval-483-Copy" stroke="#58402C" stroke-width=".5" fill="#FFE7D2" d="m3.5 35c1.1046 0 2-1.791 2-4s-0.8954-4-2-4c-0.7249 0-2.0012 0.845-2.5 2-0.2613 0.605 0 1.241 0 2 0 2.209 1.3954 4 2.5 4z"/>
         <path id="Oval-482" stroke="#58402C" stroke-width=".5" fill="#FFE7D2" d="m5.5 35c0.4827 2.842-0.6591 5.43 1 7.5 1.2908 1.611 3.1257 2.559 5 3.5 2.089 1.049 4.261 2 6.5 2 2.293 0 5.556-1.396 7.5-2.5 2.384-1.354 3.263-3.106 4.5-5.5 1.043-2.019-0.02-4.302 0.5-7 0.177-0.918 1.5-0.532 1.5-1.5 0-1.576 0.747-3.484 1-5.5 0.213-1.7-0.07-3.502 0-5 0.112-2.402 0.458-4.801 0-7-0.758-3.636-2.581-7.0665-7.5-8.5-1.931-0.5627-4.648-0.5-7.5-0.5-1.984 0-3.985 0.2582-5.5 0.5-8.4436 1.3479-9.8062 6.098-10 12-0.0488 1.486-0.6184 3.475-0.5 5 0.1985 2.557 1 5.236 1 7.5 0 1.744 2.2284 3.401 2.5 5z"/>
         <path id="Rectangle-798" stroke="#58402C" stroke-width=".5" fill="#FFAF6C" d="m2.4961 14.5c-0.5-1.5 0-2.17 0-3.5 0-2.308 0.5039-7 1.0039-7.5s0.503 0.3466 3-1.5c3.169-2.3436 8.241-1.5 11.246-1.5h6.25c0.427 0 4.696 0.8881 6 1.5 1.75 0.8211 1.16 4 2.66 5.5s0.34 18.5 0.34 18.5-0.505-1.295-0.5-3.5c0.002-0.807-0.014-3.004 0-3.5 0.027-0.936 0.154-1.784 0.16-2.5 0.021-2.353-0.16-3.5-0.16-3.5s0.471-1.633-1.496-1.5c-3 0.203-0.223-2.1399-2-2-1.144 0.0901-2.334-1.2031-3.5-1-4.332 0.7542-1.754 0.5-7.754 0.5s-10.509-0.0527-11.746 1.5c-0.231 0.29-2.8696 4.066-3.0039 4.5-0.4843 1.565-1.152 4.501-0.9961 7 0.1018 1.631 0.9961 2.959 0.9961 4 0 0.013 1.513 5.137 2 5.5 0.6482 0.483 2.1434 1.137 3 1.5 0.234 0.099-1.0259 0.468 2.9999 1.5 3.512 0.9 2.622 0.296 4 0.5s2.316 0.493 2.75 0.5c1.347 0.023 2.62-0.247 4.75-0.5s2.801-1.254 4-1.5c0.845-0.173 2.5-1.5 3.5-3.5s2.969-4.685 3-4.5c0.062 0.37 0 4.5-0.5 6.5s-0.379 2.42-0.496 4c-0.065 0.87-0.5 0.914-0.5 2s-1.022 4.894-1.504 5.5c-0.195 0.245 0.034 0.56-0.996 1.606-1.518 1.542-3.056 2.568-4.5 2.894-1.161 0.262-3.387 1.986-6 2-2.079 0.011-5.023-1.102-6.5-1.5-1.755-0.473-3.0466-1.269-4.0039-2-1.8536-1.416-0.5378 0.096-1.4961-1.394-1.4531-2.261-1.1338-2.523-2.0039-6.606-0.2775-1.302-1.4517-5.691-1.5-8-0.0329-1.577-0.4636-3.002-0.5-3-0.2083 0.013 0.1301-12.61 0-13z"/>
         <path id="Rectangle-806-Copy-2" stroke="#58402C" stroke-width=".5" fill="#fff" d="m13.577 37c0.508 0 2.471 0.5 4.5 0.5 1.97 0 4.008-0.5 4.5-0.5 1 0 0.593 0.544-0.577 1.779s-3.25 0.721-5.5 0.721-4.5-1.321-5-2 1.077-0.5 2.077-0.5z"/>
         <path id="Rectangle-792" d="m12.498 25.502h6c0.612 0 0.5-1.5 2-1.5h0.5s1.123 0.598 1.5 1c0.579 0.614 0.5 1.256 0.5 2.415 0 1.915-1 3.085-2.5 3.085s-1.295-1.17-2-1.17h-6" transform="translate(17.75 27.252) rotate(90) translate(-17.75 -27.252)" stroke="#58402C" stroke-width=".5" fill="#FFE7D2"/>
         <path id="Oval-485" stroke="#58402C" stroke-width=".5" fill="#58402C" d="m9.5 27c0.5 0 0.5-0.448 0.5-1 0-1-0.7222-1-1-1-0.5523 0-1 0.5-1 1s-0.5 1 1.5 1z"/>
         <path id="Oval-485-Copy" stroke="#58402C" stroke-width=".5" fill="#58402C" d="m26.5 27c0.552 0 0.5-0.448 0.5-1s-0.448-1-1-1-1 0.448-1 1c0 1.5 0.948 1 1.5 1z"/>
         <path id="Line" d="m24 19s1.517 0.732 2.5 1c0.851 0.232 2.5 1 2.5 1" transform="translate(26.5 20) rotate(-18) translate(-26.5 -20)" stroke="#FFAF6C" stroke-linecap="round" stroke-width="1.5"/>
         <path id="Line-Copy-67" d="m6.5 20.5s0.6282-0.043 2-0.5 2.5-1 2.5-1" transform="translate(8.75 19.75) rotate(18) translate(-8.75 -19.75)" stroke="#FFAF6C" stroke-linecap="round" stroke-width="1.5"/>
         <circle id="Oval-504" cy="28.5" cx="6.5" fill="#FFAF6C"/>
         <circle id="Oval-504-Copy" cy="29.5" cx="11.5" fill="#FFAF6C"/>
         <circle id="Oval-504-Copy-3" cy="29.5" cx="24.5" fill="#FFAF6C"/>
         <circle id="Oval-504-Copy-4" cy="28.5" cx="27.5" fill="#FFAF6C"/>
         <circle id="Oval-504-Copy-5" cy="31.5" cx="26.5" fill="#FFAF6C"/>
         <circle id="Oval-504-Copy-2" cy="30.5" cx="8.5" fill="#FFAF6C"/>
        </g>
        <text id="Jake" font-size="12" font-family="Harmonia Sans Pro Cyr" sketch:type="MSTextLayer" line-spacing="18" sketch:alignment="middle">
         <tspan y="70.3760049" x="8.306" fill="#58402C">Jake</tspan>
         <tspan y="90.7760097" x="0.285" font-size="10" line-spacing="15" fill="#BDB5AF">Designer</tspan>
        </text>
       </g>
       <g id="Jack-Copy-3-+-Emmet," transform="translate(0 202)">
        <g id="Jack-Copy-3" stroke="#58402C" sketch:type="MSShapeGroup" transform="translate(2)">
         <path id="Oval-483" stroke-width=".5" fill="#B49982" d="m32.5 31c0.37 0 0.703-0.149 1-0.5 0.59-0.696 1.5-2.031 1.5-3.5 0-0.54 0.597-2.53 0.5-3-0.3-1.453-2.665-1.5-3.5-1.5-1.105 0-1 2.291-1 4.5s0.395 4 1.5 4z"/>
         <path id="Oval-483-Copy" stroke-width=".5" fill="#B49982" d="m3.5 31c1.1046 0 2-1.791 2-4s-0.8954-5-2-5c-0.529 0-2.4033 0.329-3 1-0.64926 0.73 0 2.849 0 4 0 2.209 1.8954 4 3 4z"/>
         <path id="Oval-482" stroke-width=".5" fill="#B49982" d="m3 31c0.4827 2.842 1.8409 5.43 3.5 7.5 1.2908 1.611 3.1257 2.559 5 3.5 2.089 1.049 4.261 2 6.5 2 2.293 0 5.556-1.396 7.5-2.5 2.384-1.354 3.263-3.106 4.5-5.5 1.043-2.019 1.48-3.302 2-6 0.177-0.918 0.5-2.032 0.5-3 0-1.576 0.247-2.984 0.5-5 0.213-1.7-0.07-3.502 0-5 0.112-2.402 0.458-4.801 0-7-0.758-3.636-2.581-7.0665-7.5-8.5-1.931-0.56272-4.648-0.5-7.5-0.5-1.984 0-3.985 0.2582-5.5 0.5-8.4436 1.3479-9.8062 6.0976-10 12-0.0488 1.486-0.6184 3.475-0.5 5 0.1985 2.557 1 5.236 1 7.5 0 1.744-0.2716 3.401 0 5z"/>
         <path id="Line-Copy-71" opacity=".40374" stroke-width=".5" stroke-linecap="round" d="m8 28.5v11.3"/>
         <path id="Line-Copy-72" opacity=".40374" stroke-width=".5" stroke-linecap="round" d="m7 28.5v10.5"/>
         <path id="Line-Copy-87" opacity=".40374" stroke-width=".5" stroke-linecap="round" d="m6 27.999v9.801"/>
         <path id="Line-Copy-88" opacity=".40374" stroke-width=".5" stroke-linecap="round" d="m5 28v8.3"/>
         <path id="Line-Copy-105" opacity=".40374" stroke-width=".5" stroke-linecap="round" d="m4 27v7.3"/>
         <path id="Line-Copy-128" opacity=".40374" stroke-width=".5" stroke-linecap="round" d="m3 26v4.8"/>
         <path id="Line-Copy-86" opacity=".40374" stroke-width=".5" stroke-linecap="round" d="m9 29v11.5"/>
         <path id="Line-Copy-89" opacity=".40374" stroke-width=".5" stroke-linecap="round" d="m10 29v12"/>
         <path id="Line-Copy-106" opacity=".40374" stroke-width=".5" stroke-linecap="round" d="m11 29v12.6"/>
         <path id="Line-Copy-107" opacity=".40374" stroke-width=".5" stroke-linecap="round" d="m12 29v13"/>
         <path id="Line-Copy-108" opacity=".40374" stroke-width=".5" stroke-linecap="round" d="m13 29v13.5"/>
         <path id="Line-Copy-109" opacity=".40374" stroke-width=".5" stroke-linecap="round" d="m14 29v14"/>
         <path id="Line-Copy-110" opacity=".40374" stroke-width=".5" stroke-linecap="round" d="m15 29v14.4"/>
         <path id="Line-Copy-111" opacity=".40374" stroke-width=".5" stroke-linecap="round" d="m16 29v14.5"/>
         <path id="Line-Copy-112" opacity=".40374" stroke-width=".5" stroke-linecap="round" d="m17 29v14.8"/>
         <path id="Line-Copy-113" opacity=".40374" stroke-width=".5" stroke-linecap="round" d="m18 29v15"/>
         <path id="Line-Copy-114" opacity=".40374" stroke-width=".5" stroke-linecap="round" d="m19 29v14.8"/>
         <path id="Line-Copy-115" opacity=".40374" stroke-width=".5" stroke-linecap="round" d="m20 29v14.7"/>
         <path id="Line-Copy-116" opacity=".40374" stroke-width=".5" stroke-linecap="round" d="m21 29v14.2"/>
         <path id="Line-Copy-117" opacity=".40374" stroke-width=".5" stroke-linecap="round" d="m22 29v14"/>
         <path id="Line-Copy-118" opacity=".40374" stroke-width=".5" stroke-linecap="round" d="m23 29v13.6"/>
         <path id="Line-Copy-119" opacity=".40374" stroke-width=".5" stroke-linecap="round" d="m24 29v13"/>
         <path id="Line-Copy-120" opacity=".40374" stroke-width=".5" stroke-linecap="round" d="m25 29v12.5"/>
         <path id="Line-Copy-121" opacity=".40374" stroke-width=".5" stroke-linecap="round" d="m26 28.5v12.5"/>
         <path id="Line-Copy-122" opacity=".40374" stroke-width=".5" stroke-linecap="round" d="m27 28v12.3"/>
         <path id="Line-Copy-123" opacity=".40374" stroke-width=".5" stroke-linecap="round" d="m28 28v11.4"/>
         <path id="Line-Copy-124" opacity=".40374" stroke-width=".5" stroke-linecap="round" d="m29 28v9.7"/>
         <path id="Line-Copy-125" opacity=".40374" stroke-width=".5" stroke-linecap="round" d="m30 28v8"/>
         <path id="Line-Copy-126" opacity=".40374" stroke-width=".5" stroke-linecap="round" d="m31 27v6.8"/>
         <path id="Line-Copy-127" opacity=".40374" stroke-width=".5" stroke-linecap="round" d="m32 26v3.8"/>
         <path id="Rectangle-806-Copy" stroke-width=".5" fill="#fff" d="m13.009 33.25h9c1 0 1.17 1.48 0 2.714-1.17 1.235-2.25 2.036-4.5 2.036s-4-1.357-4.5-2.036c-0.5-0.678-1-2.714 0-2.714z"/>
         <path id="Rectangle-792" stroke-width=".5" fill="#B49982" d="m12.25 20.75s4.445 0.343 6.5 0c0.945-0.157 1.5-1.5 2.5-1.5s1.5 0 1.5 4-0.5 4-1.5 4-1.997-1.416-2.5-1.5c-2.497-0.416-6.5 0-6.5 0" transform="translate(17.5 23.25) rotate(90) translate(-17.5 -23.25)"/>
         <path id="Oval-485" stroke-width=".5" fill="#58402C" d="m9.5 23c0.5 0 0.5-0.448 0.5-1 0-1-0.7222-1-1-1-0.5523 0-1 0.5-1 1s-0.5 1 1.5 1z"/>
         <path id="Oval-485-Copy" stroke-width=".5" fill="#58402C" d="m26.5 23c0.552 0 0.5-0.448 0.5-1s-0.448-1-1-1-1 0.448-1 1c0 1.5 0.948 1 1.5 1z"/>
         <path id="Line" stroke-width="1.5" stroke-linecap="round" d="m24 15s1.517 0.732 2.5 1c0.851 0.232 2.5 1 2.5 1" transform="translate(26.5 16) rotate(-18) translate(-26.5 -16)"/>
         <path id="Line-Copy-67" stroke-width="1.5" stroke-linecap="round" d="m6.5 16.5s0.6282-0.043 2-0.5 2.5-1 2.5-1" transform="translate(8.75 15.75) rotate(18) translate(-8.75 -15.75)"/>
        </g>
        <text id="Emmet" font-size="12" font-family="Harmonia Sans Pro Cyr" sketch:type="MSTextLayer" line-spacing="18" sketch:alignment="middle">
         <tspan y="66" x="1.37" fill="#58402C">Emmet</tspan>
         <tspan y="86.4000049" x="0.555" font-size="10" line-spacing="15" fill="#BDB5AF">Engineer</tspan>
        </text>
       </g>
       <g id="1f4ac-copy-3" transform="translate(66.5 212.5) scale(-1 1) translate(-25.5 -25.5)">
        <g id="g10" sketch:type="MSShapeGroup" fill="#BDDDF4" transform="translate(25.5 25.5) scale(1 -1) translate(-25.5 -25)">
         <g id="g12">
          <g id="g14-Clipped">
           <g id="g14" transform="translate(0.25 0.5)">
            <g id="g20">
             <path id="path22" d="m49.952 26.154c0.032-0.381 0.048-0.766 0.048-1.154 0-5.46-3.218-10.335-8.255-13.544 0.655-2.886 2.181-7.1672 5.755-11.456-6.664 1.111-11.102 4.1948-13.983 7.28-2.658-0.8283-5.526-1.28-8.517-1.28-13.807 0-25 9.626-25 21.5s11.193 21.5 25 21.5 25-9.626 25-21.5c0-0.452-0.016-0.901-0.048-1.346z"/>
            </g>
           </g>
          </g>
         </g>
        </g>
        <text id="I’m-" font-size="12" font-family="Harmonia Sans Pro Cyr" sketch:alignment="middle" transform="translate(25.5 22.376) scale(-1 1) translate(-25.5 -22.376)" sketch:type="MSTextLayer" fill="#58402C">
         <tspan y="16.8760049" x="17.58">I’m</tspan>
         <tspan y="31.2760097" x="7.32">happy!</tspan>
        </text>
       </g>
       <g id="Bill-+-Emmet," transform="translate(5 53)">
        <g id="Bill" sketch:type="MSShapeGroup">
         <path id="Oval-483" stroke="#58402C" stroke-width=".5" fill="#FFE7D2" d="m31 34c1.022 0.5 1.536-1.571 2-2.5 0.178-0.356 1.062-4.197 1-4.5-0.3-1.453-1.144-2-1.978-2-1.105 0-2.022 3.791-2.022 6s-0.022 2.5 1 3z"/>
         <path id="Oval-483-Copy" stroke="#58402C" stroke-width=".5" fill="#FFE7D2" d="m4 34c1.1046 0 2-1.791 2-4s-0.8954-5-2-5-3-0.209-3 2 1.8954 7 3 7z"/>
         <path id="Oval-482" stroke="#58402C" stroke-width=".5" fill="#FFE7D2" d="m6 36.5c1.0871 2.556 1.4809 5.104 3 7 1.291 1.611 3 5.366 9 5.5s9.263-6.606 10.5-9c1.399-2.705 2-4 3-8.5 0.617-2.778 1.347-6.225 1.5-9.5 0.112-2.402 0.458-4.801 0-7-0.758-3.636-2.581-7.0665-7.5-8.5-1.931-0.5627-4.648-0.5-7.5-0.5-1.984 0-3.985 0.2582-5.5 0.5-8.4436 1.3479-9.8062 6.098-10 12-0.0488 1.486-0.6184 3.475-0.5 5 0.1985 2.557 1.5 5.236 1.5 7.5 0 2.005 1.7318 3.693 2.5 5.5z"/>
         <path id="Rectangle-798" stroke="#58402C" stroke-width=".5" fill="#F2E85C" d="m1 19.5c-0.02113-1.415 0.1301-2.61 0-3-0.5-1.5 0-2.67 0-4 0-1.447 3.5684-6.311 4.5-7 0.0785-0.0581 0.7049-1.7594 2.5-2.5 2.931-1.2092 8.168-1.6492 9-1.5 1.227 0.2201 3.287 0.5098 4.5 0 4.001-1.6811 9.535 0.8511 10.5 1 0.486 0.0749 1.864 0.5703 1.5 1-0.293 0.3455-0.894 4.6059 0 5.5 1.073 1.073 0.564 8.643 0.5 13.5-0.026 1.931-0.5 3.5-0.5 3.5l-1-0.5s-0.004-0.312 0-2c0.002-0.807-0.014-3.004 0-3.5 0.116-4.011 0-6 0-6s-2.334-0.74-3.5-0.537c-4.332 0.754-13-1.963-19-1.963s-4.2631 3.447-5.5 5c-0.231 0.29-1.3657-0.934-1.5-0.5-0.8005 2.586-0.5 6.864-0.5 9.5 0 0.071-0.2405 0.019-0.5 0-0.2397-0.018-0.5 0-0.5 0s-0.4937-5.579-0.5-6z"/>
         <path id="Rectangle-792" d="m12.25 27.25l9-2s1.5 0 1.5 3-1.5 3-1.5 3l-9-2" transform="translate(17.5 28.25) rotate(90) translate(-17.5 -28.25)" stroke="#58402C" stroke-width=".5" fill="#FFE7D2"/>
         <path id="Line" stroke="#58402C" stroke-width=".5" stroke-linecap="round" d="m14.5 24s1-1 3-1 3 1 3 1"/>
         <path id="Line-Copy-81" stroke="#58402C" stroke-width=".5" stroke-linecap="round" d="m2.5 25h4.5"/>
         <path id="Line-Copy-82" stroke="#58402C" stroke-width=".5" stroke-linecap="round" d="m27 25h5.5"/>
         <circle id="Oval-492" r="4" cy="25.499" stroke="#58402C" cx="11" stroke-width=".5" fill="#FFE7D2"/>
         <circle id="Oval-492-Copy" r="4" cy="25.499" stroke="#58402C" cx="24" stroke-width=".5" fill="#FFE7D2"/>
         <path id="Oval-485" stroke="#58402C" stroke-width=".5" fill="#58402C" d="m11.5 27c0.5 0 0.5-0.448 0.5-1 0-1-0.722-1-1-1-0.552 0-1 0.5-1 1s-0.5 1 1.5 1z"/>
         <path id="Oval-485-Copy" stroke="#58402C" stroke-width=".5" fill="#58402C" d="m24.5 27c0.552 0 0.5-0.448 0.5-1s-0.448-1-1-1-1 0.448-1 1c0 1.5 0.948 1 1.5 1z"/>
         <path id="Line" stroke="#B49982" stroke-width="1.5" stroke-linecap="round" d="m21.5 20.5s1.482-0.5 2.5-0.5c0.649 0 2.5 0.5 2.5 0.5"/>
         <path id="Line-Copy-67" stroke="#B49982" stroke-width="1.5" stroke-linecap="round" d="m8.5 20.5s0.982-0.5 2-0.5h1c0.649 0 1.5 0.5 1.5 0.5"/>
         <path id="Rectangle-806" stroke="#58402C" stroke-width=".5" fill="#fff" d="m13 38h9c1 0 1.17 1.09 0 2s-2.25 1.5-4.5 1.5-4-1-4.5-1.5-1-2 0-2z"/>
         <path id="Line-Copy-69" d="m16.5 44.25h3" transform="translate(18 44.25) rotate(180) translate(-18 -44.25)" stroke="#58402C" stroke-linecap="round" stroke-width=".5"/>
        </g>
        <text id="Sam" font-size="12" font-family="Harmonia Sans Pro Cyr" sketch:type="MSTextLayer" line-spacing="18" sketch:alignment="middle">
         <tspan y="71" x="7.428" fill="#58402C">Sam</tspan>
         <tspan y="91.4000049" x="7.795" font-size="10" line-spacing="15" fill="#BDB5AF">Sales</tspan>
        </text>
       </g>
       <path id="Line-Copy-91" d="m27.965 13.138s15.402-2.185 28.026 7.964 20 24.5 20 24.5" sketch:type="MSShapeGroup" transform="translate(51.978 29.271) rotate(-60) translate(-51.978 -29.271)" stroke="#BDB5AF" stroke-linecap="round" stroke-dasharray="3"/>
       <path id="Line-Copy-92" d="m130.95 99.822s19.13-1.737 31.76 8.408c12.62 10.15 16.27 24.06 16.27 24.06" sketch:type="MSShapeGroup" transform="translate(154.97 116) rotate(159) translate(-154.97 -116)" stroke="#BDB5AF" stroke-linecap="round" stroke-dasharray="3"/>
       <path id="Line-Copy-129" d="m99.998 67.913s-19.718 47.757 21.652 67.757c26.09 12.62 44.39 33.65 34.58 62.01-9.82 28.37-21.49 23.89-21.49 23.89" sketch:type="MSShapeGroup" transform="translate(127.11 144.87) rotate(159) translate(-127.11 -144.87)" stroke="#BDB5AF" stroke-linecap="round" stroke-dasharray="3"/>
       <path id="Line-Copy-98" d="m26.954 299.82s19.129-1.73 31.753 8.41c12.625 10.15 16.273 24.06 16.273 24.06" sketch:type="MSShapeGroup" transform="translate(50.967 316) rotate(159) translate(-50.967 -316)" stroke="#BDB5AF" stroke-linecap="round" stroke-dasharray="3"/>
       <path id="Line-Copy-99" d="m142.01 302.77s21.76-4.05 21.76 16.66c0 20.72 21.76 8.61 21.76 8.61" sketch:type="MSShapeGroup" transform="translate(163.77 317) rotate(159) translate(-163.77 -317)" stroke="#BDB5AF" stroke-linecap="round" stroke-dasharray="3"/>
       <path id="Line-Copy-100" d="m229.67 301.78s20.52-11.19 36.26-3.76c15.73 7.43 28.66 24.39 28.66 24.39" sketch:type="MSShapeGroup" transform="translate(262.13 308.94) rotate(159) translate(-262.13 -308.94)" stroke="#BDB5AF" stroke-linecap="round" stroke-dasharray="3"/>
       <path id="Line-Copy-96" d="m232.85 21.759s19.13-1.736 31.75 8.413c12.62 10.148 6.1 26.976 6.1 26.976" sketch:type="MSShapeGroup" transform="translate(252.62 39.397) rotate(-12) translate(-252.62 -39.397)" stroke="#BDB5AF" stroke-linecap="round" stroke-dasharray="3"/>
       <path id="Line-Copy-97" d="m280.14 159.11s5.83 24.58 15.41 17.23c9.59-7.35 15.55 7.76 15.55 7.76" sketch:type="MSShapeGroup" transform="translate(295.62 171.61) rotate(230) translate(-295.62 -171.61)" stroke="#BDB5AF" stroke-linecap="round" stroke-dasharray="3"/>
       <path id="Line-Copy-130" d="m163.77 135.22s52.59 29.11 46.96 45.93c-5.62 16.82 64 25.63 64 25.63" sketch:type="MSShapeGroup" transform="translate(219.25 171) rotate(230) translate(-219.25 -171)" stroke="#BDB5AF" stroke-linecap="round" stroke-dasharray="3"/>
       <path id="Line-Copy-93" d="m119.94 208.32s37.04-25.53 73.93-23.14c36.89 2.4 78.34 33.03 78.34 33.03" sketch:type="MSShapeGroup" transform="translate(196.08 201.61) rotate(-12) translate(-196.08 -201.61)" stroke="#BDB5AF" stroke-linecap="round" stroke-dasharray="3"/>
       <path id="Line-Copy-94" d="m32.849 165.33s22.594 41.91 43.682 13.86c21.089-28.05 55.129-4.05 55.129-4.05" sketch:type="MSShapeGroup" transform="translate(82.255 177.09) rotate(230) translate(-82.255 -177.09)" stroke="#BDB5AF" stroke-linecap="round" stroke-dasharray="3"/>
       <g id="Anna-Copy-+-Jessica," transform="translate(182 212)">
        <g id="Anna-Copy" stroke="#58402C" sketch:type="MSShapeGroup">
         <path id="Rectangle-798-Copy-2" stroke-width=".5" fill="#F2E85C" d="m21.5 37s-17.152-7.652-17.5-8c-2-2-2.4393-4.318-2.5-4.5-0.5-1.5 0.7728-6.67 0.7728-8 0-1.447 0.7956-1.811 1.7272-2.5 0.0529-0.039-0.2508-2.144 5-6 1.347-0.9895-1.5-8 11.5-8 8.997 1.0025e-8 7.735 7.5381 9.5 8 5.86 1.5335 4.328 4.556 4.773 5 0.507 0.507 1.831 5.354 1.727 8.5-0.115 3.508-1.693 5.439-1.727 8-0.009 0.668-13.273 7.5-13.273 7.5z"/>
         <path id="Oval-524" stroke-width=".5" fill="#FFE7D2" d="m33.5 39.5c1.105 0 4.5-3.186 4.5-6.5s-3-4.5-4-4.5 0 2.186 0 5.5-1.605 5.5-0.5 5.5z"/>
         <path id="Oval-524-Copy" stroke-width=".5" fill="#FFE7D2" d="m0.98802 39.5c1.1046 0 4.5-3.186 4.5-6.5s-3-4.5-4-4.5c-0.99998 0 0 2.186 0 5.5s-1.6046 5.5-0.49998 5.5z" transform="translate(3.044 34) scale(-1 1) translate(-3.044 -34)"/>
         <path id="Oval-520-Copy" stroke-width=".5" fill="#FFE7D2" d="m4 29.5c-0.2871 1.142-0.0837 3.287 0 4.5 0.1637 2.372 0.6788 4.912 1 6 1.2088 4.093 3.4125 7.862 6 10.5 2.636 2.688 4.495 4.5 8 4.5 3.925 0 7.716-3.701 10.5-7 1.612-1.91 2.341-3.506 3.5-6 1.346-2.895 2-5.79 2-9.5 0-1.83 0.161-6.122-1.5-7.5-1.781-1.477-1.5-10-5.5-10h-4.5c-1.738 0-9.479 5.671-12 6.5-4.039 1.328-3.4959 4.709-5.5 6-0.8455 0.545-1.6871 0.756-2 2z"/>
         <path id="Line" stroke-width=".5" stroke-linecap="round" d="m19.5 30s-0.156 2.143 0 3c0.178 0.976 1 2.5 1 2.5"/>
         <path id="Oval-521" stroke-width=".5" fill="#FF5149" d="m19 47c3 0 5-3 5-3s-2.239-0.5-5-0.5-5 0.5-5 0.5 2 3 5 3z"/>
         <path id="Line-Copy-70" stroke-width=".5" stroke-linecap="round" d="m13.5 43.5s0.5 1 5 1.5 6.5-1.5 6.5-1.5"/>
         <path id="Line-Copy-74" stroke-width=".5" stroke-linecap="round" d="m18 37.5s0.625 0.5 1.25 0.5 1.25-0.5 1.25-0.5"/>
         <path id="Line-Copy-77" stroke-width=".5" stroke-linecap="round" d="m20.715 37.215s0.07 0.5 0.535 0.5 0.535-0.5 0.535-0.5" transform="translate(21.25 37.465) rotate(-90) translate(-21.25 -37.465)"/>
         <path id="Line-Copy-78" stroke-width=".5" stroke-linecap="round" d="m16.715 37.215s0.07 0.5 0.535 0.5 0.535-0.5 0.535-0.5" transform="translate(17.25 37.465) rotate(90) translate(-17.25 -37.465)"/>
         <path id="Rectangle-840" fill="#58402C" d="m23.227 26.906c-0.126-0.5 0.196-0.918 0.712-0.93 0 0 4.864-0.147 6.061 0.024s-0.347 0.255-2.5 0.917c-2.153 0.663-3.084 0.86-3.084 0.86-0.506 0.123-1.017-0.182-1.143-0.683l-0.046-0.188z"/>
         <path id="Rectangle-840-Copy" fill="#58402C" d="m7.0086 26.906c-0.1251-0.5 0.1961-0.918 0.7121-0.93 0 0 4.8643-0.147 6.0613 0.024s-0.347 0.255-2.5 0.917c-2.1527 0.663-3.0838 0.86-3.0838 0.86-0.506 0.123-1.0174-0.182-1.1428-0.683l-0.0468-0.188z" transform="translate(10.591 26.861) scale(-1 1) translate(-10.591 -26.861)"/>
         <circle id="Oval-522" r="1" cy="31" cx="10" stroke-width=".5" fill="#9BADE3"/>
         <circle id="Oval-522-Copy" r="1" cy="31" cx="27" stroke-width=".5" fill="#9BADE3"/>
         <path id="Line-Copy-73" stroke-width=".5" stroke-linecap="round" d="m18 50h1.5"/>
        </g>
        <text id="Jessica" font-size="12" font-family="Harmonia Sans Pro Cyr" sketch:type="MSTextLayer" line-spacing="18" sketch:alignment="middle">
         <tspan y="74.8760049" x="2.346" fill="#58402C">Jessica</tspan>
         <tspan y="95.2760097" x="10.57" font-size="10" line-spacing="15" fill="#BDB5AF">CEO</tspan>
        </text>
       </g>
       <g id="Anna-+-Sarah," transform="translate(177 19)">
        <g id="Anna" stroke="#58402C" stroke-width=".5" sketch:type="MSShapeGroup">
         <path id="Rectangle-798-Copy-2" fill="#58402C" d="m16.5 48c-0.931-0.192-3.043-0.847-4-1-1.058-0.169-2.475 1.18-3.5 1-2.3821-0.418-4.8398 0.949-6.5 0-2.4587-1.405-2.1388-6.774-1-16 0.1507-1.221 0.4045-5.079 0.5-6.083 0.2062-2.168-0.5571-2.327-0.5-2.917 0.2481-2.565 2.0607-7.818 2-8-0.5-1.5 2.7728-3.17 2.7728-4.5 0-1.4469 0.7956-1.811 1.7272-2.5 0.0785-0.0581 0.1884-5.0965 9-7 8.812-1.9035 10.235 0.0381 12 0.5 5.86 1.5335 9.328 5.0555 9.773 5.5 1.073 1.0732 4.291 6.643 4.227 11.5-0.009 0.668 1.817 11.763 1 15.5-0.222 1.015-0.082 2.954 0.088 5.055 0.295 3.658 0.682 7.81-0.588 8.445-2 1-2.919 1.286-4.727 0.5-1.416-0.615-3.603-0.089-5.273-0.5-1.079-0.266-2.563 0.575-3.5 0.5-1.634-0.131-3 0.5-3 0.5s-4.76 0.682-10.5-0.5z"/>
         <path id="Oval-524" fill="#9C785A" d="m37.5 33.5c1.105 0 4.5-3.186 4.5-6.5s-3-4.5-4-4.5 0 2.186 0 5.5-1.605 5.5-0.5 5.5z"/>
         <path id="Oval-520-Copy" fill="#9C785A" d="m8 34.5c1.2088 4.093 3.412 6.862 6 9.5 2.636 2.688 5.495 5 9 5 3.925 0 6.716-2.201 9.5-5.5 1.612-1.91 3.341-3.506 4.5-6 1.346-2.895 2-7.79 2-11.5 0-1.83 0.091-3.495-0.5-4.5-1.364-2.322-5.339-0.622-7-2-2.505-2.078-2.385-7.5-7-7.5-4.522 0-7.245 7.403-10.5 9.5-2.348 1.513-4.2386 4.937-5.5 6.5-0.47 0.582-1.1645 4.25-0.5 6.5z"/>
         <path id="Line" stroke-linecap="round" d="m24.5 23.5v6"/>
         <path id="Oval-521" fill="#FFCDCA" d="m23 41c4 0 5-3 5-3s-2.239-1-5-1-5 1-5 1 1 3 5 3z"/>
         <path id="Line-Copy-70" stroke-linecap="round" d="m15.5 37s3.73 1.887 7 2 7.5-1.5 7.5-1.5"/>
         <path id="Line-Copy-74" stroke-linecap="round" d="m20.5 33.5s1 0.5 2 0.5 2-0.5 2-0.5"/>
         <path id="Line-Copy-75" stroke-linecap="round" d="m27.476 19.413c1.984 0.104 3.035-0.842 3.035-0.842" transform="translate(28.993 18.996) rotate(177) translate(-28.993 -18.996)"/>
         <path id="Line-Copy-76" stroke-linecap="round" d="m17.017 18.485s0.473 0.648 0.972 0.648" transform="translate(17.503 18.809) rotate(177) translate(-17.503 -18.809)"/>
         <circle id="Oval-522" cy="25" cx="14" r="1" fill="#9BADE3"/>
         <circle id="Oval-522-Copy" cy="25" cx="31" r="1" fill="#9BADE3"/>
         <path id="Line-Copy-73" stroke-linecap="round" d="m22 42h1.5"/>
        </g>
        <text id="Sarah" font-size="12" font-family="Harmonia Sans Pro Cyr" sketch:type="MSTextLayer" line-spacing="18" sketch:alignment="middle">
         <tspan y="67.8760049" x="5.786" fill="#58402C">Sarah</tspan>
         <tspan y="88.2760097" x="15.23" font-size="10" line-spacing="15" fill="#BDB5AF">HR</tspan>
        </text>
       </g>
       <g id="Jack-+-Miguel," transform="translate(92 233)">
        <g id="Jack" stroke="#58402C" sketch:type="MSShapeGroup" transform="translate(1)">
         <path id="Oval-483" stroke-width=".5" fill="#F3CFB1" d="m32.5 35c0.37 0 0.703-0.149 1-0.5 0.59-0.696 1.5-2.031 1.5-3.5 0-0.54 0.097-1.53 0-2-0.3-1.453-1.165-2-2-2-1.105 0-2 1.791-2 4s0.395 4 1.5 4z"/>
         <path id="Oval-483-Copy" stroke-width=".5" fill="#F3CFB1" d="m3.5 35c1.1046 0 2-1.791 2-4s-0.8954-4-2-4-3 1.791-3 4 1.8954 4 3 4z"/>
         <path id="Oval-482" stroke-width=".5" fill="#F3CFB1" d="m6.5 42.5c1.2908 1.611 3.1257 2.559 5 3.5 2.089 1.049 4.261 2 6.5 2 2.293 0 5.556-1.396 7.5-2.5 2.384-1.354 3.263-3.106 4.5-5.5 1.399-2.705 3-6.186 3-10 0-2.905-0.153-5.725 0-9 0.112-2.402 0.458-4.801 0-7-0.758-3.636-2.581-7.0665-7.5-8.5-1.931-0.5627-4.648-0.5-7.5-0.5-1.984 0-3.985 0.2582-5.5 0.5-8.4436 1.3479-9.8062 6.098-10 12-0.0488 1.486-0.6184 3.475-0.5 5 0.1985 2.557 1 5.236 1 7.5 0 4.843 0.9074 9.265 3.5 12.5z"/>
         <path id="Rectangle-798" stroke-width=".5" fill="#58402C" d="m1 26v-2.5c0-0.281 0.1384-0.442 0-1-0.1078-0.435-0.5-1.281-0.5-1.5 0-0.226-0.08123-0.683 0-1 0.14991-0.585 0.5063-1.079 0.5-1.5-0.02113-1.415 0.1301-2.61 0-3-0.5-1.5 0-2.67 0-4 0-2.308 1-1 1.5-1.5s-0.497-5.6534 2-7.5c3.169-2.3436 10.245-2 13.25-2 0.916 0 1.25 1 2.25 1s1 0.5 3.5 1 2.155 1.2183 3 1.5 1.323-0.614 2-0.5c2.744 0.4616 3.5 3 5 4.5s1.5 4 1 6c-0.218 0.871 1 4.5 0.5 6.5-0.191 0.763-0.427 3.537-0.5 5-0.039 0.774 0.59 2.774 0.5 3-0.185 0.466-1.163-1-1.5-1h-0.5s-0.506-2.795-0.5-5c0.002-0.807-0.014-3.004 0-3.5 0.116-4.011 0-6 0-6s-2.033 2.367-4 2.5c-3 0.203-3.223-1.64-5-1.5-1.144 0.09-1.834-1.203-3-1-4.332 0.754-5 3.5-11 3.5s-3.7631-2.553-5-1c-0.231 0.29-1.3657-0.934-1.5-0.5-0.8005 2.586 0 8.364 0 11 0 0.136 0.0161 0.882 0 1-0.0561 0.411-0.2436 0.484-0.5 0.5-0.2084 0.013-1.5 1.5-1.5 1.5v-3z"/>
         <path id="Rectangle-792" stroke-width=".5" fill="#F3CFB1" d="m11.75 24.75h9s2.5 0 2.5 3-2.5 3-2.5 3h-9" transform="translate(17.5 27.75) rotate(90) translate(-17.5 -27.75)"/>
         <path id="Oval-485-Copy-3" stroke-width=".5" fill="#58402C" d="m9.5 25c0.5 0 0.5-0.252 0.5-0.5s-0.1831-0.5-0.5-0.5c-0.5 0-0.5 0.5-0.5 0.5s0 0.5 0.5 0.5z"/>
         <path id="Oval-485-Copy-2" stroke-width=".5" fill="#58402C" d="m25.551 25c0.553 0 0.492-0.25 0.492-0.5s0.061-0.5-0.492-0.5c-0.552 0-0.377 0.378-0.5 0.5-0.122 0.122-0.052 0.5 0.5 0.5z"/>
         <path id="Line" stroke-width="1.5" stroke-linecap="round" d="m22.5 20.5s1.482-0.5 2.5-0.5c0.649 0 2.5 0.5 2.5 0.5"/>
         <path id="Line-Copy-67" stroke-width="1.5" stroke-linecap="round" d="m7.5 20.5s0.982-0.5 2-0.5h1c0.649 0 1.5 0.5 1.5 0.5"/>
         <path id="Line-Copy-68" stroke-width=".5" stroke-linecap="round" d="m11 39s2-2 7-2 6.5 2 6.5 2" transform="translate(17.75 38) rotate(180) translate(-17.75 -38)"/>
         <path id="Line-Copy-69" stroke-width=".5" stroke-linecap="round" d="m16.5 40.25h3" transform="translate(18 40.25) rotate(180) translate(-18 -40.25)"/>
        </g>
        <text id="Miguel" font-size="12" font-family="Harmonia Sans Pro Cyr" sketch:type="MSTextLayer" line-spacing="18" sketch:alignment="middle">
         <tspan y="70.8760049" x="0.842" fill="#58402C">Miguel</tspan>
         <tspan y="91.2760097" x="1.27" font-size="10" line-spacing="15" fill="#BDB5AF">Product</tspan>
        </text>
       </g>
       <g id="Emmet,-+-Jack-Copy-4" transform="translate(254 63)">
        <text id="Fred" font-size="12" font-family="Harmonia Sans Pro Cyr" sketch:type="MSTextLayer" line-spacing="18" sketch:alignment="middle">
         <tspan y="67" x="8.854" fill="#58402C">Fred</tspan>
         <tspan y="87.4000049" x="0.725" font-size="10" line-spacing="15" fill="#BDB5AF">Marketer</tspan>
        </text>
        <g id="Jack-Copy-4" stroke="#58402C" sketch:type="MSShapeGroup" transform="translate(3)">
         <path id="Oval-483" stroke-width=".5" fill="#F3CFB1" d="m30.67 31c0.412 0 0.782-0.149 1.113-0.5 0.656-0.696 1.669-2.031 1.669-3.5 0-0.54 0.108-1.53 0-2-0.333-1.453-1.297-2-2.226-2-1.229 0-2.226 1.791-2.226 4s0.44 4 1.67 4z"/>
         <path id="Oval-483-Copy" stroke-width=".5" fill="#F3CFB1" d="m3.5 31c1.1046 0 2-1.791 2-4s-1.8954-4-3-4-2 1.791-2 4 1.8954 4 3 4z"/>
         <path id="Oval-482" stroke-width=".5" fill="#F3CFB1" d="m2.5 31.5c0.4503 3.049 1.2405 5.804 3 8 1.2908 1.611 3 6.5 11.5 6.5s10.763-6.606 12-9c0.939-1.816 1.424-3.119 2-5.5 0.282-1.166 1-3.246 1-4.5 0-2.905-0.153-5.725 0-9 0.112-2.402 0.458-4.801 0-7-0.479-2.2995-1.302-4.318-3-6-0.987-0.9776-2.192-1.9731-4-2.5-1.931-0.5627-4.238-1.7844-9.5-1.5s-7.9068 2.0522-9 2.5c-1.5408 0.6312-2.2788 2.0163-3 3-1.6192 2.2084-1.89 4.649-2 8-0.0488 1.486-0.1184 3.475 0 5 0.1985 2.557 0.5 5.236 0.5 7.5 0 1.556 0.2868 3.056 0.5 4.5z"/>
         <path id="Oval-485-Copy-5" stroke-width=".5" fill="#58402C" d="m9.0861 23c0.9869 0 1.9729-0.498 1.9729-0.498s-0.557-0.525-1-0.5c-0.6068 0.034-1.183 0-1.4999 0-1.0897 0-1.446 0.5-1.446 0.5s-0.027 0.498 1.973 0.498z"/>
         <path id="Oval-485-Copy-4" stroke-width=".5" fill="#58402C" d="m24.505 23c0.552 0 2-0.25 2-0.5s-1.448-0.5-2-0.5-1.883 0.378-2.005 0.5 1.453 0.5 2.005 0.5z"/>
         <path id="Line" stroke-linecap="round" d="m22 17.5s1-0.5 2.5-0.5c1 0 2 0.5 2 0.5"/>
         <path id="Line-Copy-67" stroke-linecap="round" d="m6.5 17.5s0.982-0.5 2-0.5h1c0.649 0 1.5 0.5 1.5 0.5"/>
         <path id="Line-Copy-68" stroke-width=".5" stroke-linecap="round" d="m11.5 36s0.5-1 5.5-1 5 1 5 1" transform="translate(16.75 35.5) rotate(180) translate(-16.75 -35.5)"/>
         <path id="Line-Copy-101" stroke-width=".5" stroke-linecap="round" d="m14 30s0.5-1 2.5-1 2.5 1 2.5 1" transform="translate(16.5 29.5) rotate(180) translate(-16.5 -29.5)"/>
         <path id="Line-Copy-102" stroke-width=".5" stroke-linecap="round" d="m18 29s0.5-1 1.5-1 1.5 1 1.5 1" transform="translate(19.5 28.5) rotate(90) translate(-19.5 -28.5)"/>
         <path id="Line-Copy-104" stroke-width=".5" stroke-linecap="round" d="m15.164 41.164s0.5-1 1.5-1c0.719 0 1.5 0.5 1.5 1s-0.115 1.116-0.5 1.5c-0.5 0.5-1.187-0.226-1.5-0.5-0.357-0.312 0.5-1 0.5-1" transform="translate(16.664 41.5) rotate(90) translate(-16.664 -41.5)"/>
         <path id="Line-Copy-103" stroke-width=".5" stroke-linecap="round" d="m12 29s0.5-1 1.5-1 1.5 1 1.5 1" transform="translate(13.5 28.5) rotate(-90) translate(-13.5 -28.5)"/>
        </g>
       </g>
       <g id="1f4ad-copy" transform="translate(282 11)">
        <g id="g10" sketch:type="MSShapeGroup" fill="#BDDDF4" transform="translate(50.5 27.5) scale(1 -1) translate(-50.5 -27)">
         <g id="g12">
          <g id="g14-Clipped">
           <g id="g14" transform="translate(0.25 0.75)">
            <g id="g20" transform="translate(0 0.5)">
             <path id="path22" d="m86.056 47.072c-2.325 0-4.512-0.581-6.438-1.59-0.743 1.013-4.868 6.93-16.271 5.43-11.404-1.5-15.097-10.162-15.097-10.162s-7.969 11.518-18 11-18.123-3.686-21.007-13.013c-5.2948-1.236-9.243-5.997-9.243-11.696 0-5.968 4.3307-10.907 10.002-11.845 0.43-7.9101 6.926-14.196 14.898-14.196 4.335 0 8.227 1.8689 10.957 4.8336 2.729-2.9647 7.712-5.422 15.893-4.8336s11.597 6.8107 11.597 6.8107 9.519-3.6713 17.903 0 10.573 11.005 10.206 12.309c5.018 2.121 8.544 7.111 8.544 12.93 0 7.744-6.243 14.022-13.944 14.022z"/>
            </g>
            <g id="g24" transform="translate(1.25 3)">
             <path id="path26" d="m7.5 3.75c0-2.0712-1.6788-3.75-3.75-3.75s-3.75 1.6788-3.75 3.75 1.6788 3.75 3.75 3.75 3.75-1.6788 3.75-3.75"/>
            </g>
           </g>
          </g>
         </g>
        </g>
        <text id="The-best-" font-size="12" font-family="Harmonia Sans Pro Cyr" sketch:type="MSTextLayer" sketch:alignment="middle" fill="#58402C">
         <tspan y="22.5999972" x="27.752">The best</tspan>
         <tspan y="37.000002" x="12.236">company ever</tspan>
        </text>
       </g>
      </g>
      <g id="1f4a1" transform="translate(280 310)">
       <g id="g10" transform="translate(10.885 10.885) scale(1 -1) translate(-10.885 -10.885)">
        <g id="g12">
         <g id="g14-Clipped">
          <mask id="mask-2" sketch:name="path18" fill="white">
           <use xlink:href="#path-1"/>
          </mask>
          <g id="g14" mask="url(#mask-2)">
           <g transform="translate(4.5833 .57292)">
            <g id="g20" transform="translate(0 4.5489)">
             <path id="path22" sketch:type="MSShapeGroup" fill="#FFD983" d="m12.604 9.7396c0-3.689-2.8644-4.2619-2.8644-7.7 0-1.7749-1.7892-1.9244-3.1511-1.9244-1.1762-0.00004-3.7732 0.44626-3.7732 1.9255 0 3.437-2.8153 4.0099-2.8153 7.6989 0 3.4554 3.0279 6.2564 6.3496 6.2564 3.323 0 6.2544-2.801 6.2544-6.2564"/>
            </g>
            <g id="g24" transform="translate(3.5332 .28646)">
             <path id="path26" sketch:type="MSShapeGroup" fill="#CCD6DD" d="m5.1562 1.7188c0-0.4744-1.2798-1.4323-2.3873-1.4323-1.1074-0.00004-2.3868 0.9579-2.3868 1.4323 0.00004 0.4743 1.2794 0.2864 2.3868 0.2864 1.1075 0 2.3873 0.1879 2.3873-0.2864"/>
            </g>
            <g id="g28" transform="translate(3.2696 4.9884)">
             <path id="path30" sketch:type="MSShapeGroup" fill="#FFCC4D" d="m5.7292 9.7396c-0.224 0.224-0.5861 0.224-0.8101 0l-1.8867-1.8866-1.8866 1.8866c-0.22398 0.224-0.58606 0.224-0.81007 0s-0.22401-0.5861 0-0.8101l2.1238-2.1238v-6.0649c0-0.31684 0.2567-0.57294 0.5729-0.57294 0.3163 0 0.573 0.2561 0.573 0.57292v6.0649l2.1238 2.1238c0.224 0.224 0.224 0.5861 0 0.8101"/>
            </g>
            <g id="g32" transform="translate(2.8646 1.7188)">
             <path id="path34" sketch:type="MSShapeGroup" fill="#99AAB5" d="m6.875 1.1458c0-0.63247-0.5133-1.1458-1.1458-1.1458h-4.5834c-0.63247 0-1.1458 0.51333-1.1458 1.1458v3.4375h6.875v-3.4375z"/>
            </g>
            <g id="g36" transform="translate(2.2911 2.2917)">
             <path id="path38" sketch:type="MSShapeGroup" fill="#CCD6DD" d="m0.57292 0c-0.275 0-0.51792 0.1988-0.56433 0.47896-0.052132 0.31166 0.1587 0.60724 0.47037 0.65884l6.8755 1.1458c0.3117 0.0562 0.6067-0.1587 0.6589-0.4709 0.0521-0.3117-0.1587-0.6073-0.471-0.6588l-6.8744-1.1459c-0.03206-0.0057083-0.06415-0.008-0.09508-0.008"/>
            </g>
            <g id="g40" transform="translate(2.2911 4.5833)">
             <path id="path42" sketch:type="MSShapeGroup" fill="#CCD6DD" d="m0.57292 0c-0.275 0-0.51792 0.1988-0.56433 0.47896-0.052132 0.31166 0.1587 0.60724 0.47037 0.65884l6.8755 1.1458c0.3117 0.0556 0.6067-0.1587 0.6589-0.4709 0.0521-0.3117-0.1587-0.6073-0.471-0.6588l-6.8744-1.1459c-0.03206-0.0057083-0.06415-0.008-0.09508-0.008"/>
            </g>
           </g>
          </g>
         </g>
        </g>
       </g>
      </g>
      <g id="1f4c8" transform="translate(0 161)">
       <g id="g10" transform="translate(15 15.688) scale(1 -1) translate(-15 -15)">
        <g id="g12">
         <g id="g14-Clipped">
          <mask id="mask-4" sketch:name="path18" fill="white">
           <use xlink:href="#path-3"/>
          </mask>
          <g id="g14" mask="url(#mask-4)">
           <g transform="translate(1.5625 .78125)">
            <g id="g20" sketch:type="MSLayerGroup" fill="none">
             <path id="path22" sketch:type="MSShapeGroup" fill="#CCD6DD" d="m26.562 3.125c0-1.7258-1.399-3.125-3.124-3.125h-20.313c-1.7258 0-3.125 1.3992-3.125 3.125v21.875c0 1.726 1.3992 3.125 3.125 3.125h20.313c1.725 0 3.124-1.399 3.124-3.125v-21.875z"/>
            </g>
            <path id="path24" sketch:type="MSShapeGroup" fill="#E1E8ED" d="m19.531 7.8125h3.907v-3.9063h-3.907v3.9063zm-5.469 0h3.907v-3.9063h-3.907v3.9063zm-5.4682 0h3.9062v-3.9063h-3.9062v3.9063zm-5.4688 0h3.9062v-3.9063h-3.9062v3.9063zm3.9062 12.5h-3.9062v3.907h3.9062v-3.907zm5.4688 0h-3.9062v3.907h3.9062v-3.907zm5.469 0h-3.907v3.907h3.907v-3.907zm1.562 3.907h3.907v-3.907h-3.907v3.907zm0-5.469h3.907v-3.906h-3.907v3.906zm0-5.469h3.907v-3.906h-3.907v3.906zm-5.469 0h3.907v-3.906h-3.907v3.906zm-5.4682 0h3.9062v-3.906h-3.9062v3.906zm-1.5626-3.906h-3.9062v3.906h3.9062v-3.906zm0 5.469h-3.9062v3.906h3.9062v-3.906zm7.0308 3.906h3.907v-3.906h-3.907v3.906zm-1.562-3.906h-3.9062v3.906h3.9062v-3.906zm11.719 10.937h-21.875c-0.4323 0-0.7815-0.35-0.7815-0.781v-21.875c0-0.432 0.3492-0.7812 0.7813-0.7812h21.875c0.432 0 0.781 0.3492 0.781 0.7812v21.875c0 0.431-0.349 0.781-0.781 0.781z"/>
            <g id="g26" sketch:type="MSLayerGroup" transform="translate(1.5609 2.3438)" fill="none">
             <path id="path28" sketch:type="MSShapeGroup" fill="#3E721D" d="m1.5625 0c-0.25 0-0.5039 0.059375-0.73906 0.18672-0.76016 0.40937-1.0445 1.3571-0.63516 2.1164l5.4687 10.156c0.2344 0.436 0.6602 0.734 1.1485 0.806 0.4898 0.072 0.9836-0.092 1.332-0.442l4.7465-4.7464 7.608 14.523c0.4 0.764 1.345 1.06 2.11 0.659 0.764-0.4 1.059-1.345 0.658-2.109l-8.594-16.406c-0.229-0.4401-0.656-0.7448-1.147-0.8206-0.49-0.0703-0.989 0.0891-1.341 0.4407l-4.7655 4.7648-4.4727-8.307c-0.282-0.52424-0.821-0.8219-1.3773-0.8219"/>
            </g>
           </g>
          </g>
         </g>
        </g>
       </g>
      </g>
      <g id="1f31e" transform="translate(212 137)">
       <g id="g10" transform="translate(19.792 19.792) scale(1 -1) translate(-19.792 -19.792)">
        <g id="g12">
         <g id="g14-Clipped">
          <mask id="mask-6" sketch:name="path18" fill="white">
           <use xlink:href="#path-5"/>
          </mask>
          <g id="g14" mask="url(#mask-6)">
           <g transform="translate(1.0417 1.0417)">
            <g id="g20" transform="translate(0 .20854)">
             <path id="path22" sketch:type="MSShapeGroup" fill="#F4900C" d="m18.75 0c-0.406 0-0.776 0.22708-0.959 0.58854l-1.875 3.7021-3.15-2.7041c-0.199-0.1677-0.448-0.2573-0.7-0.2573-0.139 0-0.278 0.027-0.411 0.0812-0.374 0.1552-0.631 0.5084-0.66 0.9104l-0.317 4.1407-3.9457-1.2927c-0.1094-0.0355-0.2219-0.0532-0.3344-0.0532-0.2802 0-0.5541 0.1104-0.7604 0.3156-0.2854 0.2844-0.3865 0.7094-0.2604 1.0948l1.2917 3.946-4.1376 0.313c-0.4041 0.033-0.7562 0.287-0.9114 0.66-0.1542 0.377-0.0865 0.805 0.1771 1.112l2.7021 3.15-3.7011 1.875c-0.36248 0.184-0.58957 0.556-0.58957 0.96s0.22709 0.775 0.58959 0.959l3.7011 1.875-2.7021 3.149c-0.2625 0.308-0.3313 0.737-0.1771 1.111 0.1552 0.374 0.5073 0.631 0.9114 0.661l4.1376 0.317-1.2917 3.944c-0.1261 0.386-0.025 0.809 0.2604 1.096 0.2063 0.204 0.4802 0.314 0.7604 0.314 0.1125 0 0.225-0.018 0.3344-0.053l3.9457-1.292 0.317 4.137c0.029 0.405 0.286 0.757 0.66 0.912 0.133 0.054 0.272 0.081 0.411 0.081 0.252 0 0.501-0.088 0.7-0.258l3.15-2.703 1.875 3.702c0.183 0.361 0.553 0.589 0.959 0.589 0.404 0 0.776-0.228 0.958-0.588l1.877-3.703 3.15 2.703c0.199 0.17 0.449 0.258 0.699 0.258 0.141 0 0.28-0.027 0.413-0.081 0.374-0.155 0.628-0.508 0.66-0.912l0.316-4.137 3.943 1.292c0.11 0.035 0.224 0.053 0.334 0.053 0.281 0 0.557-0.11 0.76-0.314 0.288-0.287 0.389-0.71 0.263-1.096l-1.293-3.944 4.141-0.317c0.402-0.03 0.755-0.287 0.909-0.661 0.155-0.374 0.088-0.803-0.176-1.111l-2.703-3.149 3.701-1.875c0.363-0.184 0.59-0.555 0.59-0.959s-0.227-0.775-0.59-0.96l-3.701-1.875 2.703-3.15c0.264-0.307 0.331-0.735 0.176-1.112-0.154-0.373-0.507-0.627-0.912-0.66l-4.138-0.313 1.293-3.946c0.126-0.3864 0.025-0.8104-0.263-1.0948-0.203-0.2052-0.479-0.3156-0.76-0.3156-0.11 0-0.224 0.0177-0.334 0.0532l-3.943 1.2927-0.316-4.1386c-0.032-0.4041-0.286-0.7573-0.66-0.9125-0.133-0.0542-0.272-0.0812-0.413-0.0812-0.25 0-0.5 0.0896-0.699 0.2573l-3.15 2.7041-1.877-3.7021c-0.182-0.36142-0.554-0.5885-0.958-0.5885"/>
            </g>
            <g id="g24" transform="translate(5.2083 5.2078)">
             <path id="path26" sketch:type="MSShapeGroup" fill="#FFCC4D" d="m27.083 13.542c0-7.4785-6.063-13.542-13.541-13.542-7.4785 0-13.542 6.0635-13.542 13.542 0 7.479 6.0635 13.541 13.542 13.541 7.478 0 13.541-6.062 13.541-13.541"/>
            </g>
            <g id="g28" transform="translate(10.417 9.9264)">
             <path id="path30" sketch:type="MSShapeGroup" fill="#F4900C" d="m8.3333 3.125c-6.4812 0-8.3333 2.425-8.3333 1.2802 0-1.1479 3.7042-4.1469 8.3333-4.1469 4.6287 0.00003 8.3337 2.999 8.3337 4.1469 0 1.1448-1.851-1.2802-8.3337-1.2802"/>
            </g>
            <g id="g32" transform="translate(20.833 19.097)">
             <path id="path34" sketch:type="MSShapeGroup" fill="#F4900C" d="m6.25 3.125c0-1.5344-1.2438-2.7781-2.7781-2.7781-1.5334-0.00002-2.7771 1.2437-2.7771 2.7781-0.00001 1.5344 1.2437 2.7781 2.7771 2.7781 1.5343 0 2.7781-1.2437 2.7781-2.7781"/>
            </g>
            <g id="g36" transform="translate(9.7224 19.097)">
             <path id="path38" sketch:type="MSShapeGroup" fill="#F4900C" d="m6.25 3.125c0-1.5344-1.2448-2.7781-2.7781-2.7781-1.5334-0.00002-2.7771 1.2437-2.7771 2.7781-0.00001 1.5344 1.2437 2.7781 2.7771 2.7781 1.5333 0 2.7781-1.2437 2.7781-2.7781"/>
            </g>
           </g>
          </g>
         </g>
        </g>
       </g>
      </g>
      <g id="1f31f" transform="translate(178 298)">
       <g id="g10" transform="translate(11 12.771) scale(1 -1) translate(-11 -12)">
        <g id="g12" transform="translate(0)">
         <g id="g14-Clipped" transform="translate(0)">
          <mask id="mask-8" sketch:name="path18" fill="white">
           <use xlink:href="#path-7"/>
          </mask>
          <g id="g14" mask="url(#mask-8)">
           <g transform="translate(0)">
            <g id="g20" transform="translate(1.627 3.6451)">
             <path id="path22" sketch:type="MSShapeGroup" fill="#FFCC4D" d="m15.469 7.4479c-0.566-0.5981-0.936-1.7571-0.824-2.5741l0.511-3.6907c0.113-0.81701-0.402-1.1951-1.144-0.84107l-3.352 1.6019c-0.7417 0.3552-1.9522 0.3501-2.6919-0.0103l-3.3378-1.6282c-0.7396-0.3604-1.257 0.01543-1.1504 0.8318l0.483 3.6954c0.1065 0.8169-0.2722 1.9731-0.8422 2.5672l-2.5741 2.6862c-0.57066 0.593-0.37587 1.203 0.43194 1.355l3.6501 0.68c0.8078 0.15 1.7852 0.87 2.1731 1.597l1.7474 3.287c0.3873 0.728 1.0249 0.73 1.4174 0.005l1.7725-3.272c0.393-0.725 1.376-1.436 2.186-1.581l3.654-0.653c0.809-0.145 1.008-0.753 0.443-1.352l-2.553-2.7041z"/>
            </g>
            <g id="g24" transform="translate(3.8859 16.511)">
             <path id="path26" sketch:type="MSShapeGroup" fill="#FFD983" d="m2.2917 3.4375c0.5861-0.8095 1.4013-2.817 0.9837-3.1207-0.4171-0.3042-2.0665 1.0943-2.6526 1.9038-0.58556 0.8096-0.53572 1.5286-0.07509 1.8643 0.46059 0.3363 1.1579 0.1621 1.744-0.6474"/>
            </g>
            <g id="g28" transform="translate(14.398 16.44)">
             <path id="path30" sketch:type="MSShapeGroup" fill="#FFD983" d="m2.8646 2.2917c-0.5855-0.8101-2.235-2.2086-2.6532-1.9033-0.41708 0.30368 0.39818 2.3106 0.9848 3.1196 0.5861 0.8101 1.2822 0.9848 1.7434 0.6479 0.4607-0.3357 0.5099-1.0547-0.075-1.8642"/>
            </g>
            <g id="g32" transform="translate(9.5245 .40620)">
             <path id="path34" sketch:type="MSShapeGroup" fill="#FFD983" d="m0.57292 1.7188c-0.00058 1.0003 0.51448 3.1057 1.0318 3.1057 0.5145 0 1.0301-2.1054 1.0296-3.1052 0-1.0009-0.4607-1.5537-1.0313-1.5526-0.5695-0.00113-1.0301 0.55116-1.0301 1.5521"/>
            </g>
            <g id="g36" transform="translate(16.502 6.8582)">
             <path id="path38" sketch:type="MSShapeGroup" fill="#FFD983" d="m2.8646 0.57292c-0.9482 0.3088-2.7832 1.4512-2.6234 1.9451 0.1587 0.491 2.3129 0.3328 3.2593 0.0235 0.9488-0.3094 1.3303-0.9201 1.1533-1.4644-0.1759-0.54371-0.841-0.81356-1.7892-0.50418"/>
            </g>
            <g id="g40" transform="translate(.047552 7.1078)">
             <path id="path42" sketch:type="MSShapeGroup" fill="#FFD983" d="m1.7188 2.2917c0.9481 0.3093 3.1017 0.468 3.2621-0.0252 0.1582-0.491-1.6775-1.6346-2.6245-1.9434-0.9476-0.30935-1.6145-0.04008-1.7892 0.50419-0.17647 0.54431 0.2028 1.1544 1.1516 1.4644"/>
            </g>
           </g>
          </g>
         </g>
        </g>
       </g>
      </g>
      <g id="1f44d" transform="translate(169 144)">
       <g id="g10" transform="translate(12.865 12.865) scale(1 -1) translate(-12.865 -12.865)">
        <g id="g12">
         <g id="g14-Clipped">
          <mask id="mask-10" sketch:name="path18" fill="white">
           <use xlink:href="#path-9"/>
          </mask>
          <g id="g14" mask="url(#mask-10)">
           <g transform="translate(2.0312)">
            <g id="g20" transform="translate(.056875 .67776)">
             <path id="path22" sketch:type="MSShapeGroup" fill="#D99E82" d="m16.927 16.25l-10.981 0.523c0.3773 1.395 0.8174 3.173 0.8174 3.878 0 1.693-0.3907 3.724-1.6995 3.724-1.6927 0-2.384 0-2.384-1.693 0-2.37-2.0312-5.756-2.0312-7.11-0.00005-0.332 0.0101-0.699 0.02568-1.063l-0.05417-9.1776c0-3.7524 0.67709-5.3152 4.7396-5.3152 4.0632 0.00005 11.386 0.001404 11.386 0.001404 1.48-0.019635 2.699 0.85922 2.872 2.0644 0.055 0.3745 1.992 10.714 1.992 10.714 0.31 1.507-0.113 3.312-4.683 3.454"/>
            </g>
            <g id="g24" transform="translate(7.6384 .42514)">
             <path id="path26" sketch:type="MSShapeGroup" fill="#C1694F" d="m13.542 11.51c-0.133 0.229-0.376 0.348-0.625 0.336-0.626 0.014-9.04 0.595-10.185 0.741-0.0948 0.017-0.9235 0.19-0.8375 1.147 0.0271 0.3 0.109 0.696 0.3466 0.882 0.1957 0.154 0.453 0.122 0.4571 0.121l9.0758-0.736c0.384-0.038 0.699 0.248 0.729 0.621s-0.248 0.699-0.621 0.729l-8.9732 0.724c-0.1971 0.027-0.8687 0.083-1.472-0.369-0.51597-0.387-0.81591-1.01-0.89107-1.852-0.11375-1.268 0.56537-1.986 1.2438-2.342-0.3256-0.381-0.5972-0.897-0.6249-1.5839-0.0643-1.5763 0.9587-2.4247 1.1984-2.6014-0.4469-0.4976-0.6818-1.0325-0.6886-1.6081-0.0108-0.8984 0.5261-1.5952 0.9886-2.0326-0.1578-0.174-0.2946-0.3696-0.3819-0.6032-0.2864-0.7672-0.1259-1.7192 0.3886-2.315 0.3-0.34665 0.69-0.53218 1.103-0.53218 0.0982 0 0.1984 0.01016 0.2986 0.0325 0.3656 0.07855 0.5979 0.43808 0.5193 0.80368-0.0778 0.3656-0.438 0.5999-0.8037 0.52-0.0095 0.0014-0.0331-0.0067-0.0921 0.061-0.1692 0.1956-0.2681 0.6269-0.1449 0.9567 0.0786 0.2112 0.2255 0.3216 0.476 0.3588 0.13 0.0183 0.237 0.082 0.3311 0.1605l6.879-0.1686h0.029c0.361 0 0.66 0.1578 0.675 0.5227 0.015 0.3731-0.275 0.5627-0.648 0.5776l-7.4055 0.3013c-0.3196 0.2437-0.8647 0.7725-0.8579 1.3108 0.0068 0.5606 0.631 1.0691 1.1822 1.409l7.9112-0.5092c0.016-0.0006 0.03-0.0013 0.045-0.0013 0.354 0 0.652 0.2749 0.675 0.6337 0.024 0.3731-0.259 0.6954-0.632 0.7191l-9.1584 0.5891c-0.1977 0.1882-0.564 0.6371-0.5342 1.3596 0.0359 0.8764 0.9391 1.2434 0.9723 1.2574 0.0189 0.007 0.0311 0.022 0.0487 0.03 2.2209-0.19 7.4686-0.619 9.2036-0.619 0.306 0 0.503 0.013 0.555 0.044 0.323 0.187 0.433 0.602 0.245 0.925"/>
            </g>
           </g>
          </g>
         </g>
        </g>
       </g>
      </g>
      <g id="1f49e" transform="translate(281 20)">
       <g id="g10" transform="translate(9.8958 9.8958) scale(1 -1) translate(-9.8958 -9.8958)">
        <g id="g12">
         <g id="g14-Clipped">
          <mask id="mask-12" sketch:name="path18" fill="white">
           <use xlink:href="#path-11"/>
          </mask>
          <g id="g14" mask="url(#mask-12)">
           <g transform="translate(0 .52083)">
            <g id="g20" transform="translate(5.1961 3.2959)">
             <path id="path22" sketch:type="MSShapeGroup" fill="#F2ABBA" d="m14.062 6.7708c-0.13-2.3823-4.2667-4.2958-9.3625-4.2958-1.7104 0-3.3078 0.2198-4.6875 0.5958l-0.000021-1.8682c1.3802-0.53333 2.9781-0.84375 4.6875-0.84375 5.1781 0 9.3745 2.7984 9.3745 6.25 0 0.0547-0.009 0.1079-0.012 0.162"/>
            </g>
            <g id="g24" transform="translate(.52083 10.625)">
             <path id="path26" sketch:type="MSShapeGroup" fill="#F2ABBA" d="m14.062 4.6875c-1.378 0.5333-2.977 0.8422-4.687 0.8422-4.6969 0-8.5755-2.3052-9.2573-5.3094 0.68178 2.1198 4.5604 3.7469 9.2573 3.7469 1.71 0 3.309-0.2177 4.687-0.5943v1.3146z"/>
            </g>
            <g id="g28" transform="translate(.40078 .14854)">
             <path id="path30" sketch:type="MSShapeGroup" fill="#E75A70" d="m13.021 8.3333c0 1.9567-1.586 3.5427-3.5424 3.5427-1.1875 0-2.2354-0.586-2.8781-1.482-0.6432 0.896-1.6911 1.482-2.8781 1.482-1.9563 0-3.5422-1.586-3.5422-3.5427 0.00001-0.2765 0.0349-0.5463 0.09532-0.8047 0.49219-3.0557 3.8896-6.2807 6.325-7.1656 2.4349 0.8849 5.8335 4.1099 6.3235 7.1646 0.062 0.2594 0.097 0.5292 0.097 0.8057"/>
            </g>
            <g id="g32" transform="translate(9.8358 10.056)">
             <path id="path34" sketch:type="MSShapeGroup" fill="#E75A70" d="m9.375 5.7292c0 1.3552-1.0984 2.4536-2.4536 2.4536-0.8224 0-1.5485-0.4062-1.9938-1.0271-0.4458 0.6209-1.1714 1.0271-1.9932 1.0271-1.3552 0-2.4537-1.0984-2.4537-2.4536 0.00003-0.1922 0.02451-0.3787 0.06618-0.5573 0.34062-2.1172 2.6942-4.3506 4.3807-4.9636 1.6865 0.61305 4.0406 2.8464 4.3813 4.9631 0.0416 0.1791 0.0661 0.3656 0.0661 0.5578"/>
            </g>
           </g>
          </g>
         </g>
        </g>
       </g>
      </g>
      <g id="1f60a" transform="translate(63 12)">
       <g id="g10" transform="translate(13.854 13.854) scale(1 -1) translate(-13.854 -13.854)">
        <g id="g12">
         <g id="g14-Clipped">
          <mask id="mask-14" sketch:name="path18" fill="white">
           <use xlink:href="#path-13"/>
          </mask>
          <g id="g14" mask="url(#mask-14)">
           <g transform="translate(1.4583 1.4583)">
            <g id="g20">
             <path id="path22" sketch:type="MSShapeGroup" fill="#FFCC4D" d="m24.792 12.396c0-6.8463-5.55-12.396-12.396-12.396-6.8463 0-12.396 5.5497-12.396 12.396 0 6.846 5.5497 12.396 12.396 12.396 6.846 0 12.396-5.55 12.396-12.396"/>
            </g>
            <g id="g24" transform="translate(.72917 8.75)">
             <path id="path26" sketch:type="MSShapeGroup" fill="#FF7892" d="m7.2917 3.6458c0-2.0139-1.6326-3.6458-3.6459-3.6458-2.0132 0-3.6458 1.6319-3.6458 3.6458 0 2.0133 1.6326 3.6459 3.6458 3.6459 2.0133 0 3.6459-1.6326 3.6459-3.6459"/>
            </g>
            <g id="g28" transform="translate(16.771 8.75)">
             <path id="path30" sketch:type="MSShapeGroup" fill="#FF7892" d="m7.2917 3.6458c0-2.0139-1.6319-3.6458-3.6459-3.6458-2.0139 0-3.6458 1.6319-3.6458 3.6458 0 2.0133 1.6319 3.6459 3.6458 3.6459 2.014 0 3.6459-1.6326 3.6459-3.6459"/>
            </g>
            <g id="g32" transform="translate(5.3484 5.3748)">
             <path id="path34" sketch:type="MSShapeGroup" fill="#664500" d="m13.854 4.375c-0.13 0.1174-0.324 0.1247-0.463 0.0211-0.028-0.0211-2.86-2.1145-6.3436-2.1145-3.4752 0-6.316 2.0934-6.3438 2.1145-0.13922 0.1036-0.33318 0.0948-0.46298-0.0211-0.12906-0.1167-0.15822-0.3092-0.06854-0.4579 0.09407-0.1568 2.3457-3.823 6.8753-3.823 4.5296-0.000038 6.7816 3.6662 6.8756 3.823 0.089 0.1495 0.061 0.3412-0.069 0.4579"/>
            </g>
            <g id="g36" transform="translate(4.3743 14.583)">
             <path id="path38" sketch:type="MSShapeGroup" fill="#664500" d="m0.72917 0c-0.10938 0-0.22094 0.024792-0.32521 0.076562-0.36021 0.18084-0.50677 0.61906-0.32667 0.97854 0.03865 0.0766 0.96181 1.8616 3.5693 1.8616 2.6082 0 3.5306-1.7858 3.5685-1.8616 0.1808-0.3602 0.0343-0.7977-0.3259-0.97854-0.3581-0.17791-0.7912-0.034998-0.9742 0.31865-0.0314 0.0576-0.6052 1.0631-2.2684 1.0631-1.6895 0-2.2597-1.0449-2.2641-1.0551-0.1283-0.25591-0.38573-0.4032-0.65333-0.4032"/>
            </g>
            <g id="g40" transform="translate(12.397 13.854)">
             <path id="path42" sketch:type="MSShapeGroup" fill="#664500" d="m7.2917 0.72917c-0.2676-0.00073-0.525 0.14729-0.6534 0.40323-0.0182 0.0335-0.5877 1.0551-2.264 1.0551-1.6764 0-2.2459-1.0216-2.2692-1.0646-0.1896-0.35071-0.6271-0.48852-0.9807-0.30623-0.35367 0.18373-0.49732 0.61103-0.3194 0.96763 0.03792 0.0758 0.961 1.8615 3.5693 1.8615 2.6082 0 3.5313-1.7857 3.5685-1.8615 0.1808-0.3602 0.0343-0.79774-0.3259-0.97857-0.1043-0.05177-0.2159-0.07656-0.3252-0.07656"/>
            </g>
           </g>
          </g>
         </g>
        </g>
       </g>
      </g>
      <g id="1f60d" transform="translate(77 150)">
       <g id="g10" transform="translate(11.875 11.875) scale(1 -1) translate(-11.875 -11.875)">
        <g id="g12">
         <g id="g14-Clipped">
          <mask id="mask-16" sketch:name="path18" fill="white">
           <use xlink:href="#path-15"/>
          </mask>
          <g id="g14" mask="url(#mask-16)">
           <g transform="translate(0 1.25)">
            <g id="g20" transform="translate(1.25)">
             <path id="path22" sketch:type="MSShapeGroup" fill="#FFCC4D" d="m21.25 10.625c0-5.8681-4.757-10.625-10.625-10.625-5.8681 0-10.625 4.7569-10.625 10.625 0 5.868 4.7569 10.625 10.625 10.625 5.868 0 10.625-4.757 10.625-10.625"/>
            </g>
            <g id="g24" transform="translate(5.625 2.5946)">
             <path id="path26" sketch:type="MSShapeGroup" fill="#664500" d="m6.25 5.625c-1.8538 0-3.0844 0.2162-4.6056 0.5119-0.3482 0.0669-1.0238 0-1.0238-1.0231 0.00002-2.0476 2.3519-4.6063 5.6294-4.6063s5.629 2.5587 5.629 4.6063c0 1.0231-0.676 1.0906-1.023 1.0231-1.521-0.2957-2.7516-0.5119-4.606-0.5119"/>
            </g>
            <g id="g28" transform="translate(.40619 11.7)">
             <path id="path30" sketch:type="MSShapeGroup" fill="#E75A70" d="m10.625 8.125c-0.537 1.5194-2.2025 2.317-3.7225 1.7812-0.9225-0.3256-1.5756-1.0693-1.83-1.9406-0.7444 0.5188-1.7194 0.6875-2.64 0.3632-1.5194-0.5363-2.3175-2.2032-1.7812-3.7226 0.0762-0.2156 0.17745-0.4143 0.29495-0.5987 1.2194-2.2387 4.7426-3.8125 6.8762-3.8319 1.6476 1.3544 3.4036 4.79 2.9486 7.2982-0.024 0.2174-0.071 0.4362-0.146 0.6512"/>
            </g>
            <g id="g32" transform="translate(12.094 11.7)">
             <path id="path34" sketch:type="MSShapeGroup" fill="#E75A70" d="m0.625 8.125c0.5369 1.5194 2.2031 2.317 3.7225 1.7812 0.9231-0.3256 1.5756-1.0693 1.8306-1.9406 0.7444 0.5188 1.7194 0.6875 2.64 0.3632 1.5189-0.5363 2.3169-2.2032 1.7809-3.7226-0.077-0.2156-0.177-0.4143-0.295-0.5987-1.2196-2.2387-4.7428-3.8125-6.8765-3.8319-1.6475 1.3544-3.4031 4.79-2.9475 7.2982 0.02375 0.2174 0.07062 0.4362 0.145 0.6512"/>
            </g>
           </g>
          </g>
         </g>
        </g>
       </g>
      </g>
      <g id="1f61c" transform="translate(67 310)">
       <g id="g10" transform="translate(11.875 11.875) scale(1 -1) translate(-11.875 -11.875)">
        <g id="g12">
         <g id="g14-Clipped">
          <mask id="mask-18" sketch:name="path18" fill="white">
           <use xlink:href="#path-17"/>
          </mask>
          <g id="g14" mask="url(#mask-18)">
           <g transform="translate(1.25 -0.625)">
            <g id="g20" transform="translate(0 1.875)">
             <path id="path22" sketch:type="MSShapeGroup" fill="#FFCC4D" d="m21.25 10.625c0-5.8681-4.757-10.625-10.625-10.625-5.8675 0-10.625 4.7569-10.625 10.625 0 5.867 4.7575 10.625 10.625 10.625 5.868 0 10.625-4.758 10.625-10.625"/>
            </g>
            <g id="g24" transform="translate(3.4106 12.616)">
             <path id="path26" sketch:type="MSShapeGroup" fill="#664500" d="m5.625 0.625c-0.0375 0.08438-0.9369 2.0606-2.7856 2.0606-1.8482 0-2.7482-1.9762-2.7856-2.0606-0.05755-0.12938-0.02005-0.28062 0.08995-0.36938 0.11063-0.08937 0.26687-0.09187 0.38125-0.00874 0.00812 0.00562 0.7888 0.56374 2.3144 0.56374 1.5162 0 2.2962-0.55062 2.3137-0.56312 0.055-0.04125 0.1213-0.06188 0.1863-0.06188 0.0687 0 0.1381 0.02313 0.195 0.06813 0.1112 0.08875 0.1481 0.24125 0.0906 0.37125"/>
            </g>
            <g id="g28" transform="translate(10.625 10.301)">
             <path id="path30" sketch:type="MSShapeGroup" fill="#F5F8FA" d="m8.125 4.375c0-2.2438-1.8188-4.0625-4.0625-4.0625s-4.0625 1.8187-4.0625 4.0625 1.8188 4.0625 4.0625 4.0625 4.0625-1.8187 4.0625-4.0625"/>
            </g>
            <g id="g32" transform="translate(13.125 12.801)">
             <path id="path34" sketch:type="MSShapeGroup" fill="#292F33" d="m3.125 1.875c0-0.8631-0.6994-1.5625-1.5625-1.5625-0.86312 0-1.5625 0.6994-1.5625 1.5625s0.69938 1.5625 1.5625 1.5625c0.8631 0 1.5625-0.6994 1.5625-1.5625"/>
            </g>
            <g id="g36" transform="translate(3.75 3.7387)">
             <path id="path38" sketch:type="MSShapeGroup" fill="#664500" d="m0 5.625c0-2.4775 2.8725-5.625 6.875-5.625 4.003 0 6.875 3.125 6.875 5.625 0 0-6.4581-1.7225-13.75 0"/>
            </g>
            <g id="g40" transform="translate(6.875 .063125)">
             <path id="path42" sketch:type="MSShapeGroup" fill="#E75A70" d="m0 8.125v-3.8019c0-1.875 1.25-3.75 3.75-3.75 2.5 0.00002 3.75 1.875 3.75 3.75v3.7763c-3.9325-0.8075-7.5 0.0256-7.5 0.0256"/>
            </g>
           </g>
          </g>
         </g>
        </g>
       </g>
      </g>
      <g id="1f389-copy" transform="translate(166 107)">
       <g id="g10" transform="translate(11.875 11.875) scale(1 -1) translate(-11.875 -11.875)">
        <g id="g12">
         <g id="g14-Clipped">
          <mask id="mask-20" sketch:name="path18" fill="white">
           <use xlink:href="#path-19"/>
          </mask>
          <g id="g14" mask="url(#mask-20)" sketch:type="MSShapeGroup">
           <g id="g20" fill="#DD2E44" transform="translate(.39125 .31981)">
            <path id="path22" d="m7.5 18.125c-0.07-0.07-0.1231-0.154-0.1675-0.247l-0.005 0.005-7.01-15.79 0.00688-0.0074c-0.13-0.2518 0.0875-0.7644 0.53312-1.2106 0.445-0.445 0.9575-0.6625 1.2094-0.5325l0.0062-0.00625 15.792 7.0094-0.005 0.0056c0.092 0.0438 0.176 0.0969 0.247 0.1676 0.976 0.9762-0.607 4.1422-3.536 7.0702-2.929 2.93-6.0948 4.512-7.071 3.536"/>
           </g>
           <g id="g24" fill="#EA596E" transform="translate(0.625 0.625)">
            <path id="path26" d="m8.125 15l-7.865-12.816-0.17625-0.3971 0.006875-0.0063c-0.13-0.2525 0.087495-0.7644 0.53312-1.2106 0.14501-0.145 0.29501-0.255 0.44316-0.34812l9.5581 11.653-2.5 3.125z"/>
           </g>
           <g id="g28" fill="#A0041E" transform="translate(7.5073 7.4588)">
            <path id="path30" d="m7.5 7.5c2.919-2.92 4.539-6.0325 3.618-6.9531-0.92-0.92065-4.033 0.6993-6.9536 3.6181-2.9194 2.92-4.5394 6.033-3.6188 6.954 0.9213 0.921 4.0338-0.7 6.9544-3.619"/>
           </g>
           <g id="g32" fill="#AA8DD8" transform="translate(9.7436 13.994)">
            <path id="path34" d="m2.5 0.625c-0.1244-0.10062-0.2869-0.15312-0.4588-0.13438-0.5424 0.05876-0.9987 0.2475-1.3181 0.54558-0.3381 0.3157-0.50498 0.7388-0.45935 1.1638 0.08 0.745 0.82745 1.4288 2.1018 1.2906 0.4956-0.0531 0.7169 0.1063 0.7238 0.1825 0.0087 0.0757-0.1732 0.2788-0.6682 0.3325-0.5431 0.0588-0.9987 0.2475-1.3187 0.5456-0.33812 0.3157-0.50562 0.7394-0.45938 1.1638 0.08126 0.745 0.82808 1.4288 2.1013 1.2906 0.3612-0.0387 0.5512 0.0363 0.6318 0.0844 0.065 0.0394 0.0907 0.0769 0.0932 0.0981 0.0068 0.0757-0.1725 0.2788-0.6694 0.3325-0.3425 0.0375-0.5912 0.345-0.5538 0.6888 0.0369 0.3431 0.3444 0.5912 0.6882 0.5537 1.2731-0.1369 1.8581-0.9637 1.7775-1.7093-0.0807-0.745-0.8275-1.4282-2.1019-1.2907-0.3612 0.0394-0.5506-0.0356-0.6312-0.0837-0.0644-0.0394-0.0907-0.0775-0.0932-0.0982-0.0081-0.0762 0.1725-0.2793 0.6694-0.3331 1.2731-0.1369 1.8581-0.9637 1.7775-1.7093-0.0806-0.745-0.8281-1.4288-2.1013-1.2907-0.3612 0.0388-0.5512-0.0356-0.6324-0.0837-0.0644-0.0394-0.0894-0.0775-0.0919-0.0988-0.0081-0.0756 0.1725-0.2787 0.6687-0.3325 0.3425-0.0369 0.5919-0.345 0.5538-0.6881-0.0182-0.17188-0.105-0.31938-0.2294-0.42"/>
           </g>
           <g id="g36" fill="#77B255" transform="translate(18.538 .71412)">
            <path id="path38" d="m1.25 8.125c1.2331 0.3481 2.0838-0.2019 2.2862-0.9238 0.2026-0.7212-0.2362-1.6343-1.4681-1.9806-0.4812-0.135-0.6256-0.365-0.6062-0.4387 0.0212-0.0738 0.2656-0.195 0.7456-0.0588 1.2325 0.3463 2.0831-0.2037 2.2856-0.925 0.2044-0.7219-0.2356-1.6337-1.4687-1.9812-0.4806-0.135-0.6256-0.3657-0.6044-0.4388 0.0206-0.0731 0.2644-0.1937 0.745-0.0593 0.3319 0.0937 0.6775-0.1 0.7712-0.43192 0.0926-0.3325-0.1006-0.6775-0.4337-0.77126-1.2313-0.34687-2.0831 0.20188-2.2869 0.92438-0.2025 0.7212 0.2369 1.6331 1.4706 1.9806 0.4807 0.1356 0.6257 0.365 0.6044 0.4388-0.0206 0.0731-0.2637 0.195-0.7444 0.06-1.2331-0.3475-2.0837 0.2012-2.2868 0.9237-0.20315 0.7219 0.23622 1.6338 1.47 1.9813 0.4794 0.1344 0.6244 0.3656 0.6037 0.4381-0.0212 0.0744-0.2637 0.1956-0.745 0.06-0.3325-0.0937-0.67685 0.1-0.7706 0.4325-0.09375 0.3319 0.1 0.6769 0.4325 0.77"/>
           </g>
           <g id="g40" fill="#AA8DD8" transform="translate(13.751 10.525)">
            <path id="path42" d="m1.25 0c-0.1838 0-0.365 0.080625-0.48875 0.23438-0.21563 0.27-0.17187 0.66312 0.0975 0.87872 0.13625 0.1094 3.3862 2.6619 7.9794 2.005 0.3418-0.0487 0.5787-0.365 0.5299-0.7069-0.0487-0.3412-0.3625-0.5812-0.7075-0.53-4.0581 0.5763-6.9918-1.7212-7.0206-1.7443-0.1156-0.092525-0.2531-0.1369-0.39-0.1369"/>
           </g>
           <g id="g44" fill="#77B255" transform="translate(1.7215 13.125)">
            <path id="path46" d="m2.5 0c-0.0594 0-0.12 0.00875-0.18 0.02625-0.3306 0.09937-0.5181 0.44813-0.4188 0.77875 0.7082 2.3581 1.35 6.1212 0.5613 7.1019-0.0887 0.1112-0.2213 0.2206-0.5263 0.1975-0.5868-0.0444-0.5306-1.2819-0.53-1.2944 0.0263-0.3444-0.2324-0.6444-0.5762-0.67-0.34938-0.0212-0.645 0.2325-0.67 0.5769-0.065 0.8619 0.20375 2.5219 1.6819 2.6337 0.66 0.05 1.2081-0.1794 1.5956-0.6606 1.4819-1.8444-0.0225-7.1919-0.3394-8.245-0.0812-0.27062-0.3293-0.445-0.5981-0.445"/>
           </g>
           <g id="g48" fill="#5C913B" transform="translate(15.625 15.938)">
            <path id="path50" d="m1.875 1.25c0-0.5175-0.42-0.9375-0.9375-0.9375s-0.9375 0.42-0.9375 0.9375 0.42 0.9375 0.9375 0.9375 0.9375-0.42 0.9375-0.9375"/>
           </g>
           <g id="g52" fill="#9266CC" transform="translate(0.625 10.625)">
            <path id="path54" d="m2.5 1.25c0-0.69-0.56-1.25-1.25-1.25s-1.25 0.56-1.25 1.25 0.56 1.25 1.25 1.25 1.25-0.56 1.25-1.25"/>
           </g>
           <g id="g56" fill="#5C913B" transform="translate(20 9.6875)">
            <path id="path58" d="m1.875 1.25c0-0.5175-0.42-0.9375-0.9375-0.9375s-0.9375 0.42-0.9375 0.9375 0.42 0.9375 0.9375 0.9375 0.9375-0.42 0.9375-0.9375"/>
           </g>
           <g id="g60" fill="#5C913B" transform="translate(14.375 2.1875)">
            <path id="path62" d="m1.875 1.25c0-0.5175-0.42-0.9375-0.9375-0.9375s-0.9375 0.42-0.9375 0.9375 0.42 0.9375 0.9375 0.9375 0.9375-0.42 0.9375-0.9375"/>
           </g>
           <g id="g64" fill="#FFCC4D" transform="translate(16.875 19.375)">
            <path id="path66" d="m2.5 1.25c0-0.69-0.56-1.25-1.25-1.25s-1.25 0.56-1.25 1.25 0.56 1.25 1.25 1.25 1.25-0.56 1.25-1.25"/>
           </g>
           <g id="g68" fill="#FFCC4D" transform="translate(20 16.562)">
            <path id="path70" d="m1.875 1.25c0-0.5175-0.42-0.9375-0.9375-0.9375s-0.9375 0.42-0.9375 0.9375 0.42 0.9375 0.9375 0.9375 0.9375-0.42 0.9375-0.9375"/>
           </g>
           <g id="g72" fill="#FFCC4D" transform="translate(18.125 14.062)">
            <path id="path74" d="m1.875 1.25c0-0.5175-0.42-0.9375-0.9375-0.9375s-0.9375 0.42-0.9375 0.9375 0.42 0.9375 0.9375 0.9375 0.9375-0.42 0.9375-0.9375"/>
           </g>
           <g id="g76" fill="#FFCC4D" transform="translate(4.375 7.1875)">
            <path id="path78" d="m1.875 1.25c0-0.5175-0.42-0.9375-0.9375-0.9375s-0.9375 0.42-0.9375 0.9375 0.42 0.9375 0.9375 0.9375 0.9375-0.42 0.9375-0.9375"/>
           </g>
          </g>
         </g>
        </g>
       </g>
      </g>
      <g id="1f4ac" transform="translate(376 191.5) scale(-1 1) translate(-24 -24.5)">
       <g id="g10" transform="translate(24 24.5) scale(1 -1) translate(-24 -24)">
        <g id="g12">
         <g id="g14-Clipped">
          <mask id="mask-22" sketch:name="path18" fill="white">
           <use xlink:href="#path-21"/>
          </mask>
          <g id="g14" mask="url(#mask-22)">
           <g id="g20" transform="translate(1.25 2.5)">
            <path id="path22" sketch:type="MSShapeGroup" fill="#BDDDF4" d="m22.5 42.5c-12.426 0-22.5-7.835-22.5-17.5 0-5.46 3.2175-10.335 8.255-13.544-0.655-2.886-2.1812-7.1672-5.755-11.456 7.1975 1.2 11.799 4.7012 14.645 8.02 1.72-0.3275 3.506-0.52 5.355-0.52 12.426 0 22.5 7.835 22.5 17.5s-10.074 17.5-22.5 17.5" transform="translate(22.5 21.25) scale(-1 1) translate(-22.5 -21.25)"/>
           </g>
          </g>
         </g>
        </g>
       </g>
       <text id="Yay!" font-size="12" font-family="Harmonia Sans Pro Cyr" transform="translate(22.5 24) scale(-1 1) translate(-22.5 -24)" sketch:type="MSTextLayer" fill="#58402C">
        <tspan y="25.5" x="12">Yay!</tspan>
       </text>
      </g>
     </g>
    </g>
   </g>
  </g>
 </g>
</svg>
