<?xml version="1.0" encoding="UTF-8" standalone="no"?>
<svg
   xmlns:sketch="http://www.bohemiancoding.com/sketch/ns"
   xmlns:dc="http://purl.org/dc/elements/1.1/"
   xmlns:cc="http://creativecommons.org/ns#"
   xmlns:rdf="http://www.w3.org/1999/02/22-rdf-syntax-ns#"
   xmlns:svg="http://www.w3.org/2000/svg"
   xmlns="http://www.w3.org/2000/svg"
   xmlns:sodipodi="http://sodipodi.sourceforge.net/DTD/sodipodi-0.dtd"
   xmlns:inkscape="http://www.inkscape.org/namespaces/inkscape"
   width="157px"
   height="26px"
   viewBox="0 0 157 26"
   version="1.1"
   id="svg2"
   inkscape:version="0.48.5 r10040"
   sodipodi:docname="logo-blog.svg">
  <metadata
     id="metadata19">
    <rdf:RDF>
      <cc:Work
         rdf:about="">
        <dc:format>image/svg+xml</dc:format>
        <dc:type
           rdf:resource="http://purl.org/dc/dcmitype/StillImage" />
        <dc:title>logo-blog</dc:title>
      </cc:Work>
    </rdf:RDF>
  </metadata>
  <sodipodi:namedview
     pagecolor="#ffffff"
     bordercolor="#666666"
     borderopacity="1"
     objecttolerance="10"
     gridtolerance="10"
     guidetolerance="10"
     inkscape:pageopacity="0"
     inkscape:pageshadow="2"
     inkscape:window-width="1920"
     inkscape:window-height="1027"
     id="namedview17"
     showgrid="false"
     inkscape:zoom="2.388535"
     inkscape:cx="78.5"
     inkscape:cy="13"
     inkscape:window-x="-8"
     inkscape:window-y="-8"
     inkscape:window-maximized="1"
     inkscape:current-layer="svg2" />
  <!-- Generator: Sketch 3.4 (15575) - http://www.bohemiancoding.com/sketch -->
  <title
     id="title4">logo-blog</title>
  <desc
     id="desc6">Created with Sketch.</desc>
  <defs
     id="defs8" />
  <g
     id="Marketing-Page"
     sketch:type="MSPage"
     stroke-width="1"
     stroke="none"
     fill-rule="evenodd"
     fill="none">
    <g
       id="blog"
       sketch:type="MSArtboardGroup"
       transform="translate(-50.000000, -24.000000)">
      <g
         id="Header"
         sketch:type="MSLayerGroup"
         transform="translate(50.000000, 19.000000)">
        <g
           id="logo-blog"
           transform="translate(0.000000, 5.000000)"
           sketch:type="MSShapeGroup">
          <path
             d="M23.2416211,6.45621313 C23.0932994,6.22455786 22.9373333,5.99826739 22.7740787,5.77769757 C20.8738349,3.20024324 17.8579276,1.1240351 13.8195943,0.875028154 C13.5487286,0.856989519 13.2754344,0.847826087 13,0.847826087 C12.7413975,0.847826087 12.4846816,0.855903778 12.230091,0.87182061 C8.6539044,1.07648097 5.89405955,2.69856033 3.98941761,4.84604339 C2.86452443,6.08834969 1.99296385,7.56433717 1.45624739,9.19249431 C1.10176082,10.2302442 0.904174856,11.2639493 0.866419799,12.2263481 C1.47437468,14.9250917 5.3582097,21.1956522 13,21.1956522 C20.6417903,21.1956522 24.5635989,14.9309187 25.1443706,12.2263481 C25.1002907,10.4251102 24.4548768,8.34296448 23.2416211,6.45621313 Z M25.0856648,14.2790518 C24.4465219,20.3893074 19.2794745,25.1521739 13,25.1521739 C6.7205255,25.1521739 1.55347809,20.3893074 0.914335199,14.2790518 C3.00951276,18.8603743 7.6330295,22.0434783 13,22.0434783 C18.3669705,22.0434783 22.9904872,18.8603743 25.0856648,14.2790518 Z M13,26 C20.1797017,26 26,20.1797017 26,13 C26,5.82029825 20.1797017,0 13,0 C5.82029825,0 0,5.82029825 0,13 C0,20.1797017 5.82029825,26 13,26 Z M5.52196908,9.24092946 C5.45005894,9.03781781 5.55250254,8.80306361 5.7533931,8.72664242 C5.7533931,8.72664242 6.48135565,8.33695652 8.05434783,8.33695652 C9.62734,8.33695652 10.4861009,8.73785567 10.4861009,8.73785567 C10.6872247,8.812584 10.7808702,9.04375794 10.7006612,9.24092946 C10.6180358,9.44404112 10.3871534,9.54975236 10.1759738,9.48380056 C10.1759738,9.48380056 9.50678089,9.18478261 8.05434783,9.18478261 C6.60191476,9.18478261 6.01419319,9.47920435 6.01419319,9.47920435 C5.81425546,9.55072042 5.59177616,9.43810098 5.52196908,9.24092946 Z M15.4132734,9.24092946 C15.3413633,9.03781781 15.4438069,8.80306361 15.6446974,8.72664242 C15.6446974,8.72664242 16.37266,8.33695652 17.9456522,8.33695652 C19.5186444,8.33695652 20.3774053,8.73785567 20.3774053,8.73785567 C20.578529,8.812584 20.6721745,9.04375794 20.5919656,9.24092946 C20.5093401,9.44404112 20.2784577,9.54975236 20.0672782,9.48380056 C20.0672782,9.48380056 19.3980852,9.18478261 17.9456522,9.18478261 C16.4932191,9.18478261 15.9054975,9.47920435 15.9054975,9.47920435 C15.7055598,9.55072042 15.4830805,9.43810098 15.4132734,9.24092946 Z"
             id="Mask-Copy-38"
             fill="#4E3D1E" />
          <path
             d="m 41.299664,16.814 c 0,0.644003 -0.111166,1.222831 -0.3335,1.7365 -0.222334,0.513669 -0.525165,0.950665 -0.9085,1.311 -0.383335,0.360335 -0.824164,0.640166 -1.3225,0.8395 C 38.236828,20.900334 37.704,21 37.136664,21 l -5.543,0 c -0.184001,0 -0.3105,-0.03067 -0.3795,-0.092 -0.069,-0.06133 -0.1035,-0.160999 -0.1035,-0.299 l 0,-14.467 c 0,-0.2453346 0.137999,-0.368 0.414,-0.368 l 4.853,0 c 1.487341,0 2.60283,0.3603297 3.3465,1.081 0.74367,0.7206703 1.1155,1.6636608 1.1155,2.829 0,0.2453346 -0.02683,0.521332 -0.0805,0.828 -0.05367,0.306668 -0.153333,0.613332 -0.299,0.92 -0.145667,0.306668 -0.344999,0.597999 -0.598,0.874 -0.253001,0.276001 -0.578831,0.505999 -0.9775,0.69 l 0.023,0.023 c 0.460002,0.138001 0.843332,0.356499 1.15,0.6555 0.306668,0.299001 0.551999,0.624832 0.736,0.9775 0.184001,0.352668 0.314333,0.720665 0.391,1.104 0.07667,0.383335 0.115,0.735998 0.115,1.058 l 0,0 z m -2.346,-6.992 c 0,-0.7053369 -0.222331,-1.2879977 -0.667,-1.748 -0.444669,-0.4600023 -1.157662,-0.69 -2.139,-0.69 l -3.266,0 0,4.899 3.611,0 c 0.337335,0 0.655498,-0.06517 0.9545,-0.1955 0.299001,-0.130334 0.559666,-0.302832 0.782,-0.5175 0.222334,-0.214668 0.398666,-0.471499 0.529,-0.7705 0.130334,-0.299001 0.1955,-0.624832 0.1955,-0.9775 l 0,0 z m 0.46,6.831 c 0,-0.352668 -0.05367,-0.697665 -0.161,-1.035 -0.107334,-0.337335 -0.275999,-0.632499 -0.506,-0.8855 -0.230001,-0.253001 -0.525165,-0.456166 -0.8855,-0.6095 -0.360335,-0.153334 -0.793498,-0.23 -1.2995,-0.23 l -3.68,0 0,5.474 3.68,0 c 0.567336,0 1.034998,-0.07283 1.403,-0.2185 0.368002,-0.145667 0.659332,-0.344999 0.874,-0.598 0.214668,-0.253001 0.364166,-0.540498 0.4485,-0.8625 0.08433,-0.322002 0.1265,-0.666998 0.1265,-1.035 l 0,0 z m 7.843,3.818 c 0.01533,0.184001 -0.06133,0.314333 -0.23,0.391 -0.184001,0.07667 -0.387166,0.138 -0.6095,0.184 -0.222334,0.046 -0.433166,0.069 -0.6325,0.069 -0.383335,0 -0.697665,-0.046 -0.943,-0.138 -0.245335,-0.092 -0.436999,-0.218499 -0.575,-0.3795 -0.138001,-0.161001 -0.233833,-0.360332 -0.2875,-0.598 -0.05367,-0.237668 -0.0805,-0.494499 -0.0805,-0.7705 l 0,-14.03 c 0,-0.260668 0.130332,-0.391 0.391,-0.391 l 0.92,0 c 0.138001,0 0.2415,0.023 0.3105,0.069 0.069,0.046 0.1035,0.1533325 0.1035,0.322 l 0,13.455 c 0,0.398669 0.08433,0.640166 0.253,0.7245 0.168667,0.08433 0.467664,0.1265 0.897,0.1265 0.245335,0 0.375667,0.07667 0.391,0.23 l 0.092,0.736 z m 10.971,-5.267 c 0,0.67467 -0.03833,1.364663 -0.115,2.07 -0.07667,0.705337 -0.272165,1.34933 -0.5865,1.932 -0.314335,0.58267 -0.793497,1.057998 -1.4375,1.426 -0.644003,0.368002 -1.533328,0.552 -2.668,0.552 -1.104006,0 -1.966497,-0.183998 -2.5875,-0.552 -0.621003,-0.368002 -1.084832,-0.839497 -1.3915,-1.4145 -0.306668,-0.575003 -0.4945,-1.218996 -0.5635,-1.932 -0.069,-0.713004 -0.1035,-1.40683 -0.1035,-2.0815 0,-0.552003 0.046,-1.157663 0.138,-1.817 0.092,-0.659337 0.295165,-1.272664 0.6095,-1.84 0.314335,-0.567336 0.778164,-1.038831 1.3915,-1.4145 0.613336,-0.3756685 1.448995,-0.5635 2.507,-0.5635 1.058005,0 1.905163,0.1648317 2.5415,0.4945 0.636336,0.329668 1.123165,0.758997 1.4605,1.288 0.337335,0.529003 0.555833,1.13083 0.6555,1.8055 0.09967,0.67467 0.1495,1.356996 0.1495,2.047 l 0,0 z m -1.794,0.161 c 0,-0.705337 -0.03833,-1.322497 -0.115,-1.8515 -0.07667,-0.529003 -0.226166,-0.965998 -0.4485,-1.311 -0.222334,-0.345002 -0.528998,-0.605666 -0.92,-0.782 -0.391002,-0.176334 -0.90083,-0.2645 -1.5295,-0.2645 -0.598003,0 -1.080998,0.08817 -1.449,0.2645 -0.368002,0.176334 -0.659332,0.440832 -0.874,0.7935 -0.214668,0.352668 -0.360333,0.789664 -0.437,1.311 -0.07667,0.521336 -0.115,1.134663 -0.115,1.84 0,0.705337 0.03833,1.318664 0.115,1.84 0.07667,0.521336 0.222332,0.958332 0.437,1.311 0.214668,0.352668 0.505998,0.617166 0.874,0.7935 0.368002,0.176334 0.850997,0.2645 1.449,0.2645 0.62867,0 1.138498,-0.08433 1.5295,-0.253 0.391002,-0.168668 0.697666,-0.425498 0.92,-0.7705 0.222334,-0.345002 0.371833,-0.781997 0.4485,-1.311 0.07667,-0.529003 0.115,-1.15383 0.115,-1.8745 l 0,0 z m 8.694,-5.796 c 0.352668,0 0.720665,0.015333 1.104,0.046 0.383335,0.030667 0.758998,0.069 1.127,0.115 0.368002,0.046 0.720665,0.1034997 1.058,0.1725 0.337335,0.069 0.643999,0.141833 0.92,0.2185 0.260668,0.07667 0.421666,0.206999 0.483,0.391 0.06133,0.184001 0.092,0.360333 0.092,0.529 l 0,10.005 c 0,0.613336 -0.046,1.176831 -0.138,1.6905 -0.092,0.513669 -0.291332,0.958331 -0.598,1.334 -0.306668,0.375668 -0.75133,0.666999 -1.334,0.874 -0.58267,0.207001 -1.364662,0.3105 -2.346,0.3105 -0.291335,0 -0.605665,-0.0077 -0.943,-0.023 -0.337335,-0.01533 -0.670832,-0.04217 -1.0005,-0.0805 -0.329668,-0.03833 -0.651665,-0.092 -0.966,-0.161 -0.314335,-0.069 -0.594165,-0.157166 -0.8395,-0.2645 -0.153334,-0.06133 -0.2415,-0.134166 -0.2645,-0.2185 -0.023,-0.08433 -0.01917,-0.1725 0.0115,-0.2645 l 0.092,-0.506 c 0.03067,-0.138001 0.092,-0.222333 0.184,-0.253 0.092,-0.03067 0.222332,-0.03067 0.391,0 0.490669,0.07667 1.034997,0.130333 1.633,0.161 0.598003,0.03067 1.134664,0.046 1.61,0.046 0.536669,0 0.977498,-0.04217 1.3225,-0.1265 0.345002,-0.08433 0.620999,-0.218499 0.828,-0.4025 0.207001,-0.184001 0.352666,-0.417832 0.437,-0.7015 0.08433,-0.283668 0.1265,-0.624831 0.1265,-1.0235 l 0,-0.92 c -0.705337,0.260668 -1.322497,0.440833 -1.8515,0.5405 -0.529003,0.09967 -1.000498,0.1495 -1.4145,0.1495 -0.889338,0 -1.621497,-0.134165 -2.1965,-0.4025 -0.575003,-0.268335 -1.031165,-0.655497 -1.3685,-1.1615 -0.337335,-0.506003 -0.571166,-1.111663 -0.7015,-1.817 -0.130334,-0.705337 -0.1955,-1.494996 -0.1955,-2.369 0,-0.935338 0.07667,-1.767163 0.23,-2.4955 0.153334,-0.728337 0.413998,-1.345497 0.782,-1.8515 0.368002,-0.506002 0.85483,-0.889332 1.4605,-1.15 0.60567,-0.260668 1.360829,-0.391 2.2655,-0.391 l 0,0 z m -2.898,5.681 c 0,0.812671 0.046,1.494997 0.138,2.047 0.092,0.552003 0.241499,1.004332 0.4485,1.357 0.207001,0.352668 0.471498,0.605666 0.7935,0.759 0.322002,0.153334 0.720664,0.23 1.196,0.23 0.429335,0 0.942997,-0.046 1.541,-0.138 0.598003,-0.092 1.18833,-0.222333 1.771,-0.391 l 0,-7.659 c -0.444669,-0.06133 -0.923831,-0.118833 -1.4375,-0.1725 -0.513669,-0.05367 -1.015831,-0.0805 -1.5065,-0.0805 -0.414002,0 -0.801165,0.046 -1.1615,0.138 -0.360335,0.092 -0.674665,0.279832 -0.943,0.5635 -0.268335,0.283668 -0.475333,0.689997 -0.621,1.219 -0.145667,0.529003 -0.2185,1.238162 -0.2185,2.1275 l 0,0 z"
             id="Blog"
             inkscape:connector-curvature="0"
             style="fill:#30488f" />
        </g>
      </g>
    </g>
  </g>
</svg>
